<?xml version="1.0" encoding="utf-8"?>
<!-- Generator: Adobe Illustrator 25.4.1, SVG Export Plug-In . SVG Version: 6.00 Build 0)  -->
<svg version="1.1" id="Слой_1" xmlns="http://www.w3.org/2000/svg" xmlns:xlink="http://www.w3.org/1999/xlink" x="0px" y="0px"
	 viewBox="0 0 104 48" style="enable-background:new 0 0 104 48;" xml:space="preserve">
<style type="text/css">
	.st0{fill:#FFFFFF;}
</style>
<g>
	<path id="path169_1_" class="st0" d="M28.6,34.2c-1.6,1.6-4,1.9-7.5,1.9h-5c-7,0-9.3-1.6-9.3-7.3v-3.1h6.7c0,0.3,0,0.6,0,0.8
		c0,2.8,0.7,3.8,3.5,3.8h3.2c2.6,0,3-1,3-3.3V12.4h7.2v16.9C30.5,31.2,29.8,33,28.6,34.2z"/>
	<path id="path171_1_" class="st0" d="M56.7,20.5c0-1.9-1.2-2.7-3.8-2.7h-5.8c-4.7,0-5.8,0.6-5.8,4.6v3.3c0,3.7,1.6,4.4,5.8,4.4h4.2
		c4,0,5.6-0.4,5.6-3.2c0-0.1,0-0.2,0-0.3h7.3c0,0.6,0.1,1.2,0.1,1.7c0,2.9-0.7,4.9-2.4,6.1c-1.8,1.3-4.6,1.6-8.7,1.6h-8
		c-3.7,0-6.3-0.2-8.4-1.7c-2-1.6-2.7-3.7-2.7-6.9V21c0-7.1,3.1-9.1,11.1-9.1h8c4.1,0,6.9,0.2,8.6,1.5c1.5,1.2,2.2,3.1,2.2,5.9
		c0,0.4,0,0.9,0,1.3L56.7,20.5C56.7,20.8,56.7,20.6,56.7,20.5z"/>
	<path id="path173_1_" class="st0" d="M67.4,35.8V12.4h21.2c5.3,0,7.8,2.1,7.8,6.6c0,2.5-1.1,4.1-3.5,5c3,0.5,4.3,2.2,4.3,5.6
		c0,4.5-2.3,6.4-7.5,6.4H67.4V35.8z M89,19.5c0-1.2-0.7-1.9-1.8-1.9H74.6v3.9h12.6C88.4,21.5,89,20.8,89,19.5z M89.8,28.3
		c0-1.3-0.8-2.1-2-2.1H74.5v4.2h13.3C89.1,30.5,89.8,29.8,89.8,28.3z"/>
</g>
</svg>
