<?xml version="1.0" encoding="utf-8"?>
<!-- Generator: Adobe Illustrator 25.2.3, SVG Export Plug-In . SVG Version: 6.00 Build 0)  -->
<svg version="1.1" id="Слой_1" xmlns="http://www.w3.org/2000/svg" xmlns:xlink="http://www.w3.org/1999/xlink" x="0px" y="0px"
	 viewBox="0 0 199.5 66" style="enable-background:new 0 0 199.5 66;" xml:space="preserve">
<style type="text/css">
	.st0{fill:#FFFFFF;}
</style>
<polygon class="st0" points="45.3,25 35,25 30.1,35.7 30.1,25 21,25 21,47.1 30.1,47.1 30.1,35.9 35.2,47.2 45.5,47.2 40,35.9 "/>
<path class="st0" d="M147.8,30.6c1.4,0,3.6,1,5.3,1.9l2.5-5.9c-2.4-1.6-5.1-2.4-7.9-2.5h-0.5c-2.5,0-4.9,0.8-6.8,2.4
	c-2.5,2.1-3.2,5.7-1.6,8.7c1.4,2.7,4.1,3.3,5.9,3.8c0.5,0.1,1,0.3,1.5,0.5c0.4,0.2,0.6,0.5,0.6,1c0,0.4-0.2,0.8-0.7,0.9
	c-0.2,0.1-0.5,0.1-0.8,0.1c-2.5,0-6.2-2.4-6.2-2.4l-2.5,5.9c3.2,1.9,5.8,3,9.6,3c2.4,0.1,4.6-0.6,6.2-1.8c1.5-1.1,2.5-2.5,2.9-4.3
	c0.9-3.1-0.5-6.2-3.2-7.8c-1.1-0.6-2.2-0.9-3.4-1.2c-1.4-0.4-2.2-0.7-2.1-1.5C146.7,30.9,147.1,30.6,147.8,30.6z"/>
<path class="st0" d="M169.5,24.9v13.9c-0.1,0.6-0.6,1.2-1.2,1.2s-1.2-0.6-1.2-1.2V24.9h-9v14c-0.2,2.5,0.9,5,2.8,6.8
	c2,1.7,4.6,2.4,7.3,2.3c2.6,0.2,5.2-0.7,7.5-2.4c1.9-1.5,2.8-3.8,2.8-6.8V24.9H169.5z"/>
<polygon class="st0" points="140.1,26.8 140.1,18 131.7,18 131.7,25 117.5,25 117.5,33.3 122.8,33.3 122.8,47.1 131.9,47.1 
	131.7,26.8 "/>
<path class="st0" d="M55.8,24.2c-6.5,0.1-11.7,5.4-11.5,11.9c0,6.5,5.2,11.8,11.7,11.9c3.1,0,6.1-1.2,8.3-3.3
	c2.2-2.2,3.4-5.3,3.4-8.4v-0.6C67.6,29.2,62.3,24,55.8,24.2z M59.3,36.1c0,1.8-1.6,3.3-3.4,3.3c-1.8,0-3.3-1.5-3.3-3.4
	c0-1.8,1.5-3.3,3.4-3.3C57.8,32.7,59.3,34.2,59.3,36.1L59.3,36.1z"/>
<polygon class="st0" points="103.7,25 96.7,45.8 93.6,25 85.4,25 82.6,33.9 79.8,25 71.6,25 68.3,47.1 76.4,47.1 77.5,38.7 
	79.8,47.1 85.1,47.1 87.4,38.7 88.6,47.1 105.5,47.1 108.2,36.6 110.9,47.1 120.3,47.1 112.7,25 "/>
</svg>
