<?xml version="1.0" encoding="utf-8"?>
<!-- Generator: Adobe Illustrator 25.2.3, SVG Export Plug-In . SVG Version: 6.00 Build 0)  -->
<svg version="1.1" id="Слой_1" xmlns="http://www.w3.org/2000/svg" xmlns:xlink="http://www.w3.org/1999/xlink" x="0px" y="0px"
	 viewBox="0 0 219 66" style="enable-background:new 0 0 219 66;" xml:space="preserve">
<style type="text/css">
	.st0{fill:#FFFFFF;}
</style>
<g>
	<g id="g57_2_" transform="translate(43.306702,732.58591)">
		<path id="path59_2_" class="st0" d="M-19.6-714.6c-1,0-1.9,0.8-1.9,1.9v26.2c0,1,0.8,1.9,1.9,1.9h31.1c1,0,1.9-0.8,1.9-1.9v-26.2
			c0-1-0.8-1.9-1.9-1.9H-19.6z M-20.1-686.5v-26.2c0-0.3,0.2-0.5,0.5-0.5h31.1c0.3,0,0.5,0.2,0.5,0.5v26.2c0,0.3-0.2,0.5-0.5,0.5
			h-31.1C-19.9-686-20.1-686.2-20.1-686.5"/>
	</g>
	<g id="g61_2_" transform="translate(71.903595,728.5504)">
		<path id="path63_2_" class="st0" d="M-19.6-706.5l-5.8,5.8l0,0c-0.2,0.2-0.5,0.3-0.8,0.3s-0.5-0.1-0.7-0.4l-5.9-5.8l-5.8,5.8
			c-0.2,0.2-0.5,0.4-0.7,0.4c-0.3,0-0.6-0.1-0.8-0.3l-5.8-5.8l0,0v22.2h12.3h1.6h12.3L-19.6-706.5L-19.6-706.5z M-34.9-692.6h-8.8
			c-0.6,0-1.1-0.5-1.1-1.1c0-0.2,0.1-0.4,0.2-0.6l4.6-4.6c0.2-0.2,0.4-0.3,0.7-0.3s0.6,0.1,0.8,0.3l4.5,4.5c0.1,0.2,0.2,0.4,0.2,0.6
			C-33.8-693.1-34.3-692.6-34.9-692.6 M-21.7-692.6h-8.8c-0.6,0-1.1-0.5-1.1-1.1c0-0.2,0.1-0.4,0.2-0.6l4.5-4.5
			c0.2-0.2,0.4-0.3,0.8-0.3c0.3,0,0.5,0.1,0.7,0.3l4.6,4.6c0.1,0.2,0.2,0.4,0.2,0.6C-20.6-693.1-21.1-692.6-21.7-692.6"/>
	</g>
	<g id="g65_2_" transform="translate(94.353607,706.5018)">
		<path id="path67_2_" class="st0" d="M-19.6-662.4v-17.4h-8.8v-4.7h23.6v4.7h-8.3v17.4H-19.6z"/>
	</g>
	<g id="g69_2_" transform="translate(112.1342,706.5018)">
		<path id="path71_2_" class="st0" d="M-19.5-662.4v-22.1H1.8v4.9h-15.6v4.2H1.4v4.4h-15.3v4.4H1.8v4.4h-21.3V-662.4z"/>
	</g>
	<g id="g73_2_" transform="translate(165.46471,706.5018)">
		<path id="path75_2_" class="st0" d="M-19.5-662.4v-22.1H1.8v4.9h-15.6v4.2H1.5v4.4h-15.3v4.4H1.8v4.4h-21.3V-662.4z"/>
	</g>
	<g id="g77_2_" transform="translate(216.59419,706.45889)">
		<path id="path79_2_" class="st0" d="M-19.4-662.3L-29.7-674l9.3-10.5h-7.7l-5.4,6.1l-5.4-6.1h-7.7l9.2,10.5l-10.3,11.6h7.8
			l6.4-7.2l6.4,7.3L-19.4-662.3L-19.4-662.3z"/>
	</g>
	<g id="g81_2_" transform="translate(143.4097,724.0753)">
		<path id="path83_2_" class="st0" d="M-19.5-697.6h10.3c3.4,0,3.5,4.5,0.1,4.5h-10.5L-19.5-697.6z M-25.4-702.1v22.1h5.8v-8.4h5.7
			l6.4,8.4h7c0,0-6.4-8.5-6.3-8.4c7.2,0.2,9.8-13.7-2.3-13.7L-25.4-702.1L-25.4-702.1z"/>
	</g>
</g>
</svg>
