<?xml version="1.0" encoding="utf-8"?>
<!-- Generator: Adobe Illustrator 25.2.3, SVG Export Plug-In . SVG Version: 6.00 Build 0)  -->
<svg version="1.1" id="Слой_1" xmlns="http://www.w3.org/2000/svg" xmlns:xlink="http://www.w3.org/1999/xlink" x="0px" y="0px"
	 viewBox="0 0 199.5 66" style="enable-background:new 0 0 199.5 66;" xml:space="preserve">
<style type="text/css">
	.st0{fill-rule:evenodd;clip-rule:evenodd;fill:#FFFFFF;}
</style>
<g id="Page_1">
	<g id="Camada_1_1_">
		<g id="g10">
			<polygon id="polygon12" class="st0" points="13.5,22.1 13.5,25.3 18.8,25.3 29,44.5 41.6,44.5 51.9,25.2 57.1,25.2 57.1,22.1 
				41.4,22.1 41.4,25.2 45.6,25.2 38.4,38.9 30.5,25.3 36.3,25.2 36.2,22.1 			"/>
			<polygon id="polygon14" class="st0" points="114.6,22.1 114.6,25.3 119.8,25.3 130.1,44.5 142.7,44.5 152.9,25.2 158.2,25.2 
				158.2,22.1 142.5,22.1 142.5,25.2 146.7,25.2 139.5,38.9 131.6,25.3 137.3,25.2 137.3,22.1 			"/>
			<path id="path16" class="st0" d="M88.8,22.1v3.2h5.2l0,15.7h-5.5v3.5l5.5,0h26.1V34h-3.4c-0.2,5.5-5,6.9-7,6.9
				c-1.8,0-5.4,0-5.4,0V25.3l5.2,0l0-3.2L88.8,22.1L88.8,22.1z"/>
			<path id="path18" class="st0" d="M71,41.6c-3.1,0-5.7-3.8-5.7-8.4c0-4.6,2.5-8.4,5.7-8.4c3.1,0,5.7,3.8,5.7,8.4
				C76.6,37.9,74.1,41.6,71,41.6L71,41.6z M71.2,21.4c-8.9,0-16.1,5.3-16.1,11.8c0,6.5,7.2,11.8,16.1,11.8c8.9,0,16.1-5.3,16.1-11.8
				C87.3,26.7,80.1,21.4,71.2,21.4L71.2,21.4z"/>
			<path id="path20" class="st0" d="M172.1,41.6c-3.1,0-5.7-3.8-5.7-8.5c0-4.7,2.5-8.5,5.7-8.5c3.1,0,5.7,3.8,5.7,8.5
				C177.7,37.7,175.2,41.6,172.1,41.6L172.1,41.6z M172.3,21c-8.9,0-16.1,5.4-16.1,12c0,6.6,7.2,12,16.1,12c8.9,0,16.1-5.4,16.1-12
				C188.4,26.4,181.2,21,172.3,21L172.3,21z"/>
		</g>
	</g>
</g>
</svg>
