<?xml version="1.0" encoding="utf-8"?>
<!-- Generator: Adobe Illustrator 25.4.1, SVG Export Plug-In . SVG Version: 6.00 Build 0)  -->
<svg version="1.1" id="Слой_1" xmlns="http://www.w3.org/2000/svg" xmlns:xlink="http://www.w3.org/1999/xlink" x="0px" y="0px"
	 viewBox="0 0 15 15" style="enable-background:new 0 0 15 15;" xml:space="preserve">
<style type="text/css">
	.st0{fill:#010101;}
</style>
<g>
	<g>
		<path class="st0" d="M5.1,8.4C4.4,8,3.9,7.2,3.1,7c-1-0.1-0.3,1.5,0.1,1.8c0,0,2.4,3.4,2.4,3.5c0,0,0,0.1,0.1,0.1h0
			c0.1,0.5,0.1,1,0.6,1.1v0c0.5-0.1,4.1,0.2,4.4-0.2c0.8-0.8,1.6-1.9,1.6-3.1c0-1,0.5-3.3-1.1-3.1c-0.1,0.4,0.2,1.3-0.4,1.4
			c-0.2,0-0.3-0.1-0.3-0.3c0-0.9,0.3-2.3-0.9-2.1C9.6,6.6,9.9,7.6,9.3,7.7C9.1,7.7,9,7.6,9,7.4c0-0.9,0.3-2.3-0.9-2.1v1.2
			c0,0.4-0.6,0.4-0.6,0c0,0,0-3.3,0-3.3c0.1-1.5-1.8-1.5-1.7,0c0,0,0,5.3,0,5.3c0,0.4-0.6,0.4-0.6,0C5.1,8.5,5.1,8.4,5.1,8.4
			L5.1,8.4z M8.1,4.7c0.7-0.1,1.5,0.2,1.5,0.9c0.7-0.2,1.6,0.2,1.6,1C12.9,6.2,13,7.8,13,9.1c0,1.2-0.2,2.5-0.8,3.4
			c-0.5,0.8-1.1,1.7-2,1.6c0,0-3.8,0-3.8,0v0c-0.8,0-1.1-0.8-1.2-1.6C4.7,11.9,2.5,9,2.2,8.4c-0.5-0.9-0.1-2.3,1-2
			C4,6.5,4.5,7.1,5.1,7.6V3.2c-0.1-2.3,3-2.3,3,0C8.1,3.2,8.1,4.7,8.1,4.7L8.1,4.7z"/>
	</g>
</g>
<path d="M4.3,3H4C3.8,3,3.6,2.8,3.6,2.6S3.8,2.2,4,2.2h0.3c0.2,0,0.4,0.2,0.4,0.4S4.5,3,4.3,3z"/>
<path d="M9.2,3H8.9C8.7,3,8.5,2.8,8.5,2.6s0.2-0.4,0.4-0.4h0.3c0.2,0,0.4,0.2,0.4,0.4S9.4,3,9.2,3z"/>
<path d="M8.2,1.6C8.1,1.6,8,1.6,8,1.5C7.8,1.4,7.8,1.1,8,1l0.2-0.2c0.1-0.1,0.4-0.1,0.5,0c0.1,0.1,0.1,0.4,0,0.5L8.5,1.5
	C8.4,1.6,8.3,1.6,8.2,1.6z"/>
<path d="M5,1.6c-0.1,0-0.2,0-0.3-0.1L4.5,1.3C4.4,1.2,4.4,1,4.5,0.8s0.4-0.1,0.5,0L5.2,1c0.1,0.1,0.1,0.4,0,0.5
	C5.2,1.6,5.1,1.6,5,1.6z"/>
<path d="M6.6,1C6.4,1,6.2,0.9,6.2,0.7V0.4C6.2,0.2,6.4,0,6.6,0S7,0.2,7,0.4v0.3C7,0.9,6.8,1,6.6,1z"/>
</svg>
