<?xml version="1.0" encoding="utf-8"?>
<!-- Generator: Adobe Illustrator 25.4.1, SVG Export Plug-In . SVG Version: 6.00 Build 0)  -->
<svg version="1.1" id="Слой_1" xmlns="http://www.w3.org/2000/svg" xmlns:xlink="http://www.w3.org/1999/xlink" x="0px" y="0px"
	 viewBox="0 0 10 10" style="enable-background:new 0 0 10 10;" xml:space="preserve">
<style type="text/css">
	.st0{fill:#CECBE6;}
	.st1{fill:#1C1C1C;}
</style>
<g>
	<path id="path4109" class="st0" d="M3.7,1l0,0.4l-0.4,0l0,3.3L3,4.6l0-0.4l-1.1,0v1.1l0.4,0v0.4l0.3,0l0,0.7l0.4,0l0,0.7l0.4,0
		l0,0.7l0.4,0l0,1.1l3.6,0l0-1.1l0.4,0l0-1.1l0.4,0l0-2.5l-0.4,0l0-0.4l-0.4,0l0-0.4l-0.7,0l0-0.4l-1.1,0l0-0.4l-0.7,0l0-1.4l-0.4,0
		l0-0.4L3.7,1L3.7,1z"/>
	<path id="path3016" class="st1" d="M3.7,1l0.7,0l0,0.4H3.7L3.7,1z"/>
	<path id="path3018" class="st1" d="M3.4,1.4h0.4l0,4l-0.4,0l0-0.4L3,5l0-0.4h0.4L3.4,1.4L3.4,1.4z"/>
	<path id="path3020" class="st1" d="M4.5,1.4h0.4l0,1.4l0.7,0v0.4l1.1,0v0.4l0.7,0v0.4l0.4,0v0.4l0.4,0l0,2.5H7.7l0,1.1H7.4V6.8h0.4
		V4.3H7.4V3.9L7,3.9L7,5L6.6,5V3.5H5.9l0,1.1l-0.4,0V3.2l-0.7,0v1.5l-0.4,0L4.5,1.4L4.5,1.4z"/>
	<path id="path3026" class="st1" d="M1.9,4.3l1.1,0l0,0.4H2.3v0.7c0,0-0.2,0-0.4,0C1.9,5,1.9,4.3,1.9,4.3z"/>
	<path id="path3030" class="st1" d="M2.3,5.4l0.4,0v0.4H3v0.7h0.4v0.7H3V6.5H2.6V5.7H2.3V5.4z"/>
	<path id="path3038" class="st1" d="M3.4,7.2h0.4v0.7h0.4l0,0.7l2.9,0l0-0.7h0.4V9L3.7,9V7.9H3.4V7.2L3.4,7.2z"/>
</g>
</svg>
