<?xml version="1.0" encoding="utf-8"?>
<!-- Generator: Adobe Illustrator 25.4.1, SVG Export Plug-In . SVG Version: 6.00 Build 0)  -->
<svg version="1.1" id="Слой_1" xmlns="http://www.w3.org/2000/svg" xmlns:xlink="http://www.w3.org/1999/xlink" x="0px" y="0px"
	 viewBox="0 0 76 76" style="enable-background:new 0 0 76 76;" xml:space="preserve">
<style type="text/css">
	.st0{clip-path:url(#SVGID_00000038399674143533877180000000587483906704848315_);}
	.st1{fill:#212121;}
	.st2{fill:#6699CC;}
</style>
<g>
	<defs>
		<rect id="SVGID_1_" x="4.7" y="25.5" width="66.6" height="25.1"/>
	</defs>
	<clipPath id="SVGID_00000180352969976415221900000013875376303045092797_">
		<use xlink:href="#SVGID_1_"  style="overflow:visible;"/>
	</clipPath>
	<g style="clip-path:url(#SVGID_00000180352969976415221900000013875376303045092797_);">
		<path class="st1" d="M60.5,41.1l-2.6-7.3l2.9-7.4l8.9,23.8h-6.2L62,45.9L62,45.7h-8.7l1.6-4.2h5.8L60.5,41.1z"/>
		<path class="st2" d="M25.3,35.2l3.3,6.6l0.4,0.8l0.3-0.8l5.2-16h4.6l4.8,15.9l0.3,0.9l0.4-0.9l6.8-16h6l-9.8,24.4h-6.1l-4.5-14.3
			l-0.3-1l-0.3,1l-4.7,14.3h-6.1l-3.2-5.6C22.2,44.6,25.3,35.2,25.3,35.2z"/>
		<path class="st1" d="M12.1,41.6h-0.3v8.6H6.1V25.8h10c2.9,0,5,0.8,6.5,2.4l0,0c0.2,0.3,0.5,0.5,0.7,0.8l-2.9,9l-1,3.1
			c-0.9,0.2-1.9,0.4-3.1,0.4H12.1L12.1,41.6z M11.7,37.1v0.3h2.7c1.6,0,2.8-0.3,3.4-1.1c0.6-0.7,0.9-1.6,0.9-2.6c0-1.1-0.3-2-1-2.7
			c-0.7-0.7-1.8-1-3.3-1h-2.7V37.1L11.7,37.1z"/>
	</g>
</g>
</svg>
