<?xml version="1.0" encoding="utf-8"?>
<!-- Generator: Adobe Illustrator 25.4.1, SVG Export Plug-In . SVG Version: 6.00 Build 0)  -->
<svg version="1.1" id="Слой_1" xmlns="http://www.w3.org/2000/svg" xmlns:xlink="http://www.w3.org/1999/xlink" x="0px" y="0px"
	 viewBox="0 0 76 76" style="enable-background:new 0 0 76 76;" xml:space="preserve">
<style type="text/css">
	.st0{fill:#72C8F1;}
	.st1{fill-rule:evenodd;clip-rule:evenodd;fill:#4169B2;}
	.st2{fill:#A271B1;}
	.st3{fill:#4169B2;}
</style>
<g>
	<path class="st0" d="M5.4,61.7c0-4.8,3.9-8.8,8.8-8.8h47.6c4.9,0,8.9,4,8.9,8.9s-4,8.9-8.9,8.9H14.3c-4.8,0.1-8.8-3.8-8.9-8.7
		C5.4,62,5.4,61.8,5.4,61.7z"/>
	<path class="st1" d="M8,7.9c3.4-3.5,8.9-3.6,12.4-0.2c0.1,0.1,0.1,0.1,0.2,0.2l23.8,23.7c3.5,3.5,3.5,9.1,0,12.6L20.6,68
		c-3.5,3.5-9.1,3.5-12.6,0s-3.5-9.1,0-12.6L24.4,39c0.6-0.6,0.6-1.5,0-2.1L8,20.6c-3.5-3.4-3.6-8.9-0.2-12.4C7.8,8.1,7.9,8,8,7.9z"
		/>
	<path class="st2" d="M35.8,52.7L20.6,68c-3.5,3.5-9.1,3.5-12.6,0s-3.5-9.1,0-12.6l2.6-2.6H35.8z"/>
	<circle class="st3" cx="61.8" cy="61.7" r="8.9"/>
</g>
</svg>
