<?xml version="1.0" encoding="utf-8"?>
<!-- Generator: Adobe Illustrator 25.2.3, SVG Export Plug-In . SVG Version: 6.00 Build 0)  -->
<svg version="1.1" id="Слой_1" xmlns="http://www.w3.org/2000/svg" xmlns:xlink="http://www.w3.org/1999/xlink" x="0px" y="0px"
	 viewBox="0 0 184.6 66" style="enable-background:new 0 0 184.6 66;" xml:space="preserve">
<style type="text/css">
	.st0{fill-rule:evenodd;clip-rule:evenodd;fill:#FFFFFF;}
</style>
<path class="st0" d="M52.9,38.6c-0.5,1-1.3,2.4-2.6,3.8c-2.6,2.8-7.1,5.6-14.7,5.6c-9.3,0-13-3.3-14.8-6.6c-1.3-2.4-1.6-4.8-1.4-6.9
	c0.4-3.9,4.1-16.4,20.7-16.4c9.3,0,12.9,3,14.3,6.4c1.1,2.7,0.7,6.8,0.6,7.1H44.1c0.4-2.1-0.3-5.6-4-5.6c-4.1,0-8,3-9.1,7
	c-1.2,4.4,1.3,7.1,5.2,7.2c4.2,0.1,6.3-3.4,6.3-3.4h11.1C53.5,37.1,53.1,38.1,52.9,38.6L52.9,38.6z M83.6,19l5,28.4h-12L76.3,44
	H64.7l-2.2,3.4H49.8L70.7,19H83.6z M76,38.2l-0.9-10.8L68,38.2H76z M89.4,37.4h11.2c0,0.1-0.1,4.1,5.8,4.1c4.1,0,4.7-1.3,4.8-1.9
	c0.2-1.1-0.5-1.6-2.1-2c-4.9-1.2-11.5-3.3-13.3-4.4c-1.2-0.7-3.1-2.4-3.1-5.6c0-4.3,5.1-9.7,16.2-9.6c5.5,0,8.9,1.1,11,2.1
	c4.4,2,4.8,6.2,4.7,8h-10.9c0,0,0-3.2-4.6-3.4c-2.3-0.1-4.9,0.3-4.8,2.1c0,1.5,1.5,1.9,5.2,2.7c0.9,0.2,6.8,1.4,8.7,2.1
	c3.4,1.3,5.1,3,4.5,6.8c-1.2,8.3-12,9.7-17.5,9.7c-6.9,0-14.2-1.2-15.7-8.1C89.5,39.1,89.4,37.4,89.4,37.4L89.4,37.4z M130.7,19
	h29.8l-1.9,7.4h-18.8l-1,3.7h18l-1.5,6h-18l-1,3.7h18.9l-1.9,7.4h-29.8"/>
</svg>
