<?xml version="1.0" encoding="utf-8"?>
<!-- Generator: Adobe Illustrator 25.2.3, SVG Export Plug-In . SVG Version: 6.00 Build 0)  -->
<svg version="1.1" id="Слой_1" xmlns="http://www.w3.org/2000/svg" xmlns:xlink="http://www.w3.org/1999/xlink" x="0px" y="0px"
	 viewBox="0 0 89.1 66" style="enable-background:new 0 0 89.1 66;" xml:space="preserve">
<style type="text/css">
	.st0{fill:#FFFFFF;}
</style>
<g>
	<g id="layer1_3_" transform="translate(-254.26343,-163.48068)">
		<g id="g2418_1_" transform="translate(256.02387,164.53694)">
			<path id="path2386_1_" class="st0" d="M32.2,41.1c1.1-0.9,1.3-2.1,1.3-3.2v-4.4h-6.2v6c0,0.9-0.7,1.6-1.5,1.6
				c-0.9,0-1.5-0.7-1.5-1.6v-17c0-0.9,0.6-1.5,1.5-1.5s1.5,0.7,1.5,1.5v6h6.1v-6.2c0-3.4-2.3-6.3-7.7-6.3c-5.6,0-7.8,2.9-7.8,6.3V40
				c0,3.4,2.7,6,6.2,6H26L32.2,41.1z"/>
			<polygon id="polygon2404_1_" class="st0" points="56.4,41.8 56.4,22.3 52.2,22.3 52.2,16.6 67.6,16.6 67.6,22.3 63.3,22.3 
				63.3,46 61.5,46 			"/>
			<polygon id="polygon2406_1_" class="st0" points="59.2,46 44.2,33.5 28.7,46 			"/>
			<path id="path2408_1_" class="st0" d="M42.6,30.1l1.7-8.5l1.6,8.5H42.6z M48.5,16.6h-8.6l-5,22.4l9.3-7.5l9.7,8.1L48.5,16.6z"/>
		</g>
	</g>
</g>
</svg>
