<?xml version="1.0" encoding="utf-8"?>
<!-- Generator: Adobe Illustrator 25.4.1, SVG Export Plug-In . SVG Version: 6.00 Build 0)  -->
<svg version="1.1" id="Слой_1" xmlns="http://www.w3.org/2000/svg" xmlns:xlink="http://www.w3.org/1999/xlink" x="0px" y="0px"
	 viewBox="0 0 186.8 48" style="enable-background:new 0 0 186.8 48;" xml:space="preserve">
<style type="text/css">
	.st0{fill:#FFFFFF;}
</style>
<path id="path169_1_" class="st0" d="M106.5,35.2c-1.6,1.6-3.9,1.9-7.3,1.9h-4.9c-6.8,0-9.1-1.6-9.1-7.1v-3h6.5c0,0.3,0,0.6,0,0.8
	c0,2.7,0.7,3.7,3.4,3.7h3.1c2.5,0,2.9-1,2.9-3.2V13.9h7v16.5C108.4,32.3,107.7,34,106.5,35.2z"/>
<path id="path171_1_" class="st0" d="M133.9,21.8c0-1.9-1.2-2.6-3.7-2.6h-5.7c-4.6,0-5.7,0.6-5.7,4.5v3.2c0,3.6,1.6,4.3,5.7,4.3h4.1
	c3.9,0,5.5-0.4,5.5-3.1c0-0.1,0-0.2,0-0.3h7.1c0,0.6,0.1,1.2,0.1,1.7c0,2.8-0.7,4.8-2.3,6c-1.8,1.3-4.5,1.6-8.5,1.6h-7.8
	c-3.6,0-6.2-0.2-8.2-1.7c-2-1.6-2.6-3.6-2.6-6.7v-6.3c0-6.9,3-8.9,10.8-8.9h7.8c4,0,6.7,0.2,8.4,1.5c1.5,1.2,2.1,3,2.1,5.8
	c0,0.4,0,0.9,0,1.3L133.9,21.8C133.9,22.1,133.9,21.9,133.9,21.8z"/>
<path id="path173_1_" class="st0" d="M144.4,36.8V13.9h20.7c5.2,0,7.6,2.1,7.6,6.4c0,2.4-1.1,4-3.4,4.9c2.9,0.5,4.2,2.1,4.2,5.5
	c0,4.4-2.2,6.3-7.3,6.3h-21.8V36.8z M165.5,20.8c0-1.2-0.7-1.9-1.8-1.9h-12.3v3.8h12.3C164.9,22.8,165.5,22.1,165.5,20.8z
	 M166.3,29.4c0-1.3-0.8-2.1-2-2.1h-13v4.1h13C165.6,31.6,166.3,30.9,166.3,29.4z"/>
<g id="layer1_3_" transform="translate(-254.26343,-163.48068)">
	<g id="g2418_1_" transform="translate(256.02387,164.53694)">
		<path id="path2386_1_" class="st0" d="M25.9,34.3c1.1-0.9,1.3-2.1,1.3-3.2v-4.4H21v6c0,0.9-0.7,1.6-1.5,1.6
			c-0.9,0-1.5-0.7-1.5-1.6v-17c0-0.9,0.6-1.5,1.5-1.5s1.5,0.7,1.5,1.5v6h6.1v-6.2c0-3.4-2.3-6.3-7.7-6.3c-5.6,0-7.8,2.9-7.8,6.3
			v17.7c0,3.4,2.7,6,6.2,6h1.9L25.9,34.3z"/>
		<polygon id="polygon2404_1_" class="st0" points="50.1,35 50.1,15.5 45.9,15.5 45.9,9.8 61.3,9.8 61.3,15.5 57,15.5 57,39.2 
			55.2,39.2 		"/>
		<polygon id="polygon2406_1_" class="st0" points="52.9,39.2 37.9,26.7 22.4,39.2 		"/>
		<path id="path2408_1_" class="st0" d="M36.3,23.3l1.7-8.5l1.6,8.5H36.3z M42.2,9.8h-8.6l-5,22.4l9.3-7.5l9.7,8.1L42.2,9.8z"/>
	</g>
</g>
</svg>
