<?xml version="1.0" encoding="utf-8"?>
<!-- Generator: Adobe Illustrator 25.2.3, SVG Export Plug-In . SVG Version: 6.00 Build 0)  -->
<svg version="1.1" id="Слой_1" xmlns="http://www.w3.org/2000/svg" xmlns:xlink="http://www.w3.org/1999/xlink" x="0px" y="0px"
	 viewBox="0 0 141.6 66" style="enable-background:new 0 0 141.6 66;" xml:space="preserve">
<style type="text/css">
	.st0{fill:#FFFFFF;}
</style>
<g>
	<path class="st0" d="M38.8,29.4h-6.5V25c0-1.3-0.1-2.1-0.2-2.4c-0.1-0.3-0.4-0.5-0.9-0.5s-0.9,0.2-1,0.6S30,23.9,30,25.2v11.6
		c0,1.2,0.1,2,0.2,2.4s0.5,0.6,1,0.6s0.8-0.2,1-0.6c0.1-0.4,0.2-1.2,0.2-2.6v-3.2h6.5v1c0,2.6-0.2,4.4-0.6,5.5
		c-0.4,1.1-1.2,2-2.4,2.9c-1.3,0.8-2.8,1.2-4.7,1.2c-1.9,0-3.5-0.3-4.7-1s-2.1-1.6-2.5-2.9c-0.4-1.2-0.6-3.1-0.6-5.5v-7.3
		c0-1.8,0.1-3.2,0.2-4.1s0.5-1.8,1.1-2.6c0.6-0.8,1.5-1.5,2.6-2s2.3-0.7,3.8-0.7c1.9,0,3.5,0.4,4.8,1.1s2.1,1.7,2.5,2.8
		c0.4,1.1,0.6,2.8,0.6,5.2L38.8,29.4L38.8,29.4z"/>
	<path class="st0" d="M50.4,23.2v11.1c0,1.3,0,2.1-0.1,2.6s-0.3,1-0.7,1.6c-0.4,0.5-0.9,0.9-1.6,1.2c-0.7,0.3-1.4,0.4-2.3,0.4
		c-1,0-1.9-0.2-2.6-0.5c-0.8-0.3-1.3-0.8-1.7-1.3s-0.6-1.1-0.7-1.7c-0.1-0.6-0.1-1.8-0.1-3.7v-9.8h4.3v12.4c0,0.7,0,1.2,0.1,1.4
		s0.2,0.3,0.5,0.3s0.4-0.1,0.5-0.3s0.1-0.7,0.1-1.6V23.2H50.4L50.4,23.2z"/>
	<path class="st0" d="M62.3,23.2l-2.5,7.5l2.7,9.1H58l-1.7-7.1v7.1H52V23.2h4.3v6.4l1.9-6.4H62.3z"/>
	<path class="st0" d="M73.1,23.2v11.1c0,1.3,0,2.1-0.1,2.6s-0.3,1-0.7,1.6c-0.4,0.5-0.9,0.9-1.6,1.2s-1.4,0.4-2.3,0.4
		c-1,0-1.9-0.2-2.6-0.5c-0.8-0.3-1.3-0.8-1.7-1.3c-0.4-0.5-0.6-1.1-0.7-1.7c-0.1-0.6-0.1-1.8-0.1-3.7v-9.8h4.3v12.4
		c0,0.7,0,1.2,0.1,1.4s0.2,0.3,0.5,0.3s0.4-0.1,0.5-0.3s0.1-0.7,0.1-1.6V23.2H73.1L73.1,23.2z"/>
	<path class="st0" d="M74.8,23.2h3.1c2,0,3.4,0.1,4.1,0.2c0.7,0.2,1.3,0.6,1.8,1.2s0.7,1.7,0.7,3.1c0,1.3-0.2,2.2-0.5,2.6
		s-1,0.7-1.9,0.8c0.9,0.2,1.4,0.5,1.7,0.8c0.3,0.4,0.5,0.7,0.5,1c0.1,0.3,0.1,1.1,0.1,2.4v4.4h-4v-5.5c0-0.9-0.1-1.4-0.2-1.6
		c-0.1-0.2-0.5-0.3-1.1-0.3v7.5h-4.3L74.8,23.2L74.8,23.2z M79.1,26v3.7c0.5,0,0.8-0.1,1-0.2s0.3-0.6,0.3-1.3v-0.9
		c0-0.5-0.1-0.9-0.3-1C80,26.1,79.6,26,79.1,26z"/>
	<path class="st0" d="M96,32.9c0,1.7,0,2.8-0.1,3.5s-0.3,1.3-0.7,1.9c-0.4,0.6-1,1-1.7,1.3S92,40.1,91,40.1c-0.9,0-1.7-0.1-2.4-0.4
		c-0.7-0.3-1.3-0.7-1.7-1.3c-0.4-0.6-0.7-1.2-0.8-1.9S86,34.6,86,32.9V30c0-1.7,0-2.8,0.1-3.5s0.3-1.3,0.7-1.9c0.4-0.6,1-1,1.7-1.3
		s1.5-0.5,2.5-0.5c0.9,0,1.7,0.1,2.4,0.4c0.7,0.3,1.3,0.7,1.7,1.3c0.4,0.6,0.7,1.2,0.8,1.9C96,27.1,96,28.3,96,30L96,32.9L96,32.9z
		 M91.7,27.4c0-0.8,0-1.3-0.1-1.5s-0.3-0.3-0.5-0.3s-0.4,0.1-0.5,0.3c-0.1,0.2-0.2,0.7-0.2,1.5v7.7c0,1,0,1.6,0.1,1.8
		s0.3,0.3,0.5,0.3c0.3,0,0.5-0.1,0.6-0.4c0.1-0.3,0.1-0.9,0.1-1.9V27.4z"/>
	<path class="st0" d="M107.8,23.2l-2.2,16.5H99l-2.5-16.5h4.6c0.5,4.6,0.9,8.4,1.1,11.6c0.2-3.2,0.5-6,0.7-8.5l0.3-3.1
		C103.2,23.2,107.8,23.2,107.8,23.2z"/>
	<path class="st0" d="M115.8,23.2l2.5,16.5h-4.4l-0.2-3H112l-0.3,3h-4.5l2.2-16.5H115.8z M113.5,33.8c-0.2-1.9-0.4-4.2-0.7-7
		c-0.4,3.2-0.7,5.5-0.8,7H113.5z"/>
	<rect x="28" y="44.9" class="st0" width="6.8" height="3.1"/>
</g>
</svg>
