<?xml version="1.0" encoding="utf-8"?>
<!-- Generator: Adobe Illustrator 25.2.3, SVG Export Plug-In . SVG Version: 6.00 Build 0)  -->
<svg version="1.1" id="Слой_1" xmlns="http://www.w3.org/2000/svg" xmlns:xlink="http://www.w3.org/1999/xlink" x="0px" y="0px"
	 viewBox="0 0 184.6 66" style="enable-background:new 0 0 184.6 66;" xml:space="preserve">
<style type="text/css">
	.st0{fill:#FFFFFF;}
</style>
<g>
	<polygon class="st0" points="159.6,29 159.6,24 137.6,24 137.6,48 159.6,48 159.6,43.1 143.1,43.1 143.1,38.5 155.9,38.5 
		155.9,33.6 143.1,33.6 143.1,29 	"/>
	<path class="st0" d="M128,38.9c4.2-1.1,5.8-4.3,5.8-7.2c0-4.8-3.2-7.7-8.6-7.7h-15.6v24h5.5v-8.8h6.5l6.7,8.8h6.7L128,38.9z
		 M125.5,34.3h-10.1v-5.4h10.1c2,0,3.1,1,3.1,2.7C128.6,33.9,126.6,34.3,125.5,34.3z"/>
	<polygon class="st0" points="83.9,48 105.9,48 105.9,43.1 89.4,43.1 89.4,38.5 102.2,38.5 102.2,33.6 89.4,33.6 89.4,29 105.9,29 
		105.9,24 83.9,24 	"/>
	<path class="st0" d="M38.4,18H25v30h13.4c12.5,0,16.9-8,16.9-14.8C55.3,23.7,49,18,38.4,18z M38.3,43.1h-7.8v-20h7.8
		c7.3,0,11.4,3.6,11.4,9.9C49.7,41.8,42.5,43.1,38.3,43.1z"/>
	<polygon class="st0" points="58.2,48 80.2,48 80.2,43.1 63.7,43.1 63.7,38.5 76.5,38.5 76.5,33.6 63.7,33.6 63.7,29 80.2,29 
		80.2,24 58.2,24 	"/>
</g>
</svg>
