<?xml version="1.0" encoding="utf-8"?>
<!-- Generator: Adobe Illustrator 25.2.3, SVG Export Plug-In . SVG Version: 6.00 Build 0)  -->
<svg version="1.1" id="Слой_1" xmlns="http://www.w3.org/2000/svg" xmlns:xlink="http://www.w3.org/1999/xlink" x="0px" y="0px"
	 viewBox="0 0 199.5 66" style="enable-background:new 0 0 199.5 66;" xml:space="preserve">
<style type="text/css">
	.st0{fill:#FFFFFF;}
</style>
<path class="st0" d="M30.4,23.1H43c10,0,8.9,4.8,7,10s-4.1,10-14.1,10H23.3L30.4,23.1z M33.3,39.3H35c3.4,0,4.1-0.8,6-6.2
	s1.8-6.3-1.6-6.3h-1.7L33.3,39.3z"/>
<path class="st0" d="M66.8,22.7c8.9,0,10.9,2.9,8.2,10.4c-2.7,7.5-6.7,10.4-15.6,10.4s-10.9-2.9-8.2-10.4S58,22.7,66.8,22.7
	 M60.7,39.9c2.7,0,3.5-1.5,5.4-6.9s2.2-6.9-0.5-6.9c-2.7,0-3.5,1.5-5.4,6.9C58.3,38.5,58.1,39.9,60.7,39.9"/>
<path class="st0" d="M91.9,22.7c8.9,0,10.9,2.9,8.2,10.4c-2.7,7.5-6.7,10.4-15.6,10.4s-10.9-2.9-8.2-10.4
	C79,25.6,83.1,22.7,91.9,22.7 M85.8,39.9c2.7,0,3.5-1.5,5.4-6.9s2.2-6.9-0.5-6.9s-3.5,1.5-5.4,6.9C83.4,38.5,83.2,39.9,85.8,39.9"/>
<path class="st0" d="M116.3,28.8l0.2-0.5c0.4-1.2,0-2.2-1.7-2.2c-1.9,0-3,0.9-3.3,1.8c-1.4,3.9,13.5,2,10.9,9.3
	c-1.5,4.3-6.3,6.2-14,6.2c-7.2,0-10.7-1.5-9.2-5.6l0.2-0.7h8.4l-0.2,0.5c-0.6,1.7,0.3,2.3,2,2.3c1.8,0,3.1-0.8,3.5-1.9
	c1.4-4-12.9-2-10.4-9.1c1.4-4,5.8-6.2,13.1-6.2c7.6,0,10.1,1.9,8.6,6.2L116.3,28.8L116.3,28.8z"/>
<path class="st0" d="M135,23.1h10.9l1,20h-9.2l0.3-3.5h-6.9l-2.1,3.5h-9.2L135,23.1z M139,27.2L139,27.2l-5.5,8.5h4.9L139,27.2z"/>
<polygon class="st0" points="155.1,23.1 164.8,23.1 166,35.4 166.1,35.4 170.5,23.1 178.6,23.1 171.5,43.1 162,43.1 160.6,30.7 
	160.5,30.7 156.1,43.1 148,43.1 "/>
</svg>
