<?xml version="1.0" encoding="utf-8"?>
<!-- Generator: Adobe Illustrator 25.2.3, SVG Export Plug-In . SVG Version: 6.00 Build 0)  -->
<svg version="1.1" id="Слой_1" xmlns="http://www.w3.org/2000/svg" xmlns:xlink="http://www.w3.org/1999/xlink" x="0px" y="0px"
	 viewBox="0 0 199.5 66" style="enable-background:new 0 0 199.5 66;" xml:space="preserve">
<style type="text/css">
	.st0{fill:#FFFFFF;}
</style>
<g id="g10793" transform="translate(542.745,757.7267)">
	<path id="path10795" class="st0" d="M-393.2-737v9.8h13.2c0,0,0-9.8,0-9.8c0,0,6.5,0,6.5,0c0,0,0,24.6,0,24.6h-6.5v-10.8
		c0,0-13.2,0-13.2,0c0,0,0,10.8,0,10.8h-6.5c0,0,0-24.6,0-24.6H-393.2z"/>
</g>
<g id="g10797" transform="translate(487.915,757.7267)">
	<path id="path10799" class="st0" d="M-400.2-737v4.2h-10v20.4h-6.5v-20.4h-10c0,0,0-4.2,0-4.2C-426.7-737-400.2-737-400.2-737"/>
</g>
<g id="g10801" transform="translate(496.635,754.0187)">
	<path id="path10803" class="st0" d="M-399.1-729.1l-4.5,11.2h9.1L-399.1-729.1z M-383.6-708.6h-7.3c0,0-2.1-5.3-2.1-5.3h-12.2
		c0,0-2.1,5.3-2.1,5.3c0,0-7.3,0-7.3,0l11.5-24.6c0,0,8,0,8,0L-383.6-708.6z"/>
</g>
<path id="path10805" class="st0" d="M174.4,45.4h6.5V20.8h-6.5V45.4z"/>
<g id="g10809">
	<g id="g10815" transform="translate(434.5951,757.7267)">
		<path id="path10817" class="st0" d="M-407.1-737c0,0,0,9.9,0,9.8h13.2c0,0,0-9.8,0-9.8c0,0,6.5,0,6.5,0c0,0,0,24.6,0,24.6h-6.5
			v-10.8c0,0-13.2,0-13.2,0c0,0,0,10.8,0,10.8h-6.5c0,0,0-24.6,0-24.6H-407.1z"/>
	</g>
</g>
<path id="path10819" class="st0" d="M52.4,45.4h6.5V20.8h-6.5V45.4z"/>
<path id="path10831" class="st0" d="M112.8,38.6c-0.6-1.7-0.9-3.4-0.9-5.3c0-2.6,0.5-5.1,1.7-7.2c1.3-2.1,3.2-3.8,5.6-4.7
	c2.2-0.8,4.7-1.3,7.2-1.3c2.9,0,5.7,0.6,8.2,1.7c2.3,1,4.1,3.1,4.6,5.7c0.1,0.5,0.2,1,0.2,1.6h-6.8c0-0.7-0.1-1.3-0.3-1.9
	c-0.5-1.4-1.7-2.4-3.1-2.8c-0.9-0.3-1.9-0.4-2.9-0.4c-1.1,0-2.2,0.2-3.2,0.6c-1.7,0.6-3,1.9-3.6,3.6c-0.6,1.6-0.9,3.4-0.9,5.2
	c0,1.5,0.2,3,0.6,4.3c0.5,1.8,1.9,3.2,3.6,3.9c1.1,0.4,2.3,0.6,3.5,0.6c1,0,2.1-0.2,3-0.5c1.3-0.4,2.3-1.4,2.9-2.6
	c0.3-0.8,0.5-1.7,0.5-2.6h6.9c0,0.8-0.2,1.6-0.3,2.3c-0.6,2.4-2.3,4.5-4.6,5.4c-2.6,1.1-5.4,1.7-8.4,1.7c-2.3,0-4.5-0.4-6.6-1
	C116.6,44,113.9,41.7,112.8,38.6"/>
</svg>
