<?xml version="1.0" encoding="utf-8"?>
<!-- Generator: Adobe Illustrator 25.2.3, SVG Export Plug-In . SVG Version: 6.00 Build 0)  -->
<svg version="1.1" id="Слой_1" xmlns="http://www.w3.org/2000/svg" xmlns:xlink="http://www.w3.org/1999/xlink" x="0px" y="0px"
	 viewBox="0 0 199.5 66" style="enable-background:new 0 0 199.5 66;" xml:space="preserve">
<style type="text/css">
	.st0{fill:#FFFFFF;}
	.st1{fill-rule:evenodd;clip-rule:evenodd;fill:#FFFFFF;}
</style>
<path class="st0" d="M160.5,20.3c-4.2,0-5.7,2-5.7,5.7v20.6h5.7V39h13v7.6h5.7V20.3H160.5z M173.5,33.9h-13v-6
	c0-2.2,0.5-2.6,2.3-2.7h10.7V33.9z"/>
<path class="st0" d="M143.3,20.3h-18v26.3h18c3.2,0,5.7-1.9,5.7-6.4V26C149,23.4,148.2,20.3,143.3,20.3z M143.3,39
	c0,1.1-0.2,2.4-2.4,2.5l-9.8,0V25.1h9.8c1.5,0,2.4,1,2.4,2.4V39z"/>
<polygon class="st1" points="8.9,20.3 14.6,20.3 14.6,30.7 27.4,30.7 27.4,20.3 33.1,20.3 33.1,46.6 27.4,46.6 27.4,35.9 14.6,35.9 
	14.6,46.6 8.9,46.6 8.9,20.3 "/>
<polygon class="st1" points="42.9,20.3 50,31.1 57.1,20.3 64,20.3 52.9,37.1 52.9,46.6 47.2,46.6 47.2,37.1 35.9,20.3 "/>
<path class="st1" d="M96.1,20.3h18.4c2.6,0,5.2,0.4,5.1,5.7v20.6h-5.7V27.9c0-2.3-0.3-2.7-2-2.7h-10v21.5h-5.7L96.1,20.3z"/>
<rect x="184.9" y="20.3" class="st1" width="5.7" height="26.3"/>
<path class="st1" d="M66.9,46.6h18.4c3.7,0,5.2-1.1,5.1-6.3V20.3h-5.7v18.8c0,2.2-0.3,2.5-2,2.5h-10l0-21.3h-5.7V46.6z"/>
</svg>
