<?xml version="1.0" encoding="utf-8"?>
<!-- Generator: Adobe Illustrator 25.2.3, SVG Export Plug-In . SVG Version: 6.00 Build 0)  -->
<svg version="1.1" id="Слой_1" xmlns="http://www.w3.org/2000/svg" xmlns:xlink="http://www.w3.org/1999/xlink" x="0px" y="0px"
	 viewBox="0 0 199.5 66" style="enable-background:new 0 0 199.5 66;" xml:space="preserve">
<style type="text/css">
	.st0{fill:#FFFFFF;}
</style>
<path class="st0" d="M36.7,17h7c0,3.9,0,7.9,0,11.8c2.4-3.9,4.8-7.9,7.1-11.8h7.2c0,10.7,0,21.4,0,32.1h-6.9c0-6.5,0-13,0-19.6
	c-2.6,4.3-5.2,8.6-7.8,12.9c-0.1,0.3-0.5,0.2-0.7,0.2c-1.9,0-3.8,0-5.6,0c0-4.3,0-8.7,0-13c-2.6,4.3-5.2,8.6-7.8,12.9
	c-0.1,0.2-0.4,0.1-0.6,0.2c-2.4,0-4.9,0-7.3,0v0c0.6-0.9,1.1-1.8,1.6-2.7C27.5,32.3,32.1,24.6,36.7,17L36.7,17z M70.5,20.5
	c2.1-0.1,4.2,0.1,6.1,1c2.7,1.4,4.9,3.8,6,6.6c0.1,0.2-0.2,0.3-0.4,0.4c-4.3,2.5-8.6,5-12.9,7.5c0,0,0,0.1-0.1,0.2
	c1.4,0.8,3.2,1,4.8,0.7c2-0.4,3.8-1.6,5.2-3.1c0.5-0.5,0.9-1.1,1.4-1.6c0,2.3,0,4.6,0,6.9c-1.1,2-3.2,3.2-5.4,3.7
	c-2.5,0.6-5.3,0.6-7.8-0.2c-1.7-0.6-3.3-1.5-4.6-2.8c-2.2-2.1-3.3-5.1-3.3-8c0-2.3,0.8-4.6,2.2-6.5C63.9,22.4,67.2,20.7,70.5,20.5
	L70.5,20.5z M68,27.7c-1.2,1-1.6,2.6-1.5,4.1c2.6-1.4,5.2-2.9,7.7-4.4c0.3-0.1,0-0.4-0.1-0.5C72.2,25.6,69.5,26.2,68,27.7L68,27.7z
	 M84.4,26.7c2.3-4.4,7.5-6.8,12.3-6.2c1.3,0.2,2.6,0.6,3.9,1c0,2.6,0,5.1,0,7.7c-0.3-0.3-0.5-0.7-0.8-1c-2-2.2-5.8-2.5-8.1-0.6
	c-2.2,1.8-2.5,5.5-0.7,7.7c1,1.2,2.6,1.8,4.2,1.9c1.7,0.1,3.4-0.6,4.6-1.8c0.3-0.3,0.5-0.6,0.8-0.9c0,2.5,0,5.1,0,7.6
	c-1.4,0.4-2.8,0.8-4.2,1c-3,0.3-6.2-0.6-8.7-2.4c-1.9-1.3-3.4-3.2-4.1-5.4C82.8,32.5,83,29.3,84.4,26.7L84.4,26.7z M173.4,20.6
	c2.5-0.4,5,0.1,7.3,1v7.7c-0.7-1-1.6-1.9-2.7-2.4c-1.5-0.6-3.2-0.7-4.7-0.2c-1.5,0.5-2.7,1.8-3.1,3.4c-0.4,1.3-0.3,2.8,0.2,4.1
	c0.5,1.2,1.5,2.1,2.7,2.5c1.7,0.7,3.8,0.6,5.4-0.3c0.9-0.5,1.6-1.2,2.3-2v7.6c-0.8,0.3-1.7,0.5-2.5,0.7C173.4,44,167.9,42,165,38
	c-2.8-4.1-2.3-10,1.1-13.6C168,22.3,170.6,21,173.4,20.6L173.4,20.6z M126.8,21c2.2,0,4.4,0,6.6,0c0,5.3,0,10.6,0,15.8
	c2.1,0,4.2,0,6.3,0c0,1.9,0,3.8,0,5.8c-4.3,0-8.6,0-12.9,0C126.8,35.4,126.8,28.2,126.8,21L126.8,21z M110.5,21c2.2,0,4.5,0,6.7,0
	c2.8,7.2,5.7,14.4,8.5,21.6c-2.3,0-4.5,0-6.8,0c-0.5-1.2-0.9-2.4-1.4-3.6c-2.5,0-4.9,0-7.4,0c-0.5,1.2-1,2.4-1.5,3.6
	c-0.8,0.1-1.7,0-2.6,0.1c-1.4,0-2.8,0-4.2,0C104.7,35.4,107.6,28.2,110.5,21L110.5,21z M111.9,34.1c1.3,0,2.5,0,3.8,0
	c-0.5-1.8-1.2-3.6-1.8-5.4C113.1,30.5,112.5,32.3,111.9,34.1L111.9,34.1z M140.8,42.6c2.9-7.2,5.8-14.4,8.7-21.6c2.2,0,4.5,0,6.7,0
	c2.8,7.2,5.7,14.4,8.5,21.6c-2.3,0-4.5,0-6.8,0c-0.5-1.2-0.9-2.4-1.4-3.6c-2.5,0-5,0-7.4,0c-0.5,1.2-1,2.4-1.5,3.6
	c-0.2,0-0.5,0.1-0.7,0.1C144.9,42.6,142.8,42.6,140.8,42.6L140.8,42.6z M152.5,29.6c-0.5,1.5-1.1,3-1.6,4.5c1.2,0,2.5,0,3.8,0
	c-0.5-1.8-1.2-3.6-1.8-5.3C152.7,29,152.6,29.3,152.5,29.6L152.5,29.6z"/>
</svg>
