<?xml version="1.0" encoding="utf-8"?>
<!-- Generator: Adobe Illustrator 25.4.1, SVG Export Plug-In . SVG Version: 6.00 Build 0)  -->
<svg version="1.1" id="Слой_1" xmlns="http://www.w3.org/2000/svg" xmlns:xlink="http://www.w3.org/1999/xlink" x="0px" y="0px"
	 viewBox="0 0 640 640" style="enable-background:new 0 0 640 640;" xml:space="preserve">
<style type="text/css">
	.st0{fill:#131315;}
	.st1{fill:#C4000F;}
</style>
<path class="st0" d="M280.4,389.1c-0.3,0.1-0.4,0.2-0.6,0.4c-0.1,0.1-0.2,0.3-0.3,0.4c0,0-0.1,0.1-0.1,0.1l-10.3,18.1L258.8,390
	c0,0,0-0.1-0.1-0.1c-0.1-0.1-0.2-0.3-0.3-0.4c-0.1-0.2-0.3-0.3-0.6-0.4c-0.3-0.1-0.6-0.1-1.1-0.2c-0.4,0-1-0.1-1.8-0.1
	c-0.9,0-1.6,0-2.1,0.1c-0.5,0-0.8,0.2-1,0.4c-0.2,0.1-0.3,0.3-0.3,0.6c0,0.1,0,0.2,0.1,0.3c0.1,0.3,0.3,0.7,0.6,1.3l12.6,21.4
	l-13.2,22.3c-0.3,0.5-0.5,1-0.6,1.3c0,0.3,0,0.5,0.3,0.8c0.1,0.2,0.4,0.3,0.9,0.4c0.5,0,1.1,0.1,2,0.1c0.7,0,1.3,0,1.8,0
	c0.5,0,0.8-0.1,1.1-0.2c0.3-0.1,0.5-0.3,0.6-0.4c0.1-0.2,0.3-0.4,0.4-0.6l10.9-19.2l10.7,19.2c0.1,0.2,0.3,0.4,0.4,0.6
	c0.1,0.1,0.3,0.2,0.6,0.3c0.2,0.1,0.5,0.2,1,0.3c0.5,0,1.1,0,1.8,0c0.9,0,1.6,0,2.1-0.1c0.5-0.1,0.9-0.2,1.1-0.4
	c0.3-0.2,0.4-0.5,0.3-0.8c-0.1-0.3-0.3-0.8-0.6-1.3l-13-22.4l12.5-21.3c0.3-0.5,0.5-1,0.5-1.3c0-0.1,0-0.2,0.1-0.3
	c0-0.3-0.1-0.4-0.3-0.6c-0.2-0.2-0.5-0.3-1-0.3c-0.5-0.1-1.1-0.1-1.9-0.1c-0.7,0-1.3,0-1.8,0.1C281,389,280.7,389.1,280.4,389.1
	 M353.3,389c-0.5-0.1-1.1-0.1-1.8-0.1c-0.7,0-1.3,0-1.7,0.1c-0.5,0-0.8,0.1-1,0.2c-0.3,0.1-0.4,0.3-0.5,0.5c0,0.1,0,0.2-0.1,0.3
	c0,0.1-0.1,0.2-0.2,0.4l-10.6,40.4h-0.1l-11.1-40.4c0-0.2-0.1-0.3-0.1-0.4s-0.1-0.2-0.1-0.3c-0.2-0.2-0.4-0.4-0.6-0.5
	c-0.3-0.1-0.6-0.1-1-0.2c-0.4,0-1-0.1-1.7-0.1s-1.3,0-1.8,0.1c-0.5,0-0.8,0.1-1.1,0.2c-0.3,0.1-0.4,0.3-0.5,0.5
	c0,0.1-0.1,0.2-0.2,0.3c0,0.1-0.1,0.2-0.1,0.4l-10.3,40.4l-10.9-40.5c0-0.1,0-0.2,0-0.3c0-0.1-0.1-0.2-0.1-0.3
	c-0.1-0.2-0.3-0.4-0.5-0.4c-0.3-0.1-0.6-0.1-1-0.2c-0.5,0-1.1-0.1-1.9-0.1c-0.8,0-1.4,0-1.9,0.1c-0.5,0-0.8,0.1-1,0.3
	c-0.2,0.2-0.3,0.4-0.3,0.6c0,0,0,0.1,0,0.1c0,0.3,0.1,0.8,0.2,1.3l12.7,44.6c0.1,0.4,0.2,0.7,0.4,0.9c0.2,0.2,0.4,0.4,0.8,0.4
	c0.4,0.1,0.8,0.2,1.4,0.3c0.5,0,1.2,0.1,2,0.1c0.8,0,1.5,0,2-0.1c0.5,0,0.9-0.1,1.2-0.3c0.3-0.1,0.6-0.2,0.8-0.4s0.3-0.5,0.4-0.9
	l9.3-36.5h0.1l10.1,36.5c0.1,0.4,0.2,0.7,0.4,0.9c0.1,0.2,0.4,0.4,0.8,0.4c0.3,0.1,0.8,0.2,1.3,0.3c0.5,0,1.2,0.1,2,0.1
	c0.7,0,1.3,0,1.9-0.1c0.5,0,0.9-0.1,1.3-0.3c0.3-0.1,0.6-0.2,0.8-0.4c0.2-0.2,0.4-0.5,0.4-0.9l12.8-44.6c0.1-0.5,0.2-1,0.3-1.3
	c0-0.1,0-0.1,0-0.2c0-0.3-0.1-0.4-0.3-0.6C354,389.2,353.7,389.1,353.3,389 M379.7,390.3c0-0.2-0.1-0.3-0.1-0.4
	c-0.1-0.1-0.2-0.2-0.3-0.3c-0.2-0.2-0.5-0.4-0.8-0.4c-0.3-0.1-0.8-0.1-1.3-0.2c-0.5,0-1.2-0.1-2-0.1c-0.7,0-1.3,0-1.8,0.1
	c-0.5,0-0.9,0.1-1.2,0.2c-0.3,0.1-0.5,0.2-0.7,0.4c-0.1,0.1-0.2,0.2-0.3,0.3c0,0.1-0.1,0.2-0.2,0.3L355,435.1
	c-0.2,0.5-0.3,1-0.3,1.3c0,0.3,0,0.6,0.3,0.8c0.2,0.2,0.5,0.3,0.9,0.4c0.5,0,1.1,0.1,1.8,0.1c0.7,0,1.2,0,1.6-0.1
	c0.5,0,0.8-0.1,1-0.3c0.3-0.1,0.4-0.2,0.6-0.4c0.1-0.2,0.2-0.4,0.3-0.6l3.9-11.5h20.1l4.2,11.7c0.1,0.2,0.2,0.4,0.3,0.6
	c0.1,0.1,0.3,0.3,0.6,0.4c0.2,0.1,0.5,0.1,1,0.2c0.4,0,1,0,1.8,0c0.8,0,1.4,0,1.8-0.1c0.5,0,0.8-0.2,1-0.4c0.2-0.1,0.3-0.4,0.3-0.7
	c0-0.3-0.1-0.8-0.3-1.4L379.7,390.3 M375.1,395.5L375.1,395.5l8.4,24.1h-16.8L375.1,395.5 M181.3,389.9c0,0.1-0.1,0.2-0.1,0.3
	L165,435.1c-0.2,0.5-0.3,1-0.3,1.3c0,0.3,0.1,0.6,0.3,0.8c0.2,0.2,0.5,0.3,0.9,0.4c0.5,0,1.1,0.1,1.8,0.1c0.7,0,1.3,0,1.7-0.1
	c0.4,0,0.8-0.1,1-0.3c0.3-0.1,0.4-0.2,0.5-0.4c0.1-0.2,0.2-0.4,0.3-0.6l4-11.5h20l4.2,11.7c0.1,0.2,0.3,0.4,0.4,0.6
	c0.1,0.1,0.3,0.3,0.5,0.4c0.2,0.1,0.6,0.1,1.1,0.2c0.4,0,1,0,1.8,0c0.8,0,1.4,0,1.9-0.1c0.5,0,0.8-0.2,0.9-0.4
	c0.2-0.1,0.3-0.4,0.3-0.7s-0.1-0.8-0.3-1.4l-16.2-44.8c0-0.2-0.1-0.3-0.2-0.4c-0.1-0.1-0.2-0.2-0.3-0.3c-0.2-0.2-0.4-0.4-0.8-0.4
	c-0.3-0.1-0.7-0.1-1.2-0.2c-0.5,0-1.2-0.1-2-0.1c-0.8,0-1.4,0-1.8,0.1c-0.5,0-0.9,0.1-1.2,0.2c-0.3,0.1-0.6,0.2-0.7,0.4
	C181.5,389.7,181.4,389.8,181.3,389.9 M185.1,395.5L185.1,395.5l8.5,24.1h-16.8L185.1,395.5 M214.6,389.9c-0.4,0.4-0.6,1-0.6,1.8
	v44.7c0,0.2,0,0.4,0.1,0.6c0.1,0.1,0.3,0.2,0.5,0.3c0.3,0.1,0.6,0.2,1,0.3c0.4,0,0.9,0.1,1.5,0.1c0.7,0,1.2,0,1.6-0.1
	c0.4-0.1,0.7-0.2,0.9-0.3c0.3-0.1,0.4-0.2,0.6-0.3c0.1-0.2,0.1-0.4,0.1-0.6v-20.6h4.3c1.5,0,2.7,0.2,3.8,0.6
	c0.5,0.2,0.9,0.5,1.3,0.8c0.5,0.3,0.9,0.7,1.3,1.1c0.8,0.8,1.5,1.7,2,2.8c0.6,1.1,1.1,2.2,1.6,3.6l4.5,11.3c0.1,0.3,0.2,0.5,0.3,0.8
	c0.2,0.2,0.4,0.4,0.6,0.4c0.3,0.1,0.6,0.2,1,0.3c0.4,0,0.9,0.1,1.6,0.1c0.8,0,1.3,0,1.8-0.1c0.5,0,0.8-0.1,1.1-0.3
	c0.3-0.1,0.4-0.2,0.5-0.3c0-0.2,0.1-0.4,0.1-0.6c0-0.2,0-0.5-0.1-0.8c-0.1-0.3-0.3-1-0.6-1.9l-4.3-10.7c-0.5-1.2-1-2.3-1.5-3.3
	c-0.5-1-1-1.8-1.6-2.6c-0.5-0.8-1.2-1.4-1.8-1.9c-0.6-0.5-1.3-1-2.1-1.3c1.4-0.5,2.7-1.1,3.8-1.8c1.1-0.7,2.1-1.6,3-2.5
	c0.8-1,1.4-2.2,1.9-3.5c0.4-1.3,0.6-2.7,0.6-4.3c0-1.6-0.2-3.2-0.7-4.5c-0.5-1.4-1.3-2.6-2.3-3.7c-0.9-1.1-2.1-2-3.5-2.7
	c-0.9-0.4-1.8-0.7-2.8-1c-0.7-0.2-1.4-0.4-2.2-0.5c-0.6-0.1-1.3-0.1-2-0.1c0,0-0.1-0.1-0.1-0.1c-0.8,0-1.8-0.1-3.1-0.1h-10.3
	c-0.5,0-1.1,0.2-1.6,0.6C214.7,389.7,214.7,389.8,214.6,389.9 M220.4,410.7v-16.3h5.4c1.3,0,2.3,0,3.2,0.1c0.3,0,0.6,0.1,0.9,0.1
	c0.4,0.1,0.8,0.2,1.2,0.3c2,0.6,3.4,1.5,4.2,2.8c0.8,1.3,1.3,2.9,1.3,4.8c0,1.2-0.2,2.2-0.6,3.2c-0.4,1-1,1.9-1.8,2.6
	c-0.8,0.7-1.9,1.3-3.2,1.7c-0.4,0.1-0.8,0.2-1.2,0.3c-0.9,0.2-2,0.3-3.2,0.3H220.4 M430.4,393.6c-1-1.1-2.2-2-3.6-2.7
	c-0.8-0.4-1.8-0.7-2.8-1c-0.7-0.2-1.4-0.4-2.1-0.5c-0.7-0.1-1.4-0.1-2.2-0.2c-0.8,0-1.8-0.1-3-0.1h-10.3c-0.6,0-1.1,0.2-1.6,0.6
	c-0.1,0-0.1,0.1-0.2,0.2c-0.4,0.4-0.6,1-0.6,1.8v44.7c0,0.2,0,0.4,0.1,0.6c0.1,0.1,0.3,0.2,0.5,0.3c0.3,0.1,0.6,0.2,1,0.3
	c0.4,0,0.9,0.1,1.6,0.1s1.2,0,1.6-0.1c0.4-0.1,0.7-0.2,0.9-0.3c0.3-0.1,0.4-0.2,0.5-0.3c0.1-0.2,0.2-0.4,0.2-0.6v-20.6h4.3
	c1.5,0,2.7,0.2,3.8,0.6c1,0.5,1.9,1.1,2.7,1.9c0.8,0.8,1.4,1.7,2,2.8c0.5,1.1,1.1,2.2,1.6,3.6l4.5,11.3c0.1,0.3,0.2,0.5,0.4,0.8
	c0.1,0.2,0.3,0.4,0.6,0.4c0.2,0.1,0.5,0.2,1,0.3c0.4,0,0.9,0.1,1.6,0.1c0.7,0,1.3,0,1.8-0.1c0.5,0,0.8-0.1,1-0.3
	c0.3-0.1,0.5-0.2,0.5-0.3c0.1-0.2,0.1-0.4,0.1-0.6c0-0.2-0.1-0.5-0.2-0.8c-0.1-0.3-0.3-1-0.6-1.9l-4.3-10.7
	c-0.5-1.2-0.9-2.3-1.4-3.3c-0.5-1-1-1.8-1.6-2.6c-0.6-0.8-1.2-1.4-1.8-1.9c-0.6-0.5-1.4-1-2.2-1.3c1.4-0.5,2.7-1.1,3.8-1.8
	c1.2-0.7,2.2-1.6,3-2.5c0.8-1,1.4-2.2,1.9-3.5c0.5-1.3,0.7-2.7,0.7-4.3c0-1.6-0.3-3.2-0.8-4.5C432.2,395.9,431.4,394.7,430.4,393.6
	 M425.2,397.7c0.9,1.3,1.3,2.9,1.3,4.8c0,1.2-0.2,2.2-0.6,3.2c-0.4,1-1,1.9-1.8,2.6c-0.8,0.7-1.9,1.3-3.1,1.7
	c-1.3,0.4-2.7,0.6-4.4,0.6h-6.2v-16.3h5.4c1.3,0,2.3,0,3.1,0.1c0.8,0.1,1.4,0.2,2.1,0.4C423,395.5,424.4,396.4,425.2,397.7
	 M471.8,389.9c0,0,0-0.1-0.1-0.2c-0.1-0.2-0.2-0.4-0.4-0.4c-0.2-0.1-0.4-0.1-0.6-0.1h-22.9c-0.6,0-1.1,0.2-1.6,0.6
	c-0.1,0-0.1,0.1-0.2,0.2c-0.4,0.4-0.6,1-0.6,1.8v43.1c0,1,0.3,1.7,0.8,2.1c0.5,0.4,1.1,0.6,1.6,0.6h23.1c0.2,0,0.4-0.1,0.6-0.2
	c0.2-0.1,0.3-0.3,0.4-0.5c0.1-0.2,0.2-0.5,0.3-0.8c0-0.4,0.1-0.8,0.1-1.2c0-0.5,0-0.9-0.1-1.3c0-0.3-0.1-0.6-0.3-0.8
	c-0.1-0.2-0.3-0.4-0.4-0.5c-0.2-0.1-0.4-0.1-0.6-0.1h-19.2v-17.3h16.3c0.2,0,0.4,0,0.6-0.1c0.1-0.1,0.3-0.3,0.4-0.4
	c0.1-0.2,0.2-0.5,0.2-0.8c0-0.3,0.1-0.7,0.1-1.1c0-0.5,0-0.9-0.1-1.2c0-0.4-0.1-0.7-0.2-0.8c-0.1-0.2-0.3-0.4-0.4-0.5
	c-0.2-0.1-0.4-0.1-0.6-0.1h-16.3v-15.2h18.9c0.2,0,0.4-0.1,0.6-0.2c0.2-0.1,0.3-0.2,0.4-0.4c0.1-0.2,0.2-0.5,0.3-0.8
	c0-0.4,0.1-0.8,0.1-1.3c0-0.5,0-0.9-0.1-1.2C472,390.3,471.9,390.1,471.8,389.9z"/>
<path class="st0" d="M168.4,471.1h-2.8v-25h3.1v8.9c1.3-1.6,2.9-2.4,5-2.4c1.1,0,2.2,0.2,3.2,0.7c1,0.4,1.8,1.1,2.5,1.9
	c0.6,0.8,1.1,1.8,1.5,2.9c0.4,1.1,0.5,2.4,0.5,3.7c0,3.1-0.8,5.5-2.3,7.2c-1.5,1.7-3.4,2.5-5.5,2.5c-2.1,0-3.8-0.9-5-2.7V471.1z
	 M168.3,461.9c0,2.2,0.3,3.7,0.9,4.7c1,1.6,2.3,2.4,3.9,2.4c1.3,0,2.5-0.6,3.5-1.7c1-1.2,1.5-2.9,1.5-5.2c0-2.4-0.5-4.1-1.4-5.2
	c-0.9-1.1-2.1-1.7-3.4-1.7c-1.3,0-2.5,0.6-3.5,1.7C168.8,458,168.3,459.7,168.3,461.9z"/>
<path class="st0" d="M196.8,471.1v-2.7c-1.4,2-3.3,3.1-5.7,3.1c-1.1,0-2.1-0.2-3-0.6c-0.9-0.4-1.6-0.9-2.1-1.5
	c-0.4-0.6-0.8-1.4-0.9-2.3c-0.1-0.6-0.2-1.6-0.2-2.9V453h3.1v10c0,1.6,0.1,2.7,0.2,3.2c0.2,0.8,0.6,1.4,1.2,1.9
	c0.6,0.5,1.4,0.7,2.3,0.7s1.8-0.2,2.6-0.7c0.8-0.5,1.4-1.1,1.7-1.9c0.3-0.8,0.5-2,0.5-3.5V453h3.1v18.1H196.8z"/>
<path class="st0" d="M203.1,465.7l3-0.5c0.2,1.2,0.6,2.1,1.4,2.8c0.8,0.6,1.9,1,3.3,1c1.4,0,2.5-0.3,3.1-0.9s1-1.2,1-2
	c0-0.7-0.3-1.2-0.9-1.6c-0.4-0.3-1.5-0.6-3.1-1c-2.2-0.6-3.8-1.1-4.7-1.5c-0.9-0.4-1.5-1-2-1.7c-0.4-0.7-0.7-1.5-0.7-2.4
	c0-0.8,0.2-1.6,0.6-2.2c0.4-0.7,0.9-1.3,1.5-1.7c0.5-0.4,1.1-0.6,1.9-0.9c0.8-0.2,1.7-0.4,2.6-0.4c1.4,0,2.7,0.2,3.7,0.6
	c1.1,0.4,1.9,1,2.4,1.7c0.5,0.7,0.9,1.6,1.1,2.8l-3,0.4c-0.1-0.9-0.5-1.7-1.2-2.2c-0.7-0.5-1.6-0.8-2.8-0.8c-1.4,0-2.4,0.2-3,0.7
	c-0.6,0.5-0.9,1-0.9,1.6c0,0.4,0.1,0.8,0.4,1.1c0.2,0.3,0.6,0.6,1.2,0.8c0.3,0.1,1.2,0.4,2.7,0.8c2.2,0.6,3.7,1.1,4.5,1.4
	c0.9,0.4,1.5,0.9,2,1.6c0.5,0.7,0.7,1.6,0.7,2.6c0,1-0.3,2-0.9,2.9c-0.6,0.9-1.5,1.6-2.6,2.1c-1.1,0.5-2.4,0.7-3.8,0.7
	c-2.3,0-4.1-0.5-5.4-1.5S203.4,467.6,203.1,465.7z"/>
<path class="st0" d="M221.8,449.7v-3.5h3.1v3.5H221.8z M221.8,471.1V453h3.1v18.1H221.8z"/>
<path class="st0" d="M229.5,471.1V453h2.8v2.6c1.3-2,3.2-3,5.8-3c1.1,0,2.1,0.2,3,0.6c0.9,0.4,1.6,0.9,2.1,1.5
	c0.5,0.6,0.8,1.4,1,2.3c0.1,0.6,0.2,1.6,0.2,3v11.1h-3.1v-11c0-1.2-0.1-2.2-0.4-2.8c-0.2-0.6-0.7-1.1-1.3-1.5
	c-0.6-0.4-1.3-0.6-2.1-0.6c-1.3,0-2.4,0.4-3.4,1.2c-0.9,0.8-1.4,2.4-1.4,4.7v9.9H229.5z"/>
<path class="st0" d="M261.3,465.3l3.2,0.4c-0.5,1.8-1.4,3.3-2.8,4.3c-1.4,1-3.1,1.5-5.2,1.5c-2.6,0-4.7-0.8-6.3-2.4
	c-1.5-1.6-2.3-3.9-2.3-6.9c0-3,0.8-5.4,2.3-7.1c1.6-1.7,3.6-2.5,6.1-2.5c2.4,0,4.4,0.8,5.9,2.5s2.3,4,2.3,6.9c0,0.2,0,0.5,0,0.8H251
	c0.1,2,0.7,3.5,1.7,4.6c1,1.1,2.3,1.6,3.8,1.6c1.1,0,2.1-0.3,2.9-0.9C260.2,467.5,260.8,466.6,261.3,465.3z M251.2,460.3h10.1
	c-0.1-1.5-0.5-2.7-1.2-3.4c-1-1.2-2.2-1.8-3.8-1.8c-1.4,0-2.6,0.5-3.5,1.4C251.8,457.5,251.3,458.7,251.2,460.3z"/>
<path class="st0" d="M267,465.7l3-0.5c0.2,1.2,0.6,2.1,1.4,2.8c0.8,0.6,1.9,1,3.3,1c1.4,0,2.5-0.3,3.1-0.9s1-1.2,1-2
	c0-0.7-0.3-1.2-0.9-1.6c-0.4-0.3-1.5-0.6-3.1-1c-2.2-0.6-3.8-1.1-4.7-1.5c-0.9-0.4-1.5-1-2-1.7c-0.4-0.7-0.7-1.5-0.7-2.4
	c0-0.8,0.2-1.6,0.6-2.2c0.4-0.7,0.9-1.3,1.5-1.7c0.5-0.4,1.1-0.6,1.9-0.9c0.8-0.2,1.7-0.4,2.6-0.4c1.4,0,2.7,0.2,3.7,0.6
	c1.1,0.4,1.9,1,2.4,1.7c0.5,0.7,0.9,1.6,1.1,2.8l-3,0.4c-0.1-0.9-0.5-1.7-1.2-2.2c-0.7-0.5-1.6-0.8-2.8-0.8c-1.4,0-2.4,0.2-3,0.7
	c-0.6,0.5-0.9,1-0.9,1.6c0,0.4,0.1,0.8,0.4,1.1c0.2,0.3,0.6,0.6,1.2,0.8c0.3,0.1,1.2,0.4,2.7,0.8c2.2,0.6,3.7,1.1,4.5,1.4
	c0.9,0.4,1.5,0.9,2,1.6c0.5,0.7,0.7,1.6,0.7,2.6c0,1-0.3,2-0.9,2.9c-0.6,0.9-1.5,1.6-2.6,2.1c-1.1,0.5-2.4,0.7-3.8,0.7
	c-2.3,0-4.1-0.5-5.4-1.5C268.2,469.1,267.4,467.6,267,465.7z"/>
<path class="st0" d="M284.5,465.7l3-0.5c0.2,1.2,0.6,2.1,1.4,2.8c0.8,0.6,1.9,1,3.3,1c1.4,0,2.5-0.3,3.1-0.9s1-1.2,1-2
	c0-0.7-0.3-1.2-0.9-1.6c-0.4-0.3-1.5-0.6-3.1-1c-2.2-0.6-3.8-1.1-4.7-1.5c-0.9-0.4-1.5-1-2-1.7c-0.4-0.7-0.7-1.5-0.7-2.4
	c0-0.8,0.2-1.6,0.6-2.2c0.4-0.7,0.9-1.3,1.5-1.7c0.5-0.4,1.1-0.6,1.9-0.9c0.8-0.2,1.7-0.4,2.6-0.4c1.4,0,2.7,0.2,3.7,0.6
	c1.1,0.4,1.9,1,2.4,1.7c0.5,0.7,0.9,1.6,1.1,2.8l-3,0.4c-0.1-0.9-0.5-1.7-1.2-2.2c-0.7-0.5-1.6-0.8-2.8-0.8c-1.4,0-2.4,0.2-3,0.7
	c-0.6,0.5-0.9,1-0.9,1.6c0,0.4,0.1,0.8,0.4,1.1c0.2,0.3,0.6,0.6,1.2,0.8c0.3,0.1,1.2,0.4,2.7,0.8c2.2,0.6,3.7,1.1,4.5,1.4
	c0.9,0.4,1.5,0.9,2,1.6c0.5,0.7,0.7,1.6,0.7,2.6c0,1-0.3,2-0.9,2.9c-0.6,0.9-1.5,1.6-2.6,2.1c-1.1,0.5-2.4,0.7-3.8,0.7
	c-2.3,0-4.1-0.5-5.4-1.5C285.6,469.1,284.8,467.6,284.5,465.7z"/>
<path class="st0" d="M312.8,449.7v-3.5h3.1v3.5H312.8z M312.8,471.1V453h3.1v18.1H312.8z"/>
<path class="st0" d="M320.6,471.1V453h2.8v2.6c1.3-2,3.2-3,5.8-3c1.1,0,2.1,0.2,3,0.6c0.9,0.4,1.6,0.9,2.1,1.5
	c0.5,0.6,0.8,1.4,1,2.3c0.1,0.6,0.2,1.6,0.2,3v11.1h-3.1v-11c0-1.2-0.1-2.2-0.4-2.8c-0.2-0.6-0.7-1.1-1.3-1.5
	c-0.6-0.4-1.3-0.6-2.1-0.6c-1.3,0-2.4,0.4-3.4,1.2c-0.9,0.8-1.4,2.4-1.4,4.7v9.9H320.6z"/>
<path class="st0" d="M346.6,468.3l0.4,2.7c-0.9,0.2-1.6,0.3-2.3,0.3c-1.1,0-2-0.2-2.6-0.5c-0.6-0.4-1-0.8-1.3-1.4
	c-0.2-0.6-0.4-1.8-0.4-3.6v-10.4h-2.2V453h2.2v-4.5l3-1.8v6.3h3.1v2.4h-3.1V466c0,0.9,0.1,1.4,0.2,1.7c0.1,0.2,0.3,0.4,0.5,0.6
	c0.2,0.1,0.6,0.2,1,0.2C345.6,468.5,346.1,468.4,346.6,468.3z"/>
<path class="st0" d="M362,465.3l3.2,0.4c-0.5,1.8-1.4,3.3-2.8,4.3c-1.4,1-3.1,1.5-5.2,1.5c-2.6,0-4.7-0.8-6.3-2.4
	c-1.5-1.6-2.3-3.9-2.3-6.9c0-3,0.8-5.4,2.3-7.1c1.6-1.7,3.6-2.5,6.1-2.5c2.4,0,4.4,0.8,5.9,2.5s2.3,4,2.3,6.9c0,0.2,0,0.5,0,0.8
	h-13.5c0.1,2,0.7,3.5,1.7,4.6c1,1.1,2.3,1.6,3.8,1.6c1.1,0,2.1-0.3,2.9-0.9C360.9,467.5,361.5,466.6,362,465.3z M351.9,460.3H362
	c-0.1-1.5-0.5-2.7-1.2-3.4c-1-1.2-2.2-1.8-3.8-1.8c-1.4,0-2.6,0.5-3.5,1.4C352.6,457.5,352,458.7,351.9,460.3z"/>
<path class="st0" d="M368.4,472.6l3,0.4c0.1,0.9,0.5,1.6,1,2c0.8,0.6,1.8,0.9,3.1,0.9c1.4,0,2.5-0.3,3.3-0.9
	c0.8-0.6,1.3-1.4,1.6-2.4c0.2-0.6,0.2-1.9,0.2-3.9c-1.3,1.6-3,2.4-5,2.4c-2.5,0-4.4-0.9-5.8-2.7c-1.4-1.8-2-3.9-2-6.5
	c0-1.7,0.3-3.3,0.9-4.8s1.5-2.6,2.7-3.4c1.2-0.8,2.6-1.2,4.2-1.2c2.1,0,3.9,0.9,5.3,2.6V453h2.8v15.6c0,2.8-0.3,4.8-0.9,6
	c-0.6,1.2-1.5,2.1-2.7,2.8c-1.2,0.7-2.8,1-4.6,1c-2.2,0-3.9-0.5-5.2-1.5C369,476,368.4,474.5,368.4,472.6z M371,461.7
	c0,2.4,0.5,4.1,1.4,5.2c0.9,1.1,2.1,1.6,3.5,1.6c1.4,0,2.6-0.5,3.5-1.6c1-1.1,1.4-2.8,1.4-5.1c0-2.2-0.5-3.9-1.5-5
	c-1-1.1-2.2-1.7-3.5-1.7c-1.4,0-2.5,0.6-3.5,1.7C371.5,457.9,371,459.5,371,461.7z"/>
<path class="st0" d="M388.4,471.1V453h2.8v2.7c0.7-1.3,1.4-2.1,1.9-2.5c0.6-0.4,1.3-0.6,2-0.6c1,0,2.1,0.3,3.1,1l-1.1,2.8
	c-0.7-0.4-1.5-0.7-2.2-0.7c-0.7,0-1.3,0.2-1.8,0.6c-0.5,0.4-0.9,1-1.1,1.7c-0.3,1.1-0.5,2.3-0.5,3.6v9.5H388.4z"/>
<path class="st0" d="M411.8,468.9c-1.1,1-2.2,1.6-3.3,2c-1.1,0.4-2.2,0.6-3.4,0.6c-2,0-3.5-0.5-4.6-1.5c-1.1-1-1.6-2.2-1.6-3.7
	c0-0.9,0.2-1.7,0.6-2.4c0.4-0.7,0.9-1.3,1.6-1.8c0.7-0.4,1.4-0.8,2.2-1c0.6-0.2,1.5-0.3,2.7-0.5c2.5-0.3,4.3-0.6,5.5-1.1
	c0-0.4,0-0.7,0-0.8c0-1.2-0.3-2.1-0.9-2.6c-0.8-0.7-1.9-1-3.5-1c-1.4,0-2.5,0.3-3.2,0.8c-0.7,0.5-1.2,1.4-1.5,2.7l-3-0.4
	c0.3-1.3,0.7-2.3,1.3-3.1c0.6-0.8,1.5-1.4,2.7-1.8c1.2-0.4,2.5-0.6,4.1-0.6c1.5,0,2.8,0.2,3.8,0.5c1,0.4,1.7,0.8,2.1,1.4
	c0.5,0.6,0.8,1.2,1,2.1c0.1,0.5,0.2,1.5,0.2,2.8v4.1c0,2.8,0.1,4.7,0.2,5.4c0.1,0.8,0.4,1.5,0.8,2.2h-3.2
	C412.1,470.4,411.9,469.7,411.8,468.9z M411.5,462c-1.1,0.5-2.8,0.8-5,1.2c-1.3,0.2-2.2,0.4-2.7,0.6c-0.5,0.2-0.9,0.6-1.2,1
	c-0.3,0.4-0.4,0.9-0.4,1.5c0,0.8,0.3,1.5,0.9,2c0.6,0.5,1.5,0.8,2.7,0.8c1.2,0,2.2-0.3,3.1-0.8c0.9-0.5,1.6-1.2,2-2.1
	c0.3-0.7,0.5-1.7,0.5-3.1V462z"/>
<path class="st0" d="M426.1,468.3l0.4,2.7c-0.9,0.2-1.6,0.3-2.3,0.3c-1.1,0-2-0.2-2.6-0.5s-1-0.8-1.3-1.4c-0.2-0.6-0.4-1.8-0.4-3.6
	v-10.4h-2.2V453h2.2v-4.5l3-1.8v6.3h3.1v2.4H423V466c0,0.9,0.1,1.4,0.2,1.7c0.1,0.2,0.3,0.4,0.5,0.6c0.2,0.1,0.6,0.2,1,0.2
	C425.1,468.5,425.5,468.4,426.1,468.3z"/>
<path class="st0" d="M429.1,449.7v-3.5h3.1v3.5H429.1z M429.1,471.1V453h3.1v18.1H429.1z"/>
<path class="st0" d="M435.7,462c0-3.3,0.9-5.8,2.8-7.4c1.6-1.3,3.4-2,5.7-2c2.5,0,4.5,0.8,6.1,2.4c1.6,1.6,2.4,3.9,2.4,6.7
	c0,2.3-0.3,4.2-1,5.5c-0.7,1.3-1.7,2.4-3,3.1c-1.3,0.7-2.8,1.1-4.4,1.1c-2.5,0-4.6-0.8-6.1-2.4C436.5,467.4,435.7,465.1,435.7,462z
	 M438.8,462c0,2.3,0.5,4,1.5,5.2c1,1.2,2.3,1.7,3.8,1.7c1.5,0,2.8-0.6,3.8-1.7c1-1.2,1.5-2.9,1.5-5.3c0-2.2-0.5-3.9-1.5-5.1
	c-1-1.2-2.3-1.7-3.8-1.7c-1.5,0-2.8,0.6-3.8,1.7C439.3,458,438.8,459.7,438.8,462z"/>
<path class="st0" d="M456.2,471.1V453h2.8v2.6c1.3-2,3.2-3,5.8-3c1.1,0,2.1,0.2,3,0.6s1.6,0.9,2.1,1.5c0.5,0.6,0.8,1.4,1,2.3
	c0.1,0.6,0.2,1.6,0.2,3v11.1h-3.1v-11c0-1.2-0.1-2.2-0.4-2.8c-0.2-0.6-0.7-1.1-1.3-1.5c-0.6-0.4-1.3-0.6-2.1-0.6
	c-1.3,0-2.4,0.4-3.4,1.2c-0.9,0.8-1.4,2.4-1.4,4.7v9.9H456.2z"/>
<path class="st0" d="M375.5,365.4c2.9,6.5,5.8,10,8.9,10.5c7.6-2.1,12.8-7.1,15.7-15l-9.1-19.4C387,353.3,381.8,361.3,375.5,365.4
	 M420,303.3c-6.7,1.1-12.2,6.3-16.5,15.6l9.2,18.1c0.3-0.6,0.6-1.1,0.9-1.7c1.6-3.2,4-8,7.3-14.4c0.6-1.2,1.3-2.5,2-3.8
	c0.1-0.2,0.2-0.4,0.3-0.6c4.4-8.7,8.6-13.3,12.6-14C431.9,301.9,426.6,302.1,420,303.3 M248.9,341.5l-9.1,19.4
	c2.9,7.9,8.1,12.9,15.7,15c3.1-0.4,6.1-3.9,8.9-10.5C258.2,361.3,253,353.3,248.9,341.5 M217.2,317.1c0.7,1.3,1.3,2.6,2,3.8
	c3.2,6.4,5.7,11.2,7.3,14.4c0.3,0.6,0.6,1.2,0.9,1.7l9.2-18.1c-4.3-9.3-9.8-14.5-16.5-15.6c-6.7-1.2-11.9-1.4-15.8-0.8
	c4,0.7,8.2,5.3,12.6,14C217,316.7,217.1,316.9,217.2,317.1 M180.6,303.1c-3.9,0.4-8,1-12.3,1.6c3.2-0.1,6.7,6.6,10.6,20.1
	c0.9,3.1,1.8,6.6,2.8,10.5c6.4,26.2,13,39.7,19.8,40.6c0.5,0.1,0.9,0.1,1.4,0c3.1-0.4,6.2-3.4,9.4-9.1l2.1-4.2
	c-3.9-6.6-8.2-15.7-12.9-27.3c-1.6-3.9-3-7.4-4.5-10.5c-0.2-0.5-0.5-1.1-0.7-1.6c-0.2-0.4-0.4-0.8-0.6-1.2c-1.6-3.4-3.2-6.4-4.7-8.9
	C187.3,307.1,183.8,303.8,180.6,303.1 M471.7,304.7c-4.3-0.6-8.4-1.2-12.3-1.6c-3.2,0.7-6.7,4-10.4,10c-1.6,2.5-3.1,5.5-4.7,8.9
	c-0.2,0.4-0.4,0.8-0.6,1.2c-0.2,0.5-0.5,1.1-0.7,1.6c-1.4,3.1-2.9,6.6-4.5,10.5c-4.7,11.6-9,20.7-12.9,27.3l2.1,4.2
	c3.2,5.7,6.3,8.7,9.4,9.1c0.5,0.1,1,0.1,1.4,0c6.8-0.9,13.4-14.4,19.8-40.6c0.9-3.9,1.9-7.4,2.8-10.5
	C465,311.3,468.5,304.6,471.7,304.7z"/>
<path class="st1" d="M423.1,316.5c-0.1,0.2-0.2,0.4-0.3,0.6c0.4,2.4,7.4,4.4,20.9,6.1c0.2-0.4,0.4-0.8,0.6-1.2
	c1.6-3.4,3.2-6.4,4.7-8.9c-3.8,0.1-6.2-1.5-7.4-4.9c-1.2-3.4-3.1-5.3-5.9-5.7C431.7,303.2,427.5,307.8,423.1,316.5 M196.3,323.2
	c13.5-1.6,20.5-3.7,20.9-6.1c-0.1-0.2-0.2-0.4-0.3-0.6c-4.4-8.7-8.6-13.3-12.6-14c-2.8,0.4-4.8,2.3-5.9,5.7c-1.2,3.4-3.6,5-7.4,4.9
	c1.6,2.5,3.1,5.5,4.7,8.9C195.9,322.4,196.1,322.8,196.3,323.2 M349.8,212.5l-20.3-42.8c-2.3-5.2-5.4-7.8-9.5-8.1
	c-4,0.2-7.2,2.9-9.5,8.1l-20.3,42.8l-53.7,106.4l-9.2,18.1l-12.9,25.6l-2.1,4.2c-3.2,5.7-6.3,8.7-9.4,9.1h24.8
	c3.1-0.4,6.3-3.4,9.4-9.1l2.7-5.9l9.1-19.4l2.6-5.6c0.9-2,0.4-2.9-1.6-2.9h-3.1c-1.5-0.2-1.8-0.7-0.8-1.6l26.8-26
	c2.9-2.8,4.7-2.6,5.6,0.5l7,24.4c0.8,2.5-0.1,3.7-2.7,3.5h-2.5c-1.4-0.2-2.4,0.8-3.1,2.9l-12.6,28.6c-2.9,6.6-5.8,10.1-8.9,10.5
	h14.2c7.7-0.4,12.6-4,14.8-10.7l23.5-103.1c0.7-3.2-0.1-4.7-2.4-4.5h-7.2c-2.1-0.1-2.7-1.3-1.9-3.5c3-9.5,6.1-19.1,9.6-28.6
	c6.4-17.8,11-27.2,13.7-28.4c2.7,1.2,7.2,10.6,13.7,28.4c3.4,9.6,6.6,19.1,9.6,28.6c0.8,2.2,0.2,3.3-1.9,3.4h-7.2
	c-2.3-0.2-3.1,1.4-2.4,4.5l23.5,103.1c2.2,6.7,7.1,10.3,14.8,10.7h14.2c-3.1-0.5-6.1-4-8.9-10.5l-12.6-28.6c-0.7-2.1-1.7-3-3.1-2.9
	h-2.5c-2.6,0.1-3.5-1-2.7-3.5l7-24.4c0.9-3.1,2.8-3.2,5.6-0.5l26.8,26c1,0.9,0.7,1.4-0.8,1.6h-3.1c-2-0.1-2.5,0.9-1.6,2.9l2.6,5.6
	l9.1,19.4l2.7,5.9c3.2,5.7,6.3,8.7,9.4,9.1h24.8c-3.1-0.4-6.2-3.4-9.4-9.1l-2.1-4.2L412.7,337l-9.2-18.1L349.8,212.5 M168.3,304.7
	c-5.1,0.9-7.1,6-6.1,15.4c0.5,4.6,6,6.2,16.7,4.7C175,311.3,171.5,304.6,168.3,304.7 M477.8,320.1c1-9.4-1-14.5-6.1-15.4
	c-3.2-0.1-6.7,6.6-10.6,20.1C471.7,326.2,477.3,324.7,477.8,320.1z"/>
</svg>
