<?xml version="1.0" encoding="utf-8"?>
<!-- Generator: Adobe Illustrator 25.4.1, SVG Export Plug-In . SVG Version: 6.00 Build 0)  -->
<svg version="1.1" id="Слой_1" xmlns="http://www.w3.org/2000/svg" xmlns:xlink="http://www.w3.org/1999/xlink" x="0px" y="0px"
	 viewBox="0 0 640 640" style="enable-background:new 0 0 640 640;" xml:space="preserve">
<style type="text/css">
	.st0{fill:#FFFFFF;}
</style>
<g>
	<g>
		<polygon class="st0" points="381.9,332.9 422.9,332.9 420.5,318.5 399,318.5 403.8,267.1 412.4,267.1 413.5,254.4 405,254.4 
			408.4,216.3 425.9,216.3 430.6,203.7 393.4,203.7 		"/>
		<polygon class="st0" points="528.4,203.7 527.2,216.3 542.2,216.3 531.8,332.9 547.7,332.9 558.2,216.3 572.3,216.3 573.4,203.7 
					"/>
		<path class="st0" d="M493.5,203.7h-25.4c-10.4,0-17.9,3-22.4,9.1c-4.5,6.1-6,14.8-7,26l-5.1,56.8c-1.2,13.3-2.2,22.8,1.6,28.6
			c3.8,5.8,11.6,8.7,21.8,8.7h3.4l-0.6,6.7h16.1l0.6-6.7h3c10.1,0,18.5-2.9,23.4-8.7c4.8-5.8,6.5-15.4,7.7-28.6l5.1-56.8
			c1-11.2,2-19.9-1.4-26C510.8,206.7,503.9,203.7,493.5,203.7z M461.6,319.5c0,0-2.5,0.1-3.3,0c-8.1-0.5-13.4,0.2-11-21.6
			c1.6-14.9,6.2-59.5,6.2-59.5c0.7-8.1,2.3-13.9,4.6-17.4c2.3-3.5,5.8-5.3,10.4-5.3h2.4L461.6,319.5z M501.8,238.4
			c0,0-4.7,44.6-6.2,59.5c-1.6,15.9-1.4,21.1-14.9,21.6c-0.8,0-3,0-3,0l9.3-103.8h3.9c4.6,0,7.7,1.8,9.4,5.3
			C502.1,224.5,502.6,230.3,501.8,238.4z"/>
		<path class="st0" d="M322,261.5c-1.5,14-5.6,52.9-5.6,52.9l-4.7,4.4l-3.2,22h10.7l6.4-8.4l27.8,0l4.9,8.4h11.3l0-20.9l-3.8-3.9
			l9.4-100l1.1-12h-11.9C332.6,203.7,323.8,244.7,322,261.5z M350.4,318.6l-20.7,0c0,0,4.3-43.1,6.1-57.4
			c2.8-22.2,12.2-43.4,23.9-43.6L350.4,318.6z"/>
	</g>
	<g>
		<path class="st0" d="M197.9,317.1"/>
		<path class="st0" d="M208.9,260.6"/>
		<path class="st0" d="M185.2,326.5"/>
		<path class="st0" d="M201.9,348.6"/>
		<path class="st0" d="M232.4,364.7"/>
		<path class="st0" d="M205.2,386.8"/>
		<path class="st0" d="M231.6,322.9"/>
		<path class="st0" d="M197.9,317.1"/>
		<path class="st0" d="M160.6,343.4"/>
		<path class="st0" d="M132.8,382"/>
		<path class="st0" d="M231.6,322.9"/>
		<path class="st0" d="M242.4,304.6"/>
		<path class="st0" d="M222.9,296.7"/>
		<path class="st0" d="M66.6,319.9"/>
		<path class="st0" d="M168.8,288.8c-1.2-2.8-2.7-4.6-3.1-7c-1.1-6.4,6.1-19.1,10.6-23.9c9.1-9.7,36.2-19.2,44.1-29.9
			c5.1-7,9.4-24.5,10.1-33.1c0.5-5.5-14.6,16.8-21.1,19.8c-15.6,7-54.8,12.4-64.4,17c-6.9,3.3-12,19.9-18.3,24.4
			c-39.1,28-56.4,46.4-60.1,56.9c6,7.9,33.5,5,47.1,0.9c5.8-8.2,8.8-11.9,17.1-17c2.2-1.4,5.6-0.6,6.9,1.8l3.9,5.4
			C151,299.7,160.4,294.7,168.8,288.8z"/>
		<path class="st0" d="M205.2,260.5c-3.3,6.4-26.7,21.6-26.7,21.6c-1-4.9-0.4-10.5,3.3-12.3C193.3,264.4,201,261.5,205.2,260.5z"/>
		<path class="st0" d="M132.8,377.8c9.1,1.9,41.1-14.8,66.9-31.6l0,0c-4.3-4.9-12.3-16.3-12.3-16.3c-8.1,6-16.2,11.6-25.1,16.7
			c1.2,2.3-0.2,3.7-2.3,5.3C144.4,364.3,128.7,376.9,132.8,377.8z"/>
		<path class="st0" d="M239,304.1c2,3.5-6.4,14-13.9,21.4c0,0-10.9,4.3-13.9,3.5c-2.6-0.7-10.6-8.9-10.6-8.9
			c8.5-6.2,16.1-11.9,23.8-19.1l3,3.5c0.9,1.6,2.7,2.2,4.4,1.6C234.4,305.2,237.2,304.4,239,304.1z"/>
		<path class="st0" d="M239,363.2c-6.5,9.2-19.2,18.9-29.5,26c0,0,4.3,2,7.2,1.9c11-0.1,32.5-9.4,40.4-17c8.2-7.9,19-28.1,20.5-39.5
			c0.3-2.7-8.2-6.5-9-5.1c-5.1,10-17.8,28.5-29.8,33.7L239,363.2z"/>
		<path class="st0" d="M197.9,317.1"/>
		<path class="st0" d="M179.1,283.8"/>
		<path class="st0" d="M222.9,296.7"/>
		<path class="st0" d="M66.6,319.9l33.2,38.8l0,0c7.1,9.7,28.8,7.5,73.5-23.7c8.6-6,17-12.1,24.6-17.9c10.2-7.7,19-14.9,25-20.4
			c6.3-5.8,9.5-9.9,8-11.1l0,0l-22-25c1.1,2.2-10.8,15.5-28.4,26.4c-38.6,24-51.3,30.4-87.4,35.2C85.2,323.3,70.8,323.5,66.6,319.9
			L66.6,319.9z"/>
		<path class="st0" d="M171.3,404L132.8,382l0,0c4.4,1.9,23.8-6.2,56.5-25.3c16-9.3,32.1-22.8,42.3-33.8c8-8.7,13.3-16.2,10.8-18.3
			l0.1,0.1l16.5,12.3c2.3,1.9-1.1,9.3-4.6,16.8c-5.4,11.4-12.2,21.2-22,30.9c-8.3,8.4-17.9,15.9-27.3,22.2
			c-12.7,8.6-24.9,14.7-32.6,17.2C172,404.2,171.6,404.2,171.3,404L171.3,404z"/>
	</g>
	<g>
		<path class="st0" d="M309.6,372c-1.8,0-3.2-0.5-4.1-1.6s-1.4-2.5-1.4-4.4c0-0.9,0.1-1.9,0.2-2.8c0.2-1,0.4-1.9,0.7-2.8
			s0.7-1.8,1.2-2.6s1.1-1.5,1.7-2.1c0.7-0.6,1.4-1.1,2.3-1.4c0.8-0.4,1.8-0.5,2.8-0.5c1.8,0,3.1,0.5,4,1.6c0.9,1,1.4,2.5,1.4,4.4
			c0,0.9-0.1,1.9-0.2,2.8c-0.2,1-0.4,1.9-0.7,2.8c-0.3,0.9-0.7,1.8-1.2,2.6c-0.5,0.8-1.1,1.5-1.7,2.1c-0.7,0.6-1.4,1.1-2.3,1.4
			C311.6,371.9,310.6,372,309.6,372z M316.1,359.9c0-0.6-0.1-1.2-0.2-1.7s-0.3-0.9-0.6-1.3c-0.3-0.3-0.6-0.6-1-0.8s-0.9-0.3-1.5-0.3
			c-0.7,0-1.4,0.2-2,0.5s-1.1,0.8-1.6,1.3c-0.5,0.5-0.9,1.2-1.2,1.9c-0.3,0.7-0.6,1.4-0.8,2.2s-0.4,1.5-0.5,2.2s-0.2,1.4-0.2,2
			c0,0.6,0.1,1.2,0.2,1.7c0.1,0.5,0.3,0.9,0.6,1.3c0.3,0.4,0.6,0.6,1,0.8c0.4,0.2,0.9,0.3,1.5,0.3c0.7,0,1.4-0.2,2-0.5
			s1.1-0.8,1.6-1.3s0.9-1.2,1.2-1.9s0.6-1.4,0.8-2.2c0.2-0.7,0.4-1.5,0.5-2.2C316.1,361.2,316.1,360.5,316.1,359.9z"/>
		<path class="st0" d="M324.1,361.3h2.7c1,0,1.8,0.1,2.5,0.3c0.7,0.2,1.3,0.5,1.8,0.9c0.5,0.4,0.9,0.8,1.1,1.3
			c0.2,0.5,0.4,1.1,0.4,1.7c0,0.8-0.2,1.5-0.5,2.2c-0.3,0.7-0.8,1.4-1.5,2c-0.7,0.6-1.5,1.1-2.5,1.4c-1,0.4-2.1,0.6-3.5,0.6h-5.2
			l3.5-17.8h10.6l-0.4,2h-8.2L324.1,361.3z M330.2,365.7c0-0.4-0.1-0.7-0.2-1c-0.1-0.3-0.3-0.5-0.6-0.7s-0.7-0.4-1.1-0.5
			s-1-0.2-1.7-0.2h-2.8l-1.3,6.4h2.7c0.9,0,1.7-0.1,2.3-0.4s1.2-0.6,1.6-1c0.4-0.4,0.7-0.8,0.9-1.3
			C330.1,366.6,330.2,366.1,330.2,365.7z"/>
		<path class="st0" d="M340.6,372c-1.8,0-3.2-0.5-4.1-1.6s-1.4-2.5-1.4-4.4c0-0.9,0.1-1.9,0.2-2.8c0.2-1,0.4-1.9,0.7-2.8
			s0.7-1.8,1.2-2.6c0.5-0.8,1.1-1.5,1.7-2.1c0.7-0.6,1.4-1.1,2.3-1.4c0.8-0.4,1.8-0.5,2.8-0.5c1.8,0,3.1,0.5,4,1.6
			c0.9,1,1.4,2.5,1.4,4.4c0,0.9-0.1,1.9-0.2,2.8c-0.2,1-0.4,1.9-0.7,2.8s-0.7,1.8-1.2,2.6c-0.5,0.8-1.1,1.5-1.7,2.1
			c-0.7,0.6-1.4,1.1-2.3,1.4C342.6,371.9,341.7,372,340.6,372z M347.1,359.9c0-0.6-0.1-1.2-0.2-1.7c-0.1-0.5-0.3-0.9-0.6-1.3
			s-0.6-0.6-1-0.8s-0.9-0.3-1.5-0.3c-0.7,0-1.4,0.2-2,0.5c-0.6,0.3-1.1,0.8-1.6,1.3c-0.5,0.5-0.9,1.2-1.2,1.9
			c-0.3,0.7-0.6,1.4-0.8,2.2s-0.4,1.5-0.5,2.2s-0.2,1.4-0.2,2c0,0.6,0.1,1.2,0.2,1.7c0.1,0.5,0.3,0.9,0.6,1.3c0.3,0.4,0.6,0.6,1,0.8
			c0.4,0.2,0.9,0.3,1.5,0.3c0.7,0,1.4-0.2,2-0.5c0.6-0.3,1.1-0.8,1.6-1.3c0.5-0.5,0.9-1.2,1.2-1.9c0.3-0.7,0.6-1.4,0.8-2.2
			c0.2-0.7,0.4-1.5,0.5-2.2C347.1,361.2,347.1,360.5,347.1,359.9z"/>
		<path class="st0" d="M354.4,365.4l-1.3,6.4h-2.4l3.5-17.8h4.9c0.8,0,1.6,0.1,2.3,0.3c0.7,0.2,1.3,0.4,1.8,0.8
			c0.5,0.4,0.9,0.8,1.2,1.4c0.3,0.6,0.4,1.2,0.4,2c0,0.6-0.1,1.1-0.2,1.7c-0.2,0.6-0.4,1.1-0.7,1.6s-0.7,1-1.1,1.5
			c-0.5,0.5-1,0.8-1.6,1.2s-1.3,0.6-2,0.8c-0.8,0.2-1.6,0.3-2.5,0.3H354.4z M362.3,358.6c0-0.8-0.3-1.4-0.9-1.9s-1.5-0.7-2.6-0.7
			h-2.6l-1.4,7.3h2.1c0.7,0,1.3-0.1,1.9-0.2c0.5-0.2,1-0.3,1.4-0.6c0.4-0.2,0.7-0.5,1-0.9c0.3-0.3,0.5-0.7,0.6-1
			c0.2-0.4,0.3-0.7,0.3-1.1C362.3,359.2,362.3,358.9,362.3,358.6z"/>
		<path class="st0" d="M366.6,369.6c0.2,0.1,0.4,0.1,0.7,0.2s0.5,0.1,0.8,0.1c0.3,0,0.7-0.1,1-0.2s0.7-0.3,1-0.6s0.6-0.5,0.8-0.9
			c0.3-0.3,0.6-0.8,1.1-1.5l0.3-0.5l-4-12.2h2.7l2.1,6.9l0.8,2.6h0l1.4-2.5l4.1-7h2.7l-8.3,13.9c-0.4,0.7-0.8,1.3-1.2,1.8
			c-0.4,0.5-0.8,0.9-1.3,1.3c-0.5,0.3-1,0.6-1.5,0.8s-1.1,0.3-1.8,0.3c-0.3,0-0.7,0-1-0.1s-0.6-0.1-1-0.3L366.6,369.6z"/>
		<path class="st0" d="M394.8,369.8l-1.4,5.9h-2.2l0.8-3.9h-10l-0.8,3.9h-2.1l1-5.9h0.2c0.2,0,0.5-0.1,0.8-0.2s0.6-0.4,1-0.8
			c0.3-0.4,0.7-0.9,1.1-1.6c0.4-0.7,0.8-1.6,1.3-2.8c0.4-1.2,0.9-2.6,1.4-4.3c0.5-1.7,1-3.7,1.6-6.1h8.6l-3.1,15.7H394.8z
			 M393.2,356.1h-3.9c-0.5,2-0.9,3.8-1.4,5.4s-0.9,2.9-1.3,4c-0.4,1.1-0.9,2-1.3,2.7c-0.4,0.7-0.8,1.2-1.3,1.6h6.5L393.2,356.1z"/>
		<path class="st0" d="M402.7,372c-1.8,0-3.2-0.5-4.1-1.6s-1.4-2.5-1.4-4.4c0-0.9,0.1-1.9,0.2-2.8c0.2-1,0.4-1.9,0.7-2.8
			s0.7-1.8,1.2-2.6c0.5-0.8,1.1-1.5,1.7-2.1c0.7-0.6,1.4-1.1,2.3-1.4c0.8-0.4,1.8-0.5,2.8-0.5c1.8,0,3.1,0.5,4,1.6
			c0.9,1,1.4,2.5,1.4,4.4c0,0.9-0.1,1.9-0.2,2.8c-0.2,1-0.4,1.9-0.7,2.8s-0.7,1.8-1.2,2.6c-0.5,0.8-1.1,1.5-1.7,2.1
			c-0.7,0.6-1.4,1.1-2.3,1.4C404.6,371.9,403.7,372,402.7,372z M409.2,359.9c0-0.6-0.1-1.2-0.2-1.7c-0.1-0.5-0.3-0.9-0.6-1.3
			s-0.6-0.6-1-0.8s-0.9-0.3-1.5-0.3c-0.7,0-1.4,0.2-2,0.5c-0.6,0.3-1.1,0.8-1.6,1.3c-0.5,0.5-0.9,1.2-1.2,1.9
			c-0.3,0.7-0.6,1.4-0.8,2.2s-0.4,1.5-0.5,2.2s-0.2,1.4-0.2,2c0,0.6,0.1,1.2,0.2,1.7c0.1,0.5,0.3,0.9,0.6,1.3c0.3,0.4,0.6,0.6,1,0.8
			c0.4,0.2,0.9,0.3,1.5,0.3c0.7,0,1.4-0.2,2-0.5c0.6-0.3,1.1-0.8,1.6-1.3c0.5-0.5,0.9-1.2,1.2-1.9c0.3-0.7,0.6-1.4,0.8-2.2
			c0.2-0.7,0.4-1.5,0.5-2.2C409.1,361.2,409.2,360.5,409.2,359.9z"/>
		<path class="st0" d="M412.7,371.8l3.5-17.8h4.9c1.7,0,3.1,0.3,3.9,0.9c0.9,0.6,1.3,1.4,1.3,2.6c0,0.5-0.1,1-0.2,1.5
			c-0.1,0.5-0.3,1-0.6,1.4c-0.3,0.4-0.7,0.8-1.2,1.2c-0.5,0.4-1.1,0.6-1.8,0.9c0.4,0.1,0.8,0.2,1.1,0.4c0.3,0.2,0.6,0.4,0.9,0.7
			c0.3,0.3,0.5,0.6,0.6,1c0.1,0.4,0.2,0.8,0.2,1.2s-0.1,0.9-0.2,1.4c-0.1,0.5-0.3,0.9-0.6,1.4s-0.6,0.9-1,1.3s-0.9,0.7-1.5,1
			c-0.6,0.3-1.3,0.5-2,0.7c-0.8,0.2-1.7,0.3-2.6,0.3H412.7z M422.9,365.9c0-0.7-0.3-1.3-0.9-1.7c-0.6-0.4-1.5-0.6-2.6-0.6h-2.6
			l-1.2,6.1h2.4c0.7,0,1.3-0.1,1.9-0.2c0.5-0.1,1-0.3,1.3-0.5c0.4-0.2,0.7-0.5,0.9-0.7s0.4-0.5,0.5-0.8c0.1-0.3,0.2-0.6,0.3-0.8
			C422.8,366.4,422.9,366.1,422.9,365.9z M423.9,358c0-0.3-0.1-0.5-0.2-0.8c-0.1-0.2-0.3-0.4-0.5-0.6c-0.2-0.2-0.6-0.3-1-0.4
			c-0.4-0.1-0.9-0.1-1.5-0.1h-2.5l-1.1,5.6h2.3c0.9,0,1.6-0.1,2.2-0.4c0.6-0.2,1-0.5,1.4-0.9c0.3-0.4,0.6-0.8,0.7-1.2
			C423.8,358.7,423.9,358.3,423.9,358z"/>
		<path class="st0" d="M441.2,371.8h-2.6l-0.4-3.9h-7.4l-2,3.9h-2.6l9.4-17.8h3.3L441.2,371.8z M437.9,365.7l-1.1-9.5l-4.9,9.5
			H437.9z"/>
		<path class="st0" d="M455.3,371.8h-2.4l1.6-8.2h-7.4l-1.6,8.2h-2.4l3.5-17.8h2.4l-1.5,7.5h7.4l1.5-7.5h2.4L455.3,371.8z"/>
		<path class="st0" d="M464.7,354l-2.6,13.2L472,354h2.3l-3.5,17.8h-2.4l2.6-13.2l-9.9,13.2h-2.3l3.6-17.8H464.7z"/>
		<path class="st0" d="M485.4,371.8h-10.1l3.5-17.8h10.1l-0.4,2h-7.6l-1.1,5.5h7.3l-0.4,2h-7.3l-1.2,6.1h7.6L485.4,371.8z"/>
		<path class="st0" d="M518.9,369.8l-1.4,5.9h-2.2l0.8-3.9h-10l-0.8,3.9h-2.1l1-5.9h0.2c0.2,0,0.5-0.1,0.8-0.2s0.6-0.4,1-0.8
			c0.3-0.4,0.7-0.9,1.1-1.6c0.4-0.7,0.8-1.6,1.3-2.8c0.4-1.2,0.9-2.6,1.4-4.3c0.5-1.7,1-3.7,1.6-6.1h8.6l-3.1,15.7H518.9z
			 M517.2,356.1h-3.9c-0.5,2-0.9,3.8-1.4,5.4s-0.9,2.9-1.3,4c-0.4,1.1-0.9,2-1.3,2.7c-0.4,0.7-0.8,1.2-1.3,1.6h6.5L517.2,356.1z"/>
		<path class="st0" d="M532.2,371.8h-2.4l3.1-15.7H529c-0.5,2.1-1,4-1.4,5.6c-0.5,1.6-0.9,3-1.4,4.2c-0.5,1.2-0.9,2.1-1.4,2.9
			c-0.5,0.8-0.9,1.4-1.4,1.9c-0.5,0.5-0.9,0.8-1.4,1c-0.5,0.2-0.9,0.3-1.4,0.3c-0.4,0-0.7,0-1.1-0.1l0.5-2.1c0.3,0,0.6,0,0.9-0.1
			c0.3-0.1,0.7-0.4,1-0.8s0.7-1,1.1-1.7c0.4-0.7,0.8-1.7,1.2-2.8c0.4-1.2,0.9-2.6,1.4-4.3c0.5-1.7,1-3.6,1.5-5.9h8.6L532.2,371.8z"
			/>
		<path class="st0" d="M538.8,366.5c0.4-0.7,0.9-1.3,1.5-1.8c0.6-0.5,1.1-0.8,1.8-1c-0.5-0.1-0.9-0.3-1.2-0.5
			c-0.3-0.2-0.6-0.5-0.8-0.8s-0.4-0.7-0.5-1c-0.1-0.4-0.2-0.8-0.2-1.2c0-0.5,0.1-1,0.2-1.4s0.3-1,0.5-1.4c0.2-0.5,0.5-0.9,0.9-1.3
			c0.4-0.4,0.8-0.7,1.4-1s1.2-0.5,1.9-0.7c0.7-0.2,1.5-0.3,2.5-0.3h4.5l-3.5,17.8h-2.4l1.5-7.4h-1.3c-0.9,0-1.7,0.2-2.3,0.6
			c-0.6,0.4-1.1,0.9-1.5,1.7l-3,5.2h-3L538.8,366.5z M541.9,360c0,0.4,0.1,0.7,0.2,1c0.1,0.3,0.3,0.6,0.5,0.8s0.5,0.4,0.9,0.5
			c0.4,0.1,0.8,0.2,1.4,0.2h2.1l1.3-6.4h-2.1c-0.8,0-1.5,0.1-2,0.3c-0.5,0.2-1,0.5-1.3,0.9c-0.3,0.4-0.6,0.8-0.7,1.3
			S541.9,359.5,541.9,360z"/>
		<path class="st0" d="M316.6,405.2h-2.4l1.9-11.1l0.7-4.3l-1.3,2.5l-4,7.1h-1.7l-1.2-6.8l-0.3-2.7l-0.9,4.5l-2.5,10.9h-2.3
			l4.4-17.8h2.7l1.1,6.7l0.3,2.3l1.2-2.3l3.8-6.7h3.1L316.6,405.2z"/>
		<path class="st0" d="M322.8,399.9c0.4-0.7,0.9-1.3,1.5-1.8c0.6-0.5,1.1-0.8,1.8-1c-0.5-0.1-0.9-0.3-1.2-0.5s-0.6-0.5-0.8-0.8
			s-0.4-0.7-0.5-1c-0.1-0.4-0.2-0.8-0.2-1.2c0-0.5,0.1-1,0.2-1.4c0.1-0.5,0.3-1,0.5-1.4c0.2-0.5,0.5-0.9,0.9-1.3s0.8-0.7,1.4-1
			s1.2-0.5,1.9-0.7c0.7-0.2,1.5-0.3,2.5-0.3h4.5l-3.5,17.8h-2.4l1.5-7.4h-1.3c-0.9,0-1.7,0.2-2.3,0.6c-0.6,0.4-1.1,0.9-1.5,1.7
			l-3,5.2h-3L322.8,399.9z M325.9,393.4c0,0.4,0.1,0.7,0.2,1s0.3,0.6,0.5,0.8s0.5,0.4,0.9,0.5c0.4,0.1,0.8,0.2,1.4,0.2h2.1l1.3-6.4
			h-2.1c-0.8,0-1.5,0.1-2,0.3s-1,0.5-1.3,0.9s-0.6,0.8-0.7,1.3S325.9,393,325.9,393.4z"/>
		<path class="st0" d="M348.8,404.6c-0.8,0.3-1.5,0.5-2.2,0.7c-0.7,0.2-1.5,0.2-2.3,0.2c-2,0-3.6-0.5-4.7-1.6
			c-1.1-1-1.7-2.6-1.7-4.7c0-0.9,0.1-1.8,0.3-2.7c0.2-0.9,0.4-1.8,0.8-2.7s0.8-1.7,1.3-2.5c0.5-0.8,1.2-1.5,1.9-2.1s1.6-1.1,2.5-1.4
			c0.9-0.3,2-0.5,3.1-0.5c0.8,0,1.6,0.1,2.3,0.2s1.4,0.4,2,0.6l-0.5,2.4c-0.6-0.4-1.2-0.6-1.8-0.8c-0.6-0.2-1.4-0.3-2.2-0.3
			c-0.8,0-1.6,0.1-2.3,0.4c-0.7,0.3-1.3,0.7-1.8,1.2s-1,1-1.4,1.7c-0.4,0.6-0.7,1.3-0.9,2c-0.2,0.7-0.4,1.4-0.5,2.1
			s-0.2,1.4-0.2,2.1c0,2.9,1.4,4.4,4.2,4.4c0.8,0,1.5-0.1,2.3-0.3c0.8-0.2,1.5-0.4,2.2-0.7L348.8,404.6z"/>
		<path class="st0" d="M359.5,405.5c-1.8,0-3.2-0.5-4.1-1.6s-1.4-2.5-1.4-4.4c0-0.9,0.1-1.9,0.2-2.8c0.2-1,0.4-1.9,0.7-2.8
			s0.7-1.8,1.2-2.6c0.5-0.8,1.1-1.5,1.7-2.1c0.7-0.6,1.4-1.1,2.3-1.4c0.8-0.4,1.8-0.5,2.8-0.5c1.8,0,3.1,0.5,4,1.6
			c0.9,1,1.4,2.5,1.4,4.4c0,0.9-0.1,1.9-0.2,2.8c-0.2,1-0.4,1.9-0.7,2.8c-0.3,0.9-0.7,1.8-1.2,2.6c-0.5,0.8-1.1,1.5-1.7,2.1
			c-0.7,0.6-1.4,1.1-2.3,1.4C361.4,405.3,360.5,405.5,359.5,405.5z M366,393.4c0-0.6-0.1-1.2-0.2-1.7c-0.1-0.5-0.3-0.9-0.6-1.3
			c-0.3-0.3-0.6-0.6-1-0.8s-0.9-0.3-1.5-0.3c-0.7,0-1.4,0.2-2,0.5c-0.6,0.3-1.1,0.8-1.6,1.3c-0.5,0.5-0.9,1.2-1.2,1.9
			c-0.3,0.7-0.6,1.4-0.8,2.2c-0.2,0.7-0.4,1.5-0.5,2.2c-0.1,0.7-0.2,1.4-0.2,2c0,0.6,0.1,1.2,0.2,1.7c0.1,0.5,0.3,0.9,0.6,1.3
			c0.3,0.4,0.6,0.6,1,0.8c0.4,0.2,0.9,0.3,1.5,0.3c0.7,0,1.4-0.2,2-0.5c0.6-0.3,1.1-0.8,1.6-1.3c0.5-0.5,0.9-1.2,1.2-1.9
			c0.3-0.7,0.6-1.4,0.8-2.2c0.2-0.7,0.4-1.5,0.5-2.2S366,394,366,393.4z"/>
		<path class="st0" d="M382.1,405.2h-2.4l3.1-15.6h-7.2l-3.1,15.6h-2.4l3.5-17.8h12.1L382.1,405.2z"/>
		<path class="st0" d="M397.9,405.2h-10.1l3.5-17.8h10.1l-0.4,2h-7.6l-1.1,5.5h7.3l-0.4,2h-7.3l-1.2,6.1h7.6L397.9,405.2z"/>
		<path class="st0" d="M407.5,398.9l-1.3,6.4h-2.4l3.5-17.8h4.9c0.8,0,1.6,0.1,2.3,0.3c0.7,0.2,1.3,0.4,1.8,0.8
			c0.5,0.4,0.9,0.8,1.2,1.4s0.4,1.2,0.4,2c0,0.6-0.1,1.1-0.2,1.7c-0.2,0.6-0.4,1.1-0.7,1.6c-0.3,0.5-0.7,1-1.1,1.5
			c-0.5,0.5-1,0.8-1.6,1.2c-0.6,0.3-1.3,0.6-2,0.8s-1.6,0.3-2.5,0.3H407.5z M415.5,392.1c0-0.8-0.3-1.4-0.9-1.9
			c-0.6-0.4-1.5-0.7-2.6-0.7h-2.6l-1.4,7.3h2.1c0.7,0,1.3-0.1,1.9-0.2s1-0.3,1.4-0.6c0.4-0.2,0.7-0.5,1-0.9c0.3-0.3,0.5-0.7,0.6-1
			c0.2-0.4,0.3-0.7,0.3-1.1C415.4,392.7,415.5,392.4,415.5,392.1z"/>
		<path class="st0" d="M431.1,405.2H421l3.5-17.8h10.1l-0.4,2h-7.6l-1.1,5.5h7.3l-0.4,2h-7.3l-1.2,6.1h7.6L431.1,405.2z"/>
		<path class="st0" d="M440.8,398.9l-1.3,6.4h-2.4l3.5-17.8h4.9c0.8,0,1.6,0.1,2.3,0.3c0.7,0.2,1.3,0.4,1.8,0.8
			c0.5,0.4,0.9,0.8,1.2,1.4s0.4,1.2,0.4,2c0,0.6-0.1,1.1-0.2,1.7c-0.2,0.6-0.4,1.1-0.7,1.6c-0.3,0.5-0.7,1-1.1,1.5
			c-0.5,0.5-1,0.8-1.6,1.2c-0.6,0.3-1.3,0.6-2,0.8s-1.6,0.3-2.5,0.3H440.8z M448.7,392.1c0-0.8-0.3-1.4-0.9-1.9
			c-0.6-0.4-1.5-0.7-2.6-0.7h-2.6l-1.4,7.3h2.1c0.7,0,1.3-0.1,1.9-0.2s1-0.3,1.4-0.6c0.4-0.2,0.7-0.5,1-0.9c0.3-0.3,0.5-0.7,0.6-1
			c0.2-0.4,0.3-0.7,0.3-1.1C448.7,392.7,448.7,392.4,448.7,392.1z"/>
		<path class="st0" d="M466.7,405.2h-2.6l-0.4-3.9h-7.4l-2,3.9h-2.6l9.4-17.8h3.3L466.7,405.2z M463.4,399.2l-1.1-9.5l-4.9,9.5
			H463.4z"/>
		<path class="st0" d="M474.8,394.8h2.7c1,0,1.8,0.1,2.5,0.3c0.7,0.2,1.3,0.5,1.8,0.9c0.5,0.4,0.9,0.8,1.1,1.3s0.4,1.1,0.4,1.7
			c0,0.8-0.2,1.5-0.5,2.2c-0.3,0.7-0.8,1.4-1.5,2c-0.7,0.6-1.5,1.1-2.5,1.4c-1,0.4-2.1,0.6-3.5,0.6h-5.2l3.5-17.8h10.6l-0.4,2h-8.2
			L474.8,394.8z M480.8,399.1c0-0.4-0.1-0.7-0.2-1c-0.1-0.3-0.3-0.5-0.6-0.7s-0.7-0.4-1.1-0.5c-0.5-0.1-1-0.2-1.7-0.2h-2.8l-1.3,6.4
			h2.7c0.9,0,1.7-0.1,2.3-0.4c0.6-0.2,1.2-0.6,1.6-1c0.4-0.4,0.7-0.8,0.9-1.3C480.8,400.1,480.8,399.6,480.8,399.1z"/>
		<path class="st0" d="M492.4,405.5c-1.8,0-3.2-0.5-4.1-1.6s-1.4-2.5-1.4-4.4c0-0.9,0.1-1.9,0.2-2.8c0.2-1,0.4-1.9,0.7-2.8
			s0.7-1.8,1.2-2.6c0.5-0.8,1.1-1.5,1.7-2.1c0.7-0.6,1.4-1.1,2.3-1.4c0.8-0.4,1.8-0.5,2.8-0.5c1.8,0,3.1,0.5,4,1.6
			c0.9,1,1.4,2.5,1.4,4.4c0,0.9-0.1,1.9-0.2,2.8c-0.2,1-0.4,1.9-0.7,2.8c-0.3,0.9-0.7,1.8-1.2,2.6c-0.5,0.8-1.1,1.5-1.7,2.1
			c-0.7,0.6-1.4,1.1-2.3,1.4C494.3,405.3,493.4,405.5,492.4,405.5z M498.9,393.4c0-0.6-0.1-1.2-0.2-1.7c-0.1-0.5-0.3-0.9-0.6-1.3
			c-0.3-0.3-0.6-0.6-1-0.8s-0.9-0.3-1.5-0.3c-0.7,0-1.4,0.2-2,0.5c-0.6,0.3-1.1,0.8-1.6,1.3c-0.5,0.5-0.9,1.2-1.2,1.9
			c-0.3,0.7-0.6,1.4-0.8,2.2c-0.2,0.7-0.4,1.5-0.5,2.2c-0.1,0.7-0.2,1.4-0.2,2c0,0.6,0.1,1.2,0.2,1.7c0.1,0.5,0.3,0.9,0.6,1.3
			c0.3,0.4,0.6,0.6,1,0.8c0.4,0.2,0.9,0.3,1.5,0.3c0.7,0,1.4-0.2,2-0.5c0.6-0.3,1.1-0.8,1.6-1.3c0.5-0.5,0.9-1.2,1.2-1.9
			c0.3-0.7,0.6-1.4,0.8-2.2c0.2-0.7,0.4-1.5,0.5-2.2S498.9,394,498.9,393.4z"/>
		<path class="st0" d="M518.6,389.5h-5.2l-3.1,15.7h-2.4l3.1-15.7h-5.2l0.4-2.1H519L518.6,389.5z"/>
		<path class="st0" d="M532.1,405.2h-2.9l-4.9-8.8l-1.8,8.8h-2.4l3.5-17.8h2.4l-1.6,8.2l8.1-8.2h3l-8.8,8.6L532.1,405.2z"/>
		<path class="st0" d="M542.2,387.5l-2.6,13.2l9.9-13.2h2.3l-3.5,17.8h-2.4l2.6-13.2l-9.9,13.2h-2.3l3.6-17.8H542.2z"/>
	</g>
</g>
</svg>
