<?xml version="1.0" encoding="utf-8"?>
<!-- Generator: Adobe Illustrator 25.4.1, SVG Export Plug-In . SVG Version: 6.00 Build 0)  -->
<svg version="1.1" id="Слой_1" xmlns="http://www.w3.org/2000/svg" xmlns:xlink="http://www.w3.org/1999/xlink" x="0px" y="0px"
	 viewBox="0 0 640 640" style="enable-background:new 0 0 640 640;" xml:space="preserve">
<style type="text/css">
	.st0{fill:#C441A2;}
</style>
<g>
	<path class="st0" d="M323,149.5c-74.9,0-135.7,60.7-135.7,135.7S248,420.8,323,420.8s135.7-60.7,135.7-135.7S397.9,149.5,323,149.5
		z M368.5,368.3c-19.5,13.5-48.8,19.3-74.7,6.2c-2.3-1.1-34.3-18-38.1-53c-0.4-4-2.9-31.1,16.4-50c6.8-6.7,14.1-10.2,19-12
		c-1-0.8-5.4-4.6-6.1-11.2c-0.9-7.8,4.1-13.1,4.8-13.8c-5-0.6-18-2.9-22.4-11.9c-6.4-13.4,10-33.3,25.7-41.4
		c3.2-1.7,14.6-7.3,28.1-4.7c8.8,1.7,19.3,7.2,23.2,11.5c0.6,0.7,3.2,3.7,7.5,5.8c0.5,0.2,1.4,0.7,2.7,1.2c6,2.2,8.5,0.7,9.7,2.4
		c1.8,2.3-0.9,8.2-4.7,11.2c-1.5,1.2-2.8,1.7-3.7,2.1c-3.2,1.3-6.3,1.4-9.7,1.1c-6.6-0.6-7.7-2.2-11.7-2.7
		c-8.3-0.9-16.8,4.5-21.4,10.7c-3.2,4.2-4.4,8.4-4.9,11.1c1.7,0.7,4.8,2.3,7.2,5.7c4.7,6.7,2.5,14.4,2.2,15.5
		c4.8-5.4,12.2-7.6,18.8-5.7c5.8,1.7,10.7,6.4,12.1,12.4c1.5,6.4-1.5,11.7-2.4,13.3c-4.8,8.3-11.6,6.4-19.5,14.4
		c-2.6,2.6-9.9,11-9.2,22.3c0.7,11.2,8.6,17.9,9.4,18.6c8.7,7.3,20.6,7.2,28.8,3.8c12.3-5.1,18.3-18.6,19.6-28.2
		c1.5-10.6-2.7-16.9,2.1-22c3.1-3.4,8.8-4.9,13.2-3.3c4.6,1.7,6.6,6.4,7.4,8.2C403.2,297.7,403.4,344.1,368.5,368.3z"/>
	<g>
		<path class="st0" d="M165.4,443.7c-15.7-11-1-34.2,28.8-25.1c4.9,1.5,3.7,9.5-1,7.7c-24.3-9.5-29.9,11.1-17.5,12.6
			c17.8,0.6,11.5,10.5,0,9.9c-26-1.2-36.6,24.6-23.2,30.4c13.1,5.8,20.7-2,27-8.7c1.8-2,3.2-3,4-3c2-0.1,5.6,1.6,5.7,3.7
			c-0.9,3.2-4.7,6.2-8,9.1C140.9,512.8,107.4,456.6,165.4,443.7z"/>
		<path class="st0" d="M196.3,471.3c-2.5,2.6-5.7,3.7-9.5,4l1.5-5.5c15-0.6,11.7-32.7,20.1-33.5c2.8,0.2,5.2-0.4,5.9,1.7
			c-0.9,3.4-5.6,14.4-6.9,18.9c4.2-6.8,8-11.8,11.5-14.9c4.8-4.7,14.9-8,15.6,0.4c0.4,1.1-3.2,10.8-5.7,16.9
			c-1.9,5.1-4.8,10.9,3.4,10.5l-1.5,5.5c-18.7,0.7-14.3-10-8.7-22.6c1.4-4,3.6-6.2,0.6-6.8c-7.7,2.8-14.5,16.2-17.8,25
			c-1.1,3.1-3.3,4.6-6.6,4.6C194.8,475.7,194.9,473.8,196.3,471.3z"/>
		<path class="st0" d="M241.8,469.9c-3.3,3.4-6.5,5.2-11.1,5.4l1.6-5.5c9.8-1.6,11-11.1,14.5-22.1c0.8-4.9,2.1-11.4,9-10.8
			c7.1-0.4,0.1,8.8-0.2,12l-6.4,22c1.3-0.3,5-0.8,8.4-1.1l-1.6,5.5c-3.7,0.4-7.3,0.9-8.8,1.5c-4.5,33.9-31.7,16.6-8.4,2.1
			L241.8,469.9z M258,424.6c-8,0.2-5.2-12.5,1.5-12.1C267.4,412.7,264.9,425.1,258,424.6z"/>
		<path class="st0" d="M288.8,450.2c-9.7-1.9-0.4-17.1,5.8-9.1c6.6,14-10.2,44.3-26.9,31.3c-3.8,1.9-7.4,2.7-11.8,2.9l1.6-5.5
			c2.7-0.2,5-0.6,7.1-1.8c-4.1-12.7,6-30.3,19.8-31.2c5.2,0.6-2.1,5.8-3.1,7.4c-2.8,3.5-4.9,7-6.4,10.6
			C265.8,481.3,289.7,467.7,288.8,450.2z"/>
		<path class="st0" d="M303.5,472c-16.3,6.1-15.9-21.5-18.3-24.1l4.2,0.5c1.4,3.4,2.1,22.8,12.6,18.8c5.4-2,5.7-29.4,11.2-30.6
			c5.7,0,8.1,1.7,4.6,7.5c-2.4,5-4.6,10.3-5.7,14.5c-3,8.9,1.6,12.5,8.5,4.4c2.6-3,4.9-7,7.1-11.9c2-2.9,3.2-13.7,7.2-14.1
			c3.9,0,7.6,1.7,4.9,6.1c-0.4,0.2-9.7,26.7-10.2,27.8c1.3-0.3,5.1-0.8,8.4-1.1l-1.6,5.5c-4,0.4-6.1,0.6-9.2,1.5
			c-8,33.7-32.3,15.7-7.7,1.7c2.5-6.2,4.7-12.1,6.9-18.2C322.1,469.3,311.3,481.9,303.5,472z"/>
		<path class="st0" d="M336.5,475.3l1.5-5.5c15-0.6,11.7-32.5,20-33.5c2.8,0.2,5.3-0.4,6,1.7c-0.9,3.4-5.7,14.5-7,19
			c4.5-7.2,8.2-12.3,11.3-15.4c4.5-5,13.4-7.3,14.1,0.5c-0.5,4.7-2.8,8.6-5.4,14.6c8.3-11.3,10.1-18,20.4-19.6
			c3.5,0,6.3,1.8,6.3,5.4c0.3,1.3-2.8,9.9-5.8,17c-1.9,5.2-4.6,10.6,3.6,10.3l-1.5,5.5c-17.8,0.4-15-8.1-9.1-21.4
			c0.9-3.2,4.2-8,1.4-8.7c-5.6,2.4-12.2,14-15.8,20.8c-1.7,2.9-2.6,9.4-7.1,9.1c-2.7-0.2-4.8,0.4-5.4-1.7c0.3-2.1,4.2-10.1,5-12.5
			c2.8-7.4,4.1-9.4,4.8-14.2c-1.3-4-4.8,0.1-8.5,4.5c-4.8,5.8-8,12.5-10.8,19.5c-1.6,3.4-0.7,3.6-3.1,4.4c-2.8,0.3-8.5,1.4-5.5-3.8
			C343.5,474,340.3,475.1,336.5,475.3z"/>
		<path class="st0" d="M415.8,471.3c-5.1,2.4-10.3,3.8-15.8,4l1.6-5.5c3.6-0.3,6.6-0.9,9.7-2.3c-8.3-11.5,1.1-31.1,15.5-30.7
			c17.7,1.7,5.9,24.1-3.7,30.1c2.6,2.5,5.5,2.9,9.2,2.9l-1.6,5.5C425.2,475.4,420,474.6,415.8,471.3z M420,462.7
			c4.7-2.3,15.6-17.4,6.6-19.1C419.3,444.2,415.5,457.1,420,462.7z"/>
		<path class="st0" d="M440.3,471.3c-2.5,2.6-5.7,3.7-9.5,4l1.5-5.5c15-0.6,11.7-32.7,20.1-33.5c2.8,0.2,5.2-0.4,5.9,1.7
			c-0.9,3.4-5.6,14.4-6.9,18.9c4.2-6.8,8-11.8,11.5-14.9c4.8-4.7,14.9-8,15.6,0.4c0.4,1.1-3.2,10.8-5.7,16.9
			c-1.9,5.1-4.8,10.9,3.4,10.5l-1.5,5.5c-18.7,0.7-14.3-10-8.7-22.6c1.4-4,3.6-6.2,0.6-6.8c-7.7,2.8-14.5,16.2-17.8,25
			c-1.1,3.1-3.3,4.6-6.6,4.6C438.8,475.7,439,473.8,440.3,471.3z"/>
		<path class="st0" d="M474.7,475.3l1.5-5.5c11.3-0.3,11.8-16,14.9-24.6c-1.3-0.3-6.5,1.1-5.3-1.7c0.9-4.5,3.1-3,6.8-3.3l4-13.1
			c0.7-3.2,2.2-8.7,5.8-8.2c6.6,0,6.3,2.5,4,7.6l-4.6,13.6h6.8c1.2-0.1,1.9,0.5,1.5,1.6c-0.4,0.8-0.6,2.7-1.6,3
			c-1.2,0.6-6.8,0.2-8.2,0.3l-4,13c-2.8,7.3,0.4,12,13.5,5.4c1-0.5,2.6,2.4,1.5,4.3c-6,10.3-21.2,6.8-24.4,2.3
			C483.5,473.2,479.1,475.1,474.7,475.3z"/>
	</g>
</g>
</svg>
