<?xml version="1.0" encoding="utf-8"?>
<!-- Generator: Adobe Illustrator 25.4.1, SVG Export Plug-In . SVG Version: 6.00 Build 0)  -->
<svg version="1.1" id="Слой_1" xmlns="http://www.w3.org/2000/svg" xmlns:xlink="http://www.w3.org/1999/xlink" x="0px" y="0px"
	 viewBox="0 0 640 640" style="enable-background:new 0 0 640 640;" xml:space="preserve">
<style type="text/css">
	.st0{fill:#282830;}
	.st1{fill:#FFCA06;}
</style>
<g>
	<path class="st0" d="M580.9,392.2l-41.4-118.9H474c0-0.5,0-0.9,0-1.3c0-6.6-2.4-12.3-7.1-17.1c-4.8-4.8-10.5-7.2-17.3-7.2
		c-0.2,0-0.3,0-0.4,0c-6.4,0.1-12,2.5-16.6,7.2c-4.8,4.7-7.2,10.4-7.2,17.1c0,0.5,0,0.9,0.1,1.3H59.1v118.9H580.9z M548.3,340.5
		l13.3,38.3h-81.3v-91.9h49.1l8.8,24.9h-19.6v28.8L548.3,340.5L548.3,340.5z M449.6,254.6c4.7,0,8.7,1.7,12.1,5.1
		c3.5,3.5,5.2,7.6,5.1,12.3c-0.2,4.6-2.5,9-6.9,13.2c-0.6,0.6-1.2,1.2-1.7,1.6c-1.4,1.4-2.4,2.4-2.8,3c-1.4,1.8-2.1,3.7-2.2,5.7v9.3
		h5.8v13.9h8v45.8l5.2,3.5v10.8h-44.7v-10.9l5.2-3.4v-45.8h7.7v-13.9h5.7v-9.3c-0.1-2-0.8-3.8-2.2-5.7c-0.4-0.6-1.4-1.6-2.8-3
		c-0.5-0.5-1.1-1-1.7-1.6c-4.5-4.2-6.8-8.6-6.9-13.2c-0.1-4.7,1.6-8.8,5.1-12.3C440.9,256.3,444.9,254.6,449.6,254.6z M303.5,331.4
		l10.2,9.2l11.2-53.8H364l-19.2,91.9h-31.3l-10-9l-10,9H262l-19.2-91.9h39.1l11.2,53.9L303.5,331.4z M371.9,286.8h38.3v67h7.8v24.9
		h-46.1L371.9,286.8L371.9,286.8z M235.6,286.8v24.9h-65.1v-24.9H235.6z M111.9,332.6h11.5v-45.8h38.3v91.9h-38.3v-21.2h-11.5v21.2
		H73.6v-91.9h38.3C111.9,286.8,111.9,332.6,111.9,332.6z M170.5,378.7v-24.9h65.1v24.9H170.5z M235.6,345.3h-65.1v-24.9h65.1V345.3z
		"/>
	<path class="st1" d="M561.7,378.7l-13.3-38.3h-29.7v-28.8h19.6l-8.8-24.9h-49.1v91.9L561.7,378.7L561.7,378.7z"/>
	<path class="st1" d="M461.7,259.7c-3.4-3.4-7.4-5.1-12.1-5.1s-8.7,1.7-12.1,5.1c-3.5,3.5-5.2,7.6-5.1,12.3c0.2,4.6,2.5,9,6.9,13.2
		c0.6,0.6,1.2,1.2,1.7,1.6c1.5,1.4,2.4,2.4,2.8,3c1.4,1.8,2.1,3.7,2.2,5.7v9.3h-5.7v13.9h-7.7v45.8l-5.2,3.4v10.9h44.7V368l-5.2-3.5
		v-45.8h-8v-13.9h-5.8v-9.3c0.1-2,0.8-3.8,2.2-5.7c0.5-0.6,1.4-1.6,2.8-3c0.5-0.5,1.1-1,1.7-1.6c4.5-4.2,6.8-8.6,6.9-13.2
		C466.9,267.3,465.2,263.2,461.7,259.7z M449.5,262.4c0,0,0.1,0,0.2,0c2.7,0,4.9,0.9,6.8,2.8s2.8,4.1,2.8,6.8s-0.9,4.9-2.8,6.8
		s-4.2,2.8-6.8,2.8c-2.6,0-4.9-0.9-6.8-2.8s-2.8-4.2-2.8-6.8s0.9-4.9,2.8-6.8C444.7,263.4,446.9,262.4,449.5,262.4z"/>
	<path class="st0" d="M449.6,262.4c-0.1,0-0.2,0-0.2,0c-2.5,0.1-4.7,1-6.6,2.8c-1.9,1.9-2.8,4.1-2.8,6.8s0.9,4.9,2.8,6.8
		s4.2,2.8,6.8,2.8c2.7,0,4.9-0.9,6.8-2.8s2.8-4.2,2.8-6.8s-0.9-4.9-2.8-6.8C454.6,263.3,452.3,262.4,449.6,262.4z"/>
	<path class="st1" d="M313.7,340.6l-10.2-9.2l-10.4,9.3l-11.2-53.9h-39.1l19.2,91.9h31.5l10-9l10,9h31.3l19.2-91.9h-39L313.7,340.6z
		"/>
	<path class="st1" d="M410.2,286.8h-38.3v91.9H418v-24.9h-7.8L410.2,286.8L410.2,286.8z"/>
	<path class="st1" d="M235.6,311.7v-24.9h-65.1v24.9H235.6z"/>
	<path class="st1" d="M123.4,332.6h-11.5v-45.8H73.6v91.9h38.3v-21.2h11.5v21.2h38.3v-91.9h-38.3
		C123.4,286.8,123.4,332.6,123.4,332.6z"/>
	<path class="st1" d="M170.5,353.9v24.9h65.1v-24.9H170.5z"/>
	<path class="st1" d="M170.5,345.3h65.1v-24.9h-65.1V345.3z"/>
</g>
</svg>
