<?xml version="1.0" encoding="utf-8"?>
<!-- Generator: Adobe Illustrator 25.4.1, SVG Export Plug-In . SVG Version: 6.00 Build 0)  -->
<svg version="1.1" id="Слой_1" xmlns="http://www.w3.org/2000/svg" xmlns:xlink="http://www.w3.org/1999/xlink" x="0px" y="0px"
	 viewBox="0 0 514 367" style="enable-background:new 0 0 514 367;" xml:space="preserve">
<style type="text/css">
	.st0{fill:#1D1D1B;}
	.st1{fill:#E20613;}
</style>
<g>
	<g>
		<path class="st0" d="M31.4,219.3v7.7h8.9v-7.7h2.4v18.4h-2.4v-8.6h-8.9v8.6H29v-18.4H31.4z"/>
		<path class="st0" d="M62.6,228.4c0,6.3-3.9,9.7-8.6,9.7c-4.9,0-8.3-3.8-8.3-9.4c0-5.9,3.6-9.7,8.6-9.7
			C59.3,219,62.6,222.9,62.6,228.4z M48.3,228.7c0,3.9,2.1,7.5,5.9,7.5s5.9-3.5,5.9-7.7c0-3.7-1.9-7.5-5.9-7.5
			C50.3,221,48.3,224.6,48.3,228.7z"/>
		<path class="st0" d="M66.5,219.3l5.7,8.2h0.7v-8.2h2.3v8.2h0.7l5.7-8.2h2.8l-6.5,8.5c2.9,0.3,4.1,2.1,5,4.7
			c0.6,1.8,1.1,3.5,1.8,5.2h-2.4c-0.6-1.2-1.1-3-1.5-4.3c-0.8-2.5-1.8-4.1-4.7-4.1h-0.8v8.5H73v-8.5h-0.8c-3,0-3.9,1.6-4.8,4.1
			c-0.4,1.3-0.9,3.1-1.5,4.3h-2.5c0.8-1.7,1.2-3.5,1.8-5.2c0.9-2.6,2.1-4.4,5-4.8l-6.5-8.5h2.8V219.3z"/>
		<path class="st0" d="M89.4,219.3v7.8c0,2.9-0.1,5.3-0.2,7.8h0.1c0.9-1.9,2.1-3.9,3.4-6.1l6-9.5h2.4v18.4h-2.2v-7.9
			c0-3,0-5.2,0.2-7.5H99c-0.9,2-2.2,4.2-3.4,6.2l-5.8,9.2h-2.5v-18.4H89.4z"/>
		<path class="st0" d="M124.3,219.3v18.4h-2.4v-16.4h-8.6v16.4h-2.4v-18.4H124.3z"/>
		<path class="st0" d="M128.4,219.6c1.1-0.2,2.7-0.4,4.6-0.4c2.4,0,4.1,0.5,5.2,1.5c1,0.9,1.6,2.2,1.6,3.9c0,1.7-0.5,3-1.4,3.9
			c-1.3,1.3-3.3,2-5.6,2c-0.7,0-1.4,0-1.9-0.2v7.4h-2.5V219.6z M130.8,228.5c0.5,0.1,1.2,0.2,2,0.2c2.9,0,4.6-1.4,4.6-3.9
			c0-2.4-1.7-3.6-4.4-3.6c-1,0-1.8,0.1-2.2,0.2L130.8,228.5L130.8,228.5z"/>
		<path class="st0" d="M158.5,228.4c0,6.3-3.9,9.7-8.6,9.7c-4.9,0-8.3-3.8-8.3-9.4c0-5.9,3.6-9.7,8.6-9.7
			C155.3,219,158.5,222.9,158.5,228.4z M144.2,228.7c0,3.9,2.1,7.5,5.9,7.5c3.8,0,5.9-3.5,5.9-7.7c0-3.7-1.9-7.5-5.9-7.5
			C146.2,221,144.2,224.6,144.2,228.7z"/>
		<path class="st0" d="M177.1,229.7c-0.1-2.6-0.3-5.7-0.3-8h-0.1c-0.6,2.2-1.4,4.5-2.3,7l-3.3,8.9h-1.8l-3-8.8
			c-0.9-2.6-1.6-5-2.1-7.2h-0.1c-0.1,2.3-0.2,5.4-0.4,8.2l-0.5,7.9h-2.3l1.3-18.4h3l3.1,8.9c0.8,2.3,1.4,4.3,1.9,6.2h0.1
			c0.5-1.9,1.1-3.9,1.9-6.2l3.3-8.9h3l1.1,18.4h-2.3L177.1,229.7z"/>
		<path class="st0" d="M185.9,219.3v6.9c0.5-0.1,1.6-0.1,2.2-0.1c3.8,0,7.1,1.7,7.1,5.8c0,1.7-0.5,3-1.4,3.9
			c-1.5,1.6-4.1,2.2-6.6,2.2c-1.6,0-2.9-0.1-3.7-0.2v-18.5H185.9z M185.9,236c0.5,0.1,1.1,0.1,1.9,0.1c2.6,0,4.9-1.3,4.9-4.1
			c0-2.9-2.5-4-4.9-4c-0.9,0-1.6,0.1-1.9,0.1V236z M199.7,219.3v18.4h-2.4v-18.4H199.7z"/>
		<path class="st0" d="M206.3,219.3v16.4h6v-16.4h2.4v16.4h6v-16.4h2.4v18.4h-19v-18.4H206.3z"/>
		<path class="st0" d="M239.3,219.3v18.4h-2.4v-16.4h-6.1v5.6c0,4-0.2,8.5-2.8,10.2c-0.7,0.4-1.8,0.9-2.8,0.9l-0.3-1.9
			c0.7-0.1,1.5-0.6,1.9-1c1.5-1.4,1.6-5,1.6-8v-7.8H239.3z"/>
		<path class="st0" d="M253,229.1h-7.2v6.6h8v2h-10.4v-18.4h10v2h-7.6v5.8h7.2V229.1z"/>
		<path class="st0" d="M259.3,219.3v7.7h8.9v-7.7h2.4v18.4h-2.4v-8.6h-8.9v8.6h-2.4v-18.4H259.3z"/>
		<path class="st0" d="M277.1,219.3v7.7h8.9v-7.7h2.4v18.4H286v-8.6h-8.9v8.6h-2.4v-18.4H277.1z"/>
		<path class="st0" d="M295,219.3v6.9c0.5-0.1,1.6-0.1,2.2-0.1c3.8,0,7.1,1.7,7.1,5.8c0,1.7-0.5,3-1.4,3.9c-1.5,1.6-4.1,2.2-6.6,2.2
			c-1.6,0-2.9-0.1-3.7-0.2v-18.5H295z M295,236c0.5,0.1,1.1,0.1,1.9,0.1c2.6,0,4.9-1.3,4.9-4.1c0-2.9-2.5-4-4.9-4
			c-0.9,0-1.6,0.1-1.9,0.1V236z M308.7,219.3v18.4h-2.4v-18.4H308.7z"/>
		<path class="st0" d="M323.1,237.8l-2.4-4.1c-1-1.6-1.6-2.6-2.1-3.6h-0.1c-0.5,1.1-1,2.1-2,3.7l-2.2,4h-2.7l5.6-9.3l-5.4-9.1h2.8
			l2.4,4.3c0.7,1.2,1.2,2.1,1.7,3.1h0.1c0.5-1.1,1-1.9,1.7-3.1l2.5-4.3h2.7l-5.6,9l5.7,9.5h-2.7V237.8z"/>
		<path class="st0" d="M350,229.7c-0.1-2.6-0.3-5.7-0.3-8h-0.1c-0.6,2.2-1.4,4.5-2.3,7l-3.3,8.9h-1.8l-3-8.8c-0.9-2.6-1.6-5-2.1-7.2
			H337c-0.1,2.3-0.2,5.4-0.4,8.2l-0.5,7.9h-2.3l1.3-18.4h3l3.1,8.9c0.8,2.3,1.4,4.3,1.9,6.2h0.1c0.5-1.9,1.1-3.9,1.9-6.2l3.3-8.9h3
			l1.1,18.4h-2.1L350,229.7z"/>
		<path class="st0" d="M359.2,232l-1.9,5.8h-2.5l6.3-18.4h2.9l6.3,18.4h-2.5l-2-5.8H359.2z M365.2,230.1l-1.8-5.3
			c-0.4-1.2-0.7-2.3-1-3.4l0,0c-0.3,1.1-0.6,2.2-0.9,3.3l-1.8,5.3h5.5V230.1z"/>
		<path class="st0" d="M385.4,237.2c-0.9,0.4-2.6,0.9-4.9,0.9c-5.2,0-9.1-3.3-9.1-9.3c0-5.8,3.9-9.7,9.6-9.7c2.3,0,3.7,0.5,4.4,0.8
			l-0.6,1.9c-0.9-0.4-2.2-0.8-3.7-0.8c-4.3,0-7.2,2.8-7.2,7.6c0,4.5,2.6,7.4,7.1,7.4c1.5,0,2.9-0.3,3.9-0.8L385.4,237.2z"/>
		<path class="st0" d="M390.8,219.3v16.4h6v-16.4h2.4v16.4h6v-16.4h2.4v18.4h-19v-18.4H390.8z"/>
		<path class="st0" d="M415.1,221.4h-5.6v-2h13.7v2h-5.6v16.4h-2.4v-16.4H415.1z"/>
		<path class="st0" d="M425.9,232l-1.9,5.8h-2.5l6.3-18.4h2.9l6.3,18.4h-2.5l-2-5.8H425.9z M432,230.1l-1.8-5.3
			c-0.4-1.2-0.7-2.3-1-3.4h-0.1c-0.3,1.1-0.6,2.2-0.9,3.3l-1.8,5.3h5.6V230.1z"/>
		<path class="st0" d="M450.1,219.3v2h-8v5c0.6-0.1,1.7-0.1,2.3-0.1c1.8,0,3.5,0.4,4.8,1.2c1.4,0.9,2.4,2.4,2.4,4.5
			c0,1.7-0.6,3-1.5,4c-1.5,1.5-4,2.1-6.5,2.1c-1.7,0-2.9-0.1-3.7-0.2v-18.5H450.1z M442.1,236c0.5,0.1,1.2,0.1,2,0.1
			c1.5,0,3-0.5,3.9-1.4c0.6-0.7,1-1.6,1-2.7c0-1.4-0.6-2.4-1.5-3c-1-0.7-2.2-0.9-3.5-0.9c-0.5,0-1.3,0.1-1.9,0.1L442.1,236
			L442.1,236z"/>
		<path class="st0" d="M470.1,228.4c0,6.3-3.9,9.7-8.6,9.7c-4.9,0-8.3-3.8-8.3-9.4c0-5.9,3.6-9.7,8.6-9.7S470.1,222.9,470.1,228.4z
			 M455.8,228.7c0,3.9,2.1,7.5,5.9,7.5c3.8,0,5.9-3.5,5.9-7.7c0-3.7-1.9-7.5-5.9-7.5C457.7,221,455.8,224.6,455.8,228.7z"/>
		<path class="st0" d="M473.2,219.6c1-0.2,2.7-0.4,4.4-0.4c2.4,0,3.9,0.4,5.1,1.3c1,0.7,1.5,1.8,1.5,3.3c0,1.8-1.2,3.3-3.1,4v0.1
			c1.8,0.4,3.8,1.9,3.8,4.6c0,1.6-0.6,2.8-1.6,3.7c-1.3,1.2-3.4,1.7-6.4,1.7c-1.6,0-2.9-0.1-3.7-0.2V219.6z M475.6,227.1h2.2
			c2.5,0,4-1.3,4-3.1c0-2.2-1.6-3-4-3c-1.1,0-1.7,0.1-2.1,0.2v5.9H475.6z M475.6,236c0.5,0.1,1.1,0.1,2,0.1c2.5,0,4.7-0.9,4.7-3.6
			c0-2.5-2.2-3.6-4.8-3.6h-2L475.6,236L475.6,236z"/>
	</g>
	<g>
		<path class="st0" d="M131.3,128.9h14.9v24.3l14.3-24.3h16.4l-17.6,29.5l17.8,47.5h-16.3l-10.9-31.7l-3.7,6.2v25.6h-14.9V128.9z"/>
		<path class="st0" d="M183.6,205.8v-76.9h13.7l19.5,52.6l0,0v-52.6h12.4v76.9h-13.7l-19.2-52.4l0,0c0.3,7.8,0,52.4,0,52.4H183.6z"
			/>
		<path class="st0" d="M254.5,128.9v76.9h-14.9v-76.9H254.5z"/>
		<path class="st0" d="M264.8,128.9h33.4v13h-18.5v19.7h17.3v12.4h-17.3v31.7h-14.9V128.9z"/>
		<path class="st0" d="M342.1,172h-17.6v20.8h19.9v13h-34.8v-76.9H343v13h-18.5v17.7h17.6V172z"/>
		<path class="st0" d="M462,142.7h-13.6v-13.8h42.2v13.8h-13.7v63.1H462V142.7z"/>
		<path class="st0" d="M369.3,192.8h19.9v13h-34.8v-76.9h33.4v13h-18.5V192.8z"/>
		<path class="st0" d="M427,190.7v-61.8h13v76.9h-41.1v-76.9h13v61.8H427z"/>
		<polygon class="st1" points="25.2,128.9 101.2,128.9 101.2,144.2 25.2,174.1 		"/>
		<polygon class="st0" points="104.2,204.9 104.2,147.2 28.2,177.1 28.2,204.9 		"/>
	</g>
</g>
</svg>
