<?xml version="1.0" encoding="utf-8"?>
<!-- Generator: Adobe Illustrator 25.4.1, SVG Export Plug-In . SVG Version: 6.00 Build 0)  -->
<svg version="1.1" id="Слой_1" xmlns="http://www.w3.org/2000/svg" xmlns:xlink="http://www.w3.org/1999/xlink" x="0px" y="0px"
	 viewBox="0 0 640 640" style="enable-background:new 0 0 640 640;" xml:space="preserve">
<style type="text/css">
	.st0{fill:#FFFFFF;}
	.st1{fill:#E1A6B5;}
	.st2{fill:#E9BBD7;}
	.st3{fill:#E26FAB;}
	.st4{fill:#7391CA;}
	.st5{fill:#77CCCB;}
	.st6{fill:#B9DB9B;}
	.st7{fill:#F8981D;}
	.st8{fill:#F6F5BA;}
	.st9{fill:#6EBE45;}
</style>
<g transform="matrix( 1.366180419921875, 0, 0, 1.366180419921875, -1060.1,-364) ">
	<g>
		<g id="Layer0_0_MEMBER_0_FILL">
			<path class="st0" d="M1048.2,581.9c0-2.8-0.3-5-0.9-6.6c-0.9-2.8-3.1-4.2-6.6-4.2c-2.3,0-4.1,0.6-5.3,1.9
				c-1.6,1.6-2.4,4.6-2.4,8.9v16.8c0,4,0.6,6.8,1.7,8.7c1.1,1.8,3.1,2.7,5.9,2.7c2.8,0,4.7-0.9,5.8-2.7c1.1-1.8,1.7-4.7,1.7-8.7
				V581.9 M1037.6,581.6c0-2.4,0.2-4.1,0.7-5.2c0.5-1,1.3-1.6,2.5-1.6c1.2,0,2,0.5,2.4,1.6c0.4,1,0.6,2.7,0.6,5.2v17.1
				c0,2.9-0.2,4.8-0.6,5.9c-0.4,1.1-1.2,1.6-2.5,1.6s-2.1-0.5-2.5-1.6c-0.4-1-0.6-3-0.6-5.9V581.6 M1062,571.5h-8v38.2h4.5v-18.4
				l2.6,0.1c1.1,0,1.9,0.2,2.4,0.7c0.6,0.4,0.8,2,0.8,4.7c0,8.1,0.1,12.4,0.3,12.9h4.5c-0.2-0.6-0.3-2.7-0.3-6.4s-0.1-6.4-0.3-8.2
				c-0.2-1.9-0.5-3.2-1-4c-0.5-0.8-1.2-1.3-2.2-1.5c1.3-0.4,2.2-1.3,2.7-2.6c0.5-1.3,0.8-3,0.8-4.9s0-3.4-0.1-4.3
				c-0.2-2.3-0.8-3.8-1.8-4.8C1065.9,572,1064.3,571.5,1062,571.5 M1064.4,580.8v0.3c0,2-0.1,3.5-0.3,4.4c-0.2,0.9-0.5,1.6-0.9,1.9
				c-0.4,0.3-1.1,0.5-1.9,0.5h-2.8v-12.9h2.8c1,0,1.8,0.2,2.3,0.7C1064.1,576.2,1064.4,577.9,1064.4,580.8 M1017.2,575.3h4.2v34.4
				h4.5v-34.4h3.9v-3.7h-12.6V575.3 M986.8,571.5h-8v38.2h4.5v-18.4l2.6,0.1c1.1,0,1.9,0.2,2.4,0.7c0.6,0.4,0.8,2,0.8,4.7
				c0,8.1,0.1,12.4,0.3,12.9h4.5c-0.2-0.6-0.3-2.7-0.3-6.4c0-3.6-0.1-6.4-0.3-8.2c-0.2-1.9-0.5-3.2-1-4c-0.5-0.8-1.2-1.3-2.2-1.5
				c1.3-0.4,2.2-1.3,2.7-2.6c0.5-1.3,0.8-3,0.8-4.9s0-3.4-0.1-4.3c-0.2-2.3-0.8-3.8-1.8-4.8C990.6,572,989,571.5,986.8,571.5
				 M986.1,575.1c1,0,1.8,0.2,2.3,0.7c0.5,0.5,0.8,2.2,0.8,5.1v0.3c0,2-0.1,3.5-0.3,4.4c-0.2,0.9-0.5,1.6-0.9,1.9
				c-0.4,0.3-1.1,0.5-1.9,0.5h-2.8v-12.9H986.1 M1008.9,571.5h-5.4l-5.8,38.2h4.3l1-7.3h6.9l1.1,7.3h4.2L1008.9,571.5 M1009.3,598.7
				h-5.9l2.8-20.1h0.1L1009.3,598.7 M1089.3,571.5h-4.4l-3.9,15.6h-0.1l-4.5-15.6h-4.4l6.6,22.1v16h4.5v-16L1089.3,571.5
				 M952.3,580.9v-0.8c0-3.1-0.6-5.3-1.6-6.6c-1-1.3-3-2-5.9-2H938v38.2h7.5c2.7,0,4.7-0.8,5.8-2.5c1.1-1.7,1.7-4.4,1.7-8.2v-0.8
				c0-5.1-1.2-8.2-3.5-9.2c1.1-0.6,1.8-1.5,2.3-2.8C952.1,584.9,952.3,583.2,952.3,580.9 M942.5,587.4v-12.3h2.2
				c0.8,0,1.4,0.1,1.9,0.3c0.9,0.5,1.3,2,1.3,4.5c0,0,0,0.1,0,0.1v1.1c0,1.9-0.1,3.3-0.2,4.1c-0.2,0.8-0.4,1.4-0.8,1.7
				c-0.4,0.3-1,0.4-1.9,0.4H942.5 M945.5,590.9c1.2,0,2,0.5,2.4,1.5c0.4,1,0.6,2.7,0.6,5.2v1.3c0,2.8-0.2,4.7-0.7,5.7
				c-0.4,1-1.3,1.5-2.6,1.5h-2.7v-15.2H945.5 M960.2,572.9c-1.6,1.6-2.4,4.6-2.4,8.9v16.8c0,4,0.6,6.8,1.7,8.7
				c1.1,1.8,3.1,2.7,5.9,2.7c2.8,0,4.7-0.9,5.8-2.7c1.1-1.8,1.7-4.7,1.7-8.7v-16.8c0-2.8-0.3-5-0.9-6.6c-0.9-2.8-3.1-4.2-6.6-4.2
				C963.2,571,961.4,571.7,960.2,572.9 M967.8,576.4c0.4,1,0.6,2.7,0.6,5.2v17.1c0,2.9-0.2,4.8-0.6,5.9c-0.4,1.1-1.2,1.6-2.5,1.6
				s-2.1-0.5-2.5-1.6c-0.4-1-0.6-3-0.6-5.9v-17.1c0-2.4,0.2-4.1,0.7-5.2c0.5-1,1.3-1.6,2.5-1.6C966.7,574.9,967.5,575.4,967.8,576.4
				 M926.8,571.5h-5.4l-5.8,38.2h4.3l1-7.3h6.9l1.1,7.3h4.2L926.8,571.5 M924.2,578.6L924.2,578.6l3.1,20.1h-5.9L924.2,578.6
				 M906.4,571.5h-4.5v38.2h11.5V606h-7V571.5 M1000.7,420.1c-0.2-0.2-0.4-0.4-0.6-0.6c-11.3-11.3-25-17-41-17
				c-16.1,0-29.7,5.7-41.1,17c-11.3,11.3-17,25-17,41c0,16.1,5.7,29.8,17,41.1s25,17,41.1,17c1.8,0,3.6-0.1,5.3-0.2
				c-0.3,1.6-0.4,3.3-0.4,5c0,8.3,2.9,15.3,8.7,21.1c5.9,5.8,12.9,8.7,21.2,8.7c8.2,0,15.3-2.9,21.1-8.7c2.9-2.9,5.1-6.1,6.6-9.6
				c5.7,2.4,11.8,3.6,18.4,3.6c13.1,0,24.3-4.7,33.6-14c9.3-9.2,13.9-20.4,13.9-33.6s-4.6-24.4-13.9-33.7c-3.2-3.2-6.7-5.8-10.4-7.9
				c3-5.1,4.5-10.8,4.5-17.2c0-9.5-3.4-17.7-10.1-24.4c-6.7-6.7-14.9-10.1-24.4-10.1s-17.7,3.4-24.5,10.1
				C1005,411.5,1002.4,415.6,1000.7,420.1 M1003.6,423.3c1.4-4.8,4-9,7.8-12.8c6-6,13.3-9,21.8-9c8.5,0,15.8,3,21.8,9
				c6,6,9,13.3,9,21.8c0,5.7-1.3,10.8-4,15.4c-6.1-2.8-12.7-4.2-19.9-4.2c-8.8,0-16.7,2.1-23.8,6.2
				C1014.5,440,1010.3,431.1,1003.6,423.3 M1002.4,432.3c0-1.5,0.1-3,0.3-4.4c5.5,7.1,8.9,15.1,10.2,24c-0.7,0.5-1.4,1-2.1,1.6
				C1005.2,447.6,1002.4,440.5,1002.4,432.3 M999.5,424.1c-0.6,2.6-0.9,5.3-0.9,8.1c0,9.2,3.1,17.1,9.3,23.7c-0.5,0.5-1,0.9-1.5,1.4
				c-9.3,9.3-13.9,20.5-13.9,33.7c0,0.9,0,1.7,0.1,2.6c-7.6,0.3-14.2,3.2-19.8,8.7c-3.6,3.7-6.1,7.8-7.5,12.5
				c-2,0.2-4.1,0.3-6.2,0.3c-15,0-27.9-5.3-38.5-15.9s-15.9-23.5-15.9-38.5s5.3-27.9,15.9-38.5c10.6-10.6,23.5-15.9,38.5-15.9
				c15,0,27.8,5.3,38.5,15.9C998.2,422.8,998.9,423.4,999.5,424.1 M1010.6,458.6c0.9,0.8,1.9,1.5,2.8,2.3c0,12.8-4,24.1-11.8,33.7
				c-1.7-0.4-3.5-0.7-5.3-0.8c0-0.9,0-1.8,0-2.7c0-12.1,4.3-22.4,12.8-30.9C1009.6,459.6,1010.1,459.1,1010.6,458.6 M1017.1,458.7
				c-0.1-1.6-0.2-3.2-0.3-4.8c6.8-4.4,14.6-6.6,23.2-6.6c6.4,0,12.4,1.2,17.8,3.6c-0.9,1.1-1.8,2.2-2.8,3.2c-6,6-13.3,9-21.8,9
				C1027.2,463.1,1021.8,461.6,1017.1,458.7 M1057.6,456.7c1.3-1.3,2.5-2.7,3.6-4.1c3.4,1.9,6.7,4.4,9.7,7.4
				c8.5,8.5,12.8,18.8,12.8,30.9c0,12.1-4.3,22.4-12.8,30.9c-8.6,8.5-18.9,12.7-30.9,12.7c-6.2,0-11.9-1.1-17.1-3.3
				c0.6-2.5,1-5.1,1-7.9c0-8.3-2.9-15.3-8.7-21.2c-3-2.9-6.2-5.1-9.7-6.6c7.4-9.5,11.3-20.3,11.8-32.7c4.8,2.6,10.2,3.8,16.1,3.8
				C1042.7,466.9,1050.9,463.5,1057.6,456.7 M967.5,523.5c0-1.9,0.2-3.7,0.5-5.4c10-1.5,18.9-5.4,26.8-11.7
				c2.3,6.8,6.1,12.8,11.5,18.3c3.7,3.7,7.7,6.7,12,8.9c-1.3,3.1-3.3,6-5.9,8.6c-5.2,5.1-11.4,7.7-18.6,7.7
				c-7.3,0-13.6-2.6-18.7-7.7C970.1,537,967.5,530.7,967.5,523.5 M1003,498.6c3.6,1.3,6.8,3.3,9.6,6.2c5.1,5.1,7.7,11.3,7.7,18.6
				c0,2.2-0.2,4.3-0.7,6.3c-3.8-2-7.3-4.6-10.5-7.9c-5.4-5.4-9.1-11.5-11.1-18.3c0.7-0.6,1.4-1.3,2.1-2
				C1001.1,500.7,1002.1,499.6,1003,498.6 M999.1,497.5c-0.5,0.5-1,1-1.5,1.6c-0.2,0.2-0.3,0.3-0.5,0.4c-0.2-0.8-0.3-1.5-0.4-2.4
				C997.5,497.3,998.3,497.4,999.1,497.5 M992.8,497.1c0.2,1.8,0.6,3.6,1,5.4c-7.3,6.2-15.5,10-24.6,11.7c1.3-3.4,3.3-6.6,6.1-9.3
				C980.1,499.9,986,497.3,992.8,497.1z"/>
			<path class="st1" d="M993.8,502.5c-0.4-1.8-0.7-3.6-1-5.4c-6.8,0.2-12.7,2.8-17.6,7.7c-2.8,2.8-4.8,5.9-6.1,9.3
				C978.3,512.6,986.5,508.7,993.8,502.5 M997.5,499.1c0.5-0.5,1-1,1.5-1.6c-0.8-0.2-1.6-0.3-2.4-0.4c0.1,0.8,0.2,1.6,0.4,2.4
				C997.2,499.4,997.4,499.3,997.5,499.1z"/>
			<path class="st2" d="M1012.6,504.8c-2.8-2.9-6.1-5-9.6-6.2c-0.9,1-1.8,2.1-2.8,3c-0.7,0.7-1.4,1.3-2.1,2
				c2,6.8,5.7,12.9,11.1,18.3c3.2,3.2,6.8,5.9,10.5,7.9c0.4-2,0.7-4.1,0.7-6.3C1020.3,516.1,1017.7,509.9,1012.6,504.8z"/>
			<path class="st3" d="M968,518c-0.4,1.7-0.5,3.5-0.5,5.4c0,7.3,2.6,13.5,7.8,18.7c5.1,5.1,11.4,7.7,18.7,7.7
				c7.2,0,13.4-2.6,18.6-7.7c2.6-2.6,4.6-5.5,5.9-8.6c-4.3-2.2-8.3-5.2-12-8.9c-5.4-5.4-9.3-11.5-11.5-18.3
				C986.9,512.7,978,516.6,968,518z"/>
			<path class="st4" d="M1061.2,452.7c-1.1,1.4-2.3,2.8-3.6,4.1c-6.7,6.8-14.9,10.1-24.4,10.1c-5.9,0-11.3-1.3-16.1-3.8
				c-0.5,12.3-4.4,23.2-11.8,32.7c3.5,1.5,6.8,3.6,9.7,6.6c5.8,5.9,8.7,12.9,8.7,21.2c0,2.7-0.3,5.4-1,7.9
				c5.2,2.2,10.9,3.3,17.1,3.3c12,0,22.3-4.2,30.9-12.7c8.5-8.5,12.8-18.8,12.8-30.9c0-12.1-4.3-22.4-12.8-30.9
				C1067.9,457.1,1064.6,454.6,1061.2,452.7z"/>
			<path class="st5" d="M1016.8,453.9c0.2,1.6,0.3,3.2,0.3,4.8c4.7,3,10.1,4.4,16.1,4.4c8.5,0,15.8-3,21.8-9c1-1,2-2.1,2.8-3.2
				c-5.4-2.4-11.4-3.6-17.8-3.6C1031.4,447.3,1023.6,449.5,1016.8,453.9z"/>
			<path class="st6" d="M1013.5,460.8c-1-0.7-1.9-1.5-2.8-2.3c-0.5,0.5-1,1-1.6,1.5c-8.5,8.5-12.8,18.8-12.8,30.9c0,0.9,0,1.8,0,2.7
				c1.8,0.1,3.6,0.4,5.3,0.8C1009.5,484.9,1013.4,473.7,1013.5,460.8z"/>
			<path class="st7" d="M998.6,432.2c0-2.8,0.3-5.5,0.9-8.1c-0.6-0.7-1.3-1.4-2-2c-10.6-10.6-23.4-15.9-38.5-15.9
				c-15,0-27.9,5.3-38.5,15.9c-10.6,10.6-15.9,23.5-15.9,38.5s5.3,27.9,15.9,38.5S944,515,959.1,515c2.1,0,4.2-0.1,6.2-0.3
				c1.4-4.6,3.9-8.8,7.5-12.5c5.5-5.5,12.1-8.4,19.8-8.7c0-0.8-0.1-1.7-0.1-2.6c0-13.1,4.6-24.4,13.9-33.7c0.5-0.5,1-1,1.5-1.4
				C1001.7,449.4,998.6,441.5,998.6,432.2z"/>
			<path class="st8" d="M1002.7,427.9c-0.2,1.4-0.3,2.9-0.3,4.4c0,8.2,2.8,15.3,8.4,21.2c0.7-0.6,1.4-1.1,2.1-1.6
				C1011.6,443.1,1008.2,435.1,1002.7,427.9z"/>
			<path class="st9" d="M1011.4,410.5c-3.8,3.8-6.3,8-7.8,12.8c6.7,7.8,10.9,16.6,12.6,26.5c7.1-4.2,15-6.2,23.8-6.2
				c7.2,0,13.8,1.4,19.9,4.2c2.7-4.6,4-9.7,4-15.4c0-8.5-3-15.8-9-21.8c-6-6-13.3-9-21.8-9C1024.7,401.5,1017.4,404.5,1011.4,410.5z
				"/>
		</g>
	</g>
</g>
</svg>
