<?xml version="1.0" encoding="utf-8"?>
<!-- Generator: Adobe Illustrator 25.4.1, SVG Export Plug-In . SVG Version: 6.00 Build 0)  -->
<svg version="1.1" id="Слой_1" xmlns="http://www.w3.org/2000/svg" xmlns:xlink="http://www.w3.org/1999/xlink" x="0px" y="0px"
	 viewBox="0 0 640 640" style="enable-background:new 0 0 640 640;" xml:space="preserve">
<style type="text/css">
	.st0{fill:#770000;}
	.st1{fill:#FFFFFF;}
	.st2{fill:#4F0404;}
	.st3{fill:#980000;}
</style>
<g>
	<g transform="matrix( 1, 0, 0, 1, 0,0) ">
		<g>
			<g id="Layer1_0_FILL_00000060013123949858540870000012350803906805977256_">
				<path class="st0" d="M75.4,218.9c0.5-1.5,0.4-1.9-0.2-1.2c-0.9,0.7-2.8,3.7-5.9,9c-2.9,5.2-4.6,12.8-5.2,22.9
					c0.9,12.3-8.1,32.1-8.7,39c-4.7,4.3-1.2,21.9,1.1,6.1c1.7-0.1,3.6-3.8,3.6-5.4c5.1-0.6,12,6.1,16.5,1.5c0.5-1.9,4.6-1.7,6.7-2
					c-5-7.1,0.5-11.3,1.2-18.4C84,259.1,76.4,243.7,73,232C70.7,227.4,74.6,223.1,75.4,218.9 M60,289.2c-1.3,2.4-0.8,3.5-3.4,5.3
					c0.2-0.8,0.8-2.2,1-3c-0.8-0.9-2.3,10-3.5,9.6c-1.1-5.9-1.6-7.1,1.4-12.4C57.4,289.1,57.9,289.6,60,289.2 M88.1,216.4
					c2.5,5.7,3,12.6,3.1,18.6c-2.2,4.3-8.8,2.4-10-2.2c-1-2.4-1.4-13.3-3.9-15.4c1.8,3.5,2,8.3,2.8,12.8c1.1,4.1-1.5,5.1-3.4,7.9
					c2,9.8,9.5,23.2,9.2,32.2c-0.9,6.7-6,12.3-1.2,18.7c0.3,1.2-6.9,0.4-6.6,2.2c-0.3,0.7-1.9,1.8-2.8,1.2
					c-3.2,25.7-11.6,64.6-29.7,86.3c0.1,0.2-0.1,0.9,0.2,1.1c-9.2,12.9,5.5,6.3,9.7,0.3c7.8,1.6,10.6-0.5,18.1-2.1
					c9.6,2.8,12.8,3.4,22.5-0.8c3.7,5.4,10.8,5.8,7.4-2.6c6.6,1.5-11.9-34.8-9.6-36.9c-4.3-19.4-1-41,3.2-60.2
					c1.8-7.7-6.1-15.2-8.3-22.1c0.8-3.9,1.8-9.9,2.1-12.6c4.4-3.7,5.1-3.6,2.3-9.1C89.8,227.6,92.3,222.3,88.1,216.4 M52.7,379.9
					c2.2,3.5-9.3,6.6-7.8,2.6C45.6,378.5,49.8,378.6,52.7,379.9 M103.1,377.6c0,3.7-5.6,1.4-5.7-1.1
					C98.9,375.4,103.9,372.9,103.1,377.6 M171.2,263.7c-9.1,19.4-31.3,23.6-52.2,23.8h0v0.3h0c0,2,1.3,9-1.9,7.4
					c-0.3,0.3-2-5.8-2.1-5.4c-18.9,5-18.2,24.2-11.7,38.8C131.8,309.9,161.9,293.6,171.2,263.7 M614.7,376
					c-1-63.9-78.6-61.9-114-25.1c95-60.4,119.4,147.1-89.9,101.3C479.8,473.7,605.7,461.7,614.7,376z"/>
				<path class="st1" d="M100.6,379.5c3.2,0.9,2.7-3.5,2.2-4.6C98.2,374.5,95.3,377.9,100.6,379.5 M52.6,381.9
					c2-4.2-7.9-3.4-7.7,0.7C43.5,386.1,52.4,383.7,52.6,381.9z"/>
				<path class="st2" d="M90.7,181c-3-2.6-12.3-3.6-15.4-1.1c-2.7,3.9-7.1,8-5.8,13.2c1.3,3.1,0.8,9.4,3.5,12
					c2.9,3.6,2.2,7.4,7.3,8.6c2.4,1.7,2-10.2,4.2-9.9c6.9-2.5,1.2-3.3,1-8.7c-0.8-4.9,6-5.2,4.5-10.9c2.6,3.2,5.2,13.2,3.7,17.1
					c-1,0.8-5.7,2.3-6.1,3.8c-0.7,1.9-2.2,6.3-2,8.3h-0.1c0.6,1.8,7.4-2.9,9.1-3.1c4.5-2.3,11.4-4.4,13.8-8.9
					c-4.5,0.3-6.5-3.1-7.6-8.1c-0.5-2.1-3.8-4.2-4.8-6C94.4,184.3,93.3,182.8,90.7,181z"/>
				<path class="st3" d="M353.4,294.5c-6.6-8.2-25.9,4.5-18.3,13.7C342.4,316.1,361.2,304.4,353.4,294.5 M90.4,217.6
					c3.7,3.6,3.7,15.8,6,20.3c-1.5,3.4-5.3,16.1-2.6,19.2c4.8,7.4,10.9,15.6,17.2,21.9c1.6,2.1,7.6,5.9,7.5,8.5h0.4
					c-3.6-6.5-10.3-9.7-14.4-16.3c-2.2-4.4,21.7-26.3,23.9-27.5c40.6-30.4,59.8,14,28.7,44.7C227.3,221,161,178.8,90.4,217.6
					 M444,458.7c1.2,0.1,2.3,0.2,3.5,0.3C333.3,444.1,88.9,347,25.3,399.3l20.2,28.1C103.2,370.6,320.4,451.3,444,458.7 M465,320.2
					c-20.1-0.2-39.7,18-39,37.9c-25.1,16.9,5.2-32.2-13.2-36.3c-11.2-3.3-24.7,5-32.4,12.3c1-5.4,0.7-14.4-6.5-14.5
					c-6.6,1.7-12.5,11.1-18.2,14.9l3.5,4.1c12.3-11,4,9.5,2.9,14.9c-3.9,3.1-10.4,11.4-15.2,6.5c-3.3-6,2.6-21.6,3.3-28.6
					c-0.3-24.6-20.2-5-28.6,3l3.5,4.1c11.8-9.9,6.9,5.7,4.9,12.4c-6.2,5.7-15.7,13.7-24.6,9.3c-5.7-4.9,0.5-22.1,1.1-29.9
					c1-0.4,12.4,1.1,12-1.1c2.6-11.2,2.3-7.4-10.1-8.1c1.6-8,3.7-17.7,4.9-24.2c-2.9-4.4-18.9,4.7-19.6,9.5
					c-0.7,3.9-1.5,9.5-2.5,14.7c-1,0.3-7.6-0.9-7.5,1c-1.7,9-3.7,8.3,6.2,8.2c-1.3,7.5-2.5,15.3-3.6,22.6
					c-25.4,23.7-18.9-12.1-13.3-26.5c-21.5-18.9-58.4,4.7-59.9,30.3c-9.4,8.6-14.9,4.9-12.1-7.7c0.4-18.8,25.8-81.3-13.9-66.9
					c-5.4,3.2-8.9,8.1-10.8,13.5c24.1-7.8,4.6,47.3,6,59.6c-23.3,19.5-15.4-17.3-10.8-28.7c-15.4-14.7-44.1-3.2-53.6,13.2
					c-13.9,5.4-32.4-43.3-2.8-50.1c-35.2,0-21.9,79.3-0.2,55.6C100.7,375,128,386.5,149,367c0.2,18.8,25.1,7.7,32.1-0.9
					c0,19.7,24.5,8.9,32.2,0.3c4.3,17.5,27.9,9.3,37.1,0.5c0.8,20.3,27.8,6.1,34.5-3.4c-0.5,25.3,32.9,9.9,42.2-1.3
					c-4,24.8,24.1,13.7,33.2,2.5c1.2,10,7.3,13.2,18.9,13c-10.1-18.8,23.5-60.1,19.2-28.5c-10.1,29.6,8.5,36.4,29.4,17.2
					c28.2,34.3,67.2-17.5,97-33.1c-20.9,5.9-59.9,46.4-77.3,26.6C468.9,359.8,500.3,324.2,465,320.2 M445.3,353.9
					c-0.6-7,3.9-14.4,9.4-18.5c5.1-4.2,10.7-0.5,7.1,5.5C458.4,346.8,451.9,351.6,445.3,353.9 M232.3,353.9
					c0.6-6.3,5.3-13.7,10.4-17.7c18.5-11,8.2,17.1-0.2,21.8C237.6,361.9,231.8,360.9,232.3,353.9 M131.6,358.3
					c-4.2-8.3,10.6-30.6,19.7-23.1C154.7,342.8,139.7,367.2,131.6,358.3z"/>
			</g>
		</g>
	</g>
</g>
</svg>
