<?xml version="1.0" encoding="utf-8"?>
<!-- Generator: Adobe Illustrator 25.4.1, SVG Export Plug-In . SVG Version: 6.00 Build 0)  -->
<svg version="1.1" id="Слой_1" xmlns="http://www.w3.org/2000/svg" xmlns:xlink="http://www.w3.org/1999/xlink" x="0px" y="0px"
	 viewBox="0 0 640 640" style="enable-background:new 0 0 640 640;" xml:space="preserve">
<style type="text/css">
	.st0{fill:#71ACD9;}
	.st1{fill:#FFFFFF;}
</style>
<g transform="matrix( 1, 0, 0, 1, 0,0) ">
	<g>
		<g id="Layer0_0_FILL_00000037683648635652350600000013061450333672823183_">
			<path class="st0" d="M504.4,256.9c-0.2-0.1-0.4-0.2-0.6-0.2l-18.5,0.1l-33.4,21.1l-0.5-3.5c-1.2-5.6-3.2-9.7-6.1-12.5
				c-3.7-3.4-9.6-5.2-17.7-5.2l-27.7,0.1l-29.2,41.5l-6.7-40.3c0-0.3-0.1-0.5-0.2-0.6c-0.2-0.2-0.4-0.3-0.5-0.4
				c-0.2-0.1-0.4-0.2-0.6-0.2H344c-0.3,0-0.5,0.1-0.7,0.2c-0.2,0.1-0.3,0.2-0.5,0.4s-0.2,0.4-0.3,0.6l-13.1,86.6l-35.9-87.8h-16.9
				c-0.3,0-0.5,0.1-0.7,0.2c-0.2,0.1-0.4,0.3-0.5,0.5c-0.1,0.2-0.2,0.4-0.2,0.7v20.8l-17.7-22.3l-49.7,0.1c-0.3,0-0.5,0.1-0.7,0.2
				c-0.2,0.1-0.4,0.3-0.5,0.5c-0.1,0.2-0.2,0.4-0.2,0.7v17.5l-23.2-14.5c-4-3-9.3-4.5-15.9-4.5h-26.5c-0.3,0-0.5,0.1-0.7,0.2
				c-0.2,0.1-0.4,0.3-0.5,0.5c-0.1,0.2-0.2,0.4-0.2,0.7v11.9L114.1,238l-1.1-1c-5.6-1.6-10.8-2.7-15.5-3.3c-1.4-0.2-2.7-0.3-4-0.4
				c-1.3-0.1-2.6-0.1-3.8-0.1c-0.8,0-1.7,0-2.5,0.1c-0.8,0-1.6,0.1-2.4,0.2l-5.1,3.5l-1.4,0.8c-0.4,0.2-0.8,0.4-1.1,0.5
				c-0.4,0.1-0.6,0.2-0.9,0.2l-7.3-0.7c-0.5-0.1-1-0.2-1.5-0.3l-1.5-0.4l-0.3,0.2c-0.3,0.1-0.6,0.5-1.1,1.1
				c-0.3,0.3-0.5,0.6-0.8,1.1c-0.3,0.4-0.6,0.9-1,1.5c-0.4,0.6-0.7,1.3-1.1,2.1c-0.4,0.8-0.9,1.7-1.3,2.7l-1.7,3.5
				c-0.4,0.7-0.8,1.5-1.2,2.3c-0.4,0.8-0.9,1.6-1.5,2.5c-2.2,3.3-7.4,6.1-15.4,8.5l-8.3,2.7l-1.6,0.7c-0.5,0.2-0.9,0.4-1.3,0.7
				c-0.4,0.2-0.8,0.4-1.1,0.7c-0.4,0.2-0.6,0.5-0.9,0.7l1.4,4.7c0.2,0.5,0.3,1,0.4,1.4c0.1,0.4,0.2,0.9,0.2,1.4c0,0.4,0,0.9-0.1,1.3
				c0,0.5-0.1,1-0.2,1.4c-0.1,0.4-0.2,0.9-0.4,1.4c-0.1,0.5-0.3,1-0.5,1.5c-0.3,0.6-0.5,1.2-0.7,1.8c-0.2,0.5-0.4,1-0.5,1.5
				c-0.3,0.9-0.4,1.7-0.5,2.3c-0.1,0.6-0.1,1.1-0.1,1.4v0.4c0.5,1.5,1,2.9,1.5,4.2c0.4,1.3,0.8,2.6,1.1,3.8c0.3,1.2,0.5,2.4,0.7,3.5
				c0.2,1,0.4,2,0.5,2.9l0.6,5.7l-1.5,29.5l-1.1,8.1c-0.4,2.1-0.8,4.2-1.1,6.3c-0.4,2.1-0.7,4.2-0.9,6.3c-0.3,2.1-0.6,4.2-0.8,6.2
				c-0.2,2-0.4,4.1-0.6,6.1c-0.2,2-0.4,4.1-0.5,6.1c-0.1,2-0.2,4-0.3,6c-0.3,5.8-0.8,10.8-1.7,15.1c-0.9,4.2-2,7.6-3.4,10.2v0.1
				l0.1,0.1l0.3,0.1l0.5,0.2l4.9,1.3c0.9,0.2,1.6,0.3,2.3,0.4l13.9-0.5l0.1,0.1h0.1l0.3-0.1c23.5-0.9,47.1-1.7,70.7-2.4
				c23.6-0.7,47.2-1.3,70.7-1.7c23.5-0.5,47-0.8,70.5-1.1c23.6-0.3,47-0.4,70.4-0.4h4.1c22.7,0,45.4,0.1,68.1,0.3
				c22.8,0.2,45.4,0.5,67.9,0.9c23.2,0.4,46.3,1,69.5,1.7c23.2,0.7,46.2,1.4,69.1,2.3l15.6,0.6c0.1,0,0.3,0,0.4-0.1
				c0.2-0.1,0.3-0.2,0.5-0.3c0.1-0.1,0.2-0.2,0.3-0.4c0.1-0.2,0.1-0.3,0.1-0.5c0-0.2,0-0.4,0-0.5s-0.1-0.3-0.2-0.5
				c-4.6-6.8-7.3-13.1-8.1-19c-0.7-6.1-0.8-11.1-0.2-15.1c0.7-4.2,0.8-9.4,0.3-15.4c-0.4-5,0-10.6,1.2-16.9l2.7-10.3
				c2-6.4,3.4-12.4,4.3-17.7c0.8-5.4,1.2-10.2,1-14.5c-0.5-8.3-0.3-14.5,0.5-18.5c0.1-0.6,0.2-1.2,0.3-1.7c0-0.6,0.1-1.2,0.1-1.7
				v-1.7c0-0.5-0.1-1-0.2-1.5l-0.1-1.3l-0.5-2c-0.5-0.3-1-0.7-1.5-1.1l-2.8-2.5l-1.3-0.9c-0.4-0.3-0.8-0.6-1.3-0.9
				c-0.5-0.3-1.1-0.6-1.6-0.9l-1.3-3.8l-6.5-31.3h-0.1l-11.3,8.4c-1.8,1.4-3.5,2.1-5.3,2.1c-0.5,0-1,0-1.4-0.1
				c-0.4-0.1-0.9-0.3-1.3-0.4l-9.5-3l-28-2.3c-0.6,0-1.2,0-1.7,0.1c-0.5,0-1,0.1-1.5,0.3c-0.6,0.1-1.2,0.3-1.7,0.5
				c-0.5,0.2-1,0.4-1.4,0.6c-0.8,0.5-1.4,0.9-1.7,1.3l-21.5,20.9c-3.7,3.5-7.2,7.7-10.5,12.5l-2.1-12.3c0-0.3-0.1-0.5-0.2-0.6
				C504.7,257.1,504.6,256.9,504.4,256.9 M486.4,259.5h16.2L523.9,388h-11.8l-3.5-23.9c0-0.2-0.1-0.4-0.2-0.6
				c-0.2-0.2-0.4-0.3-0.5-0.4c-0.2-0.1-0.4-0.2-0.6-0.2h-23.9c-0.3,0-0.5,0.1-0.7,0.2c-0.2,0.1-0.3,0.2-0.5,0.4
				c-0.1,0.2-0.2,0.4-0.3,0.6l-3.3,23.9h-11.8L486.4,259.5 M427.6,259.5c7.4,0,12.7,1.5,15.8,4.4c2.4,2.4,4.2,6,5.3,10.9l1,19.5
				c0,6.5-0.8,12-2.4,16.5c-1.6,4.1-4.5,6.7-8.6,7.9c-0.2,0-0.4,0.2-0.5,0.3c-0.2,0.1-0.3,0.3-0.3,0.5c-0.1,0.2-0.1,0.4-0.1,0.6
				c0,0.3,0.1,0.6,0.3,0.9c0.2,0.2,0.5,0.4,0.8,0.5c2.8,0.5,5,2,6.5,4.5c1.6,2.8,2.7,7.3,3.5,13.4c0.2,1.6,0.3,3.3,0.5,5.3
				c0.1,2,0.2,4.1,0.3,6.5c0.1,2.3,0.2,4.8,0.2,7.6s0.1,5.7,0.1,8.7l0.6,18.6c0,0.8,0.1,1.4,0.2,1.9H438l-0.3-3.7l-0.5-39.1
				c0-1.6-0.1-3.2-0.1-4.5c0-1.4-0.1-2.6-0.2-3.7c-0.1-1.1-0.3-2-0.4-2.9c-0.1-0.9-0.3-1.6-0.5-2.3c-0.2-0.6-0.3-1.2-0.5-1.7
				c-0.2-0.5-0.4-0.9-0.6-1.1c-0.4-0.7-0.8-1.1-1.1-1.4c-2-1.7-5-2.6-9-2.6l-9.2-0.5h-0.1c-0.2,0-0.3,0-0.5,0.1
				c-0.2,0-0.3,0.1-0.5,0.3c-0.2,0.1-0.3,0.3-0.3,0.5c-0.1,0.2-0.1,0.4-0.1,0.5V388h-12.7V259.5H427.6 M278.1,259.5h12.8V378
				l0.1,0.1h24.1v9.9h-37V259.5 M209.2,259.5l46.9-0.1V388h-46.9V259.5 M345.2,259.5h16.2L382.8,388H371l-3.6-23.9
				c0-0.2-0.1-0.4-0.2-0.6c-0.2-0.2-0.4-0.3-0.5-0.4c-0.2-0.1-0.4-0.2-0.6-0.2h-23.8c-0.3,0-0.5,0.1-0.7,0.2
				c-0.2,0.1-0.4,0.3-0.5,0.5c-0.1,0.2-0.2,0.4-0.2,0.7l-3.3,23.7h-11.9L345.2,259.5 M608.1,355.9l0.1,3.1
				c0.5,5.9,0.5,10.8-0.2,14.8c-0.6,4.2-0.6,9.5,0.2,15.8c0.7,5.7,3,11.7,7,18l-17.3-0.8c0.6-6.2,1.9-11.3,3.9-15.3
				c1.1-2.3,2-5.2,2.7-8.7c0.4-1.8,0.6-3.7,0.9-5.7c0.3-2,0.5-4.2,0.6-6.5C606.3,365.8,607,360.9,608.1,355.9 M58.2,255.5l3.8-7.2
				c0.3-0.7,0.6-1.2,0.9-1.7l2.7-5.2c0.2-0.3,0.3-0.5,0.5-0.7c0,0.2,0.1,0.4,0.2,0.8c0.1,0.4,0.2,1,0.3,1.7l-0.2,5.9l-0.6,4.2
				c-0.2,1.2-0.4,2.3-0.5,3.5c-0.1,1.2-0.1,2.3-0.1,3.5c0,1.2,0,2.3,0.1,3.5c0,1.2,0.1,2.4,0.3,3.5c0.1,1.2,0.3,2.3,0.5,3.5
				c0.2,1.2,0.4,2.4,0.7,3.5c0.3,1.2,0.6,2.3,0.9,3.5c0.3,1.2,0.6,2.3,1,3.5c0.3,1.1,0.6,2.4,1,3.7c0.3,1.4,0.6,2.9,0.9,4.5
				c0.3,1.6,0.5,3.2,0.8,5c0.3,1.7,0.5,3.6,0.7,5.5c0.2,1.9,0.4,3.8,0.6,5.9c0.1,2,0.3,4,0.4,6.1c0.1,2,0.2,4.1,0.3,6.3
				c0,2,0.1,4.1,0.1,6.3h0.1l1.7-4.2l4.1-17.5l1.8-25.5l2.7-12.7c0.2-0.7,0.4-1.4,0.6-2.1c0.2-0.7,0.5-1.3,0.7-1.9
				c0.2-0.4,0.3-0.9,0.5-1.4c0.2-0.5,0.3-1,0.5-1.5l1-6.9l0.5-13.9c0.2-0.1,0.8-0.2,1.9-0.3c0.7,0,1.5-0.1,2.5-0.1l7.2,0.3
				c0.9,0,1.9,0.1,2.8,0.3c0.8,0.1,1.7,0.2,2.5,0.3c0.8,0.1,1.6,0.3,2.3,0.5s1.3,0.4,1.9,0.6c1,0.4,1.6,0.9,1.7,1.5l0.5,11.5
				c0,1.8,0.1,3.5,0.1,5.1c0,1.6,0,3.2-0.1,4.8c-0.1,1.5-0.2,3-0.3,4.4c-0.1,1.4-0.2,2.8-0.4,4.1c-0.2,1.3-0.4,2.5-0.6,3.7
				c-0.3,1.2-0.6,2.3-0.9,3.4l-1.8,5.9c-0.1,0.5-0.2,1-0.3,1.4c-0.1,0.4-0.1,0.9-0.1,1.5c0,0.5,0,1,0.1,1.6c0,0.5,0.1,1.2,0.3,1.9
				l0.5,2.5l0.9,9.7l0.1,0.5c0,0.3,0,0.6-0.1,1.1c0,0.4-0.2,1-0.5,1.7c-0.2,0.3-0.4,0.7-0.5,1.1c-0.2,0.4-0.5,0.8-0.8,1.3l0.1,0.1
				l1.7-0.3h0.7c0.1,0.5,0.2,1.1,0.2,1.6l0.1,1.7c0,0.5,0.1,1.1,0.2,1.7c0,0.6,0.2,1.2,0.4,1.7c0.2,0.7,0.4,1.4,0.6,2.2
				c0.1,0.7,0.3,1.4,0.5,2.2l0.6,4.3l0.1,11.1l-0.5,4.7l0.2,1.1l0.7,9.5c0,1.3,0,2.7,0.1,4.3c0,1.6,0,3.3-0.1,5.1c0,1.1,0,2.2,0,3.3
				c0,1.2,0,2.4,0.1,3.6c0,1.2,0.1,2.4,0.2,3.7c0.1,1.3,0.2,2.7,0.3,4.1c0.1,1.3,0.3,2.7,0.5,4.2c0.2,1.5,0.4,3,0.7,4.5
				c0.2,1.5,0.5,3,0.8,4.6c0.3,1.6,0.6,3.2,1,4.9c0.4,1.6,0.7,3.3,1.1,5.1c0.4,1.7,0.8,3.5,1.3,5.3l-54.2,3.9
				c-3.1-8.9-6.1-15.8-9-20.7c-1.5-2.5-2.9-6.3-4.3-11.3c-0.4-1.7-0.9-3.5-1.3-5.5c-0.4-2-0.9-4-1.3-6.3c-0.4-2.2-0.9-4.6-1.3-7
				c-0.6-3.8-1.3-7.6-2.1-11.3c-0.8-3.8-1.8-7.6-2.7-11.3c-1-3.8-2-7.5-3.2-11.3c-1.2-3.8-2.4-7.5-3.7-11.2l-3.5-14.3l-0.1-0.5
				l-1.5-6.5v-0.5c0-0.3,0-0.6,0.1-1.1c0-0.5,0.1-1.1,0.3-1.7l1.8-7.8c0-0.4,0.1-0.9,0.1-1.3c0-0.4,0-0.9,0-1.3
				c0-0.4-0.1-0.9-0.2-1.3c-0.1-0.4-0.3-0.9-0.4-1.3c-0.1-0.3-0.1-0.5-0.1-0.7c0-0.2,0.1-0.4,0.2-0.7c0.1-0.3,0.4-0.6,0.8-1
				c0.4-0.4,1-0.8,1.7-1.3c0.4-0.2,0.8-0.4,1.3-0.7c0.5-0.2,1-0.4,1.7-0.7c0.6-0.3,1.2-0.5,2-0.8c0.8-0.2,1.6-0.5,2.5-0.7
				c4.4-1.3,8-2.7,10.8-4.3C54.9,259.2,56.9,257.4,58.2,255.5 M181.6,263.4l0.3,0.2c2.8,2.1,4.9,5.2,6.1,9.2
				c1.3,4.4,2.2,9.3,2.5,14.8l-0.4,24.3c-1,8.6-3.3,14.8-6.9,18.8c-3.4,3.8-8.7,5.7-15.9,5.7h-12.3l-0.1,0.1V388h-12.7V259.5h25.1
				C173.3,259.5,178,260.8,181.6,263.4 M36.6,349.5c0.1,4,0.1,7.9,0,11.5c-0.2,3.6-0.5,7-1,10.1c-1.1,7.2-1.3,13.9-0.7,20
				c0.6,6,2.1,11.4,4.4,16.3l-9.4,0.5l-5.2-0.3l-2.7-0.6l4-16.8l0.7-6.9c0-2,0.2-3.9,0.3-5.9c0.1-2,0.2-4,0.5-6
				c0.2-2,0.4-4.1,0.6-6.1c0.2-2,0.5-4.1,0.8-6.1c0.3-2.1,0.6-4.2,0.9-6.2c0.3-2.1,0.7-4.2,1.1-6.2c0.8-4.1,1.4-8.1,1.9-12.1
				c0.5-4,0.9-8,1.3-11.9c0.7,4.9,1.2,9.6,1.7,14.1C36.2,341.2,36.5,345.5,36.6,349.5 M595.9,248.9c1.7-4.4,4-9,6.9-13.8
				c0.7,4.7,1.4,9.1,2.2,13.3c0.8,4.1,1.6,8,2.5,11.6l2,6c0,0.1,0.1,0.3,0.3,0.4c0.1,0.1,0.2,0.2,0.3,0.3c0.7,0.3,1.3,0.6,1.8,1
				c0.5,0.3,1,0.6,1.5,1c0.8,0.6,1.4,1.2,1.9,1.8c0.5,0.5,0.8,1,1.1,1.5l0.6,1.1c0.1,0.2,0.3,0.5,0.4,0.8c0.1,0.3,0.2,0.7,0.3,1.2
				c0.1,0.5,0.2,1.2,0.3,2l0.2,3.1c0,0.5,0,1.1,0,1.7l-0.7,11.5c0,0.9,0,1.9,0,2.9c0,1,0,2,0.1,3.1c0.2,4.1-0.1,8.8-0.9,14
				c-0.9,5.2-2.3,11-4.2,17.3l-1.7,5.6h-0.1l-0.2,1c-2.8,3.8-5.4,7.8-7.8,12.1c-1.2,2.2-2.4,4.4-3.5,6.7c-1.1,2.3-2.2,4.7-3.2,7.1
				l-0.4,1l-1.9,9.5c-0.8,4.9-2,8.7-3.5,11.3c-1.7,2.8-2.9,6-3.6,9.7c-0.7,3.1-2.3,6.8-4.9,11l-40.6-2.6l-0.3-0.1
				c-0.6-3.5-1.1-7-1.4-10.5c-0.3-3.6-0.4-7.2-0.3-10.8c0-3.6,0.3-7.3,0.7-11c0.4-3.7,1-7.5,1.7-11.2c0.8-3.9,1.5-8,2-12.3
				c0.5-4.3,1-8.8,1.3-13.3c0.3-4.6,0.5-9.4,0.6-14.4c0-5,0-10.1-0.1-15.3c-0.1-3.6-0.3-6.9-0.5-10c-0.1-3.1-0.3-6-0.5-8.7
				c-0.2-2.7-0.4-5.1-0.7-7.3c-0.7-6.6-1.5-11.2-2.5-13.9c-1.9-5-2.2-10-1.1-15c1-4.8,1.4-8.2,1.1-10.5c2.3-1.4,4.6-2.1,7.1-2.1h0.1
				l25.8,2.1c1,3.2,2.1,8.2,3.2,15.3c0.3,1.9,0.6,3.9,0.7,6c0.2,2.1,0.3,4.4,0.4,6.8c0.1,2.4,0.1,4.9,0.1,7.5c0,2.7-0.1,5.5-0.3,8.4
				l-3,25.7c-0.1,0.6-0.2,1.2-0.3,1.9l-6.9,36.2h0.1l0.1-0.1h0.1c0,0,0-0.1,0.1-0.1l0.1-0.1l13.3-26.9c0.3-0.7,0.5-1.3,0.7-1.7
				c1.6-5.1,3.4-8.9,5.4-11.4c1.2-1.5,2-3.7,2.6-6.7c0.5-3,0.8-6.8,0.9-11.5c0-2.2,0-4.4,0.1-6.7c0-2.2,0.1-4.4,0.3-6.7
				c0.1-2.3,0.3-4.5,0.5-6.7c0.2-2.3,0.4-4.5,0.6-6.7C593.1,257.6,594.2,253.4,595.9,248.9 M175,273.4c-0.4-0.6-0.8-1.1-1.3-1.6
				c-0.9-1-2-1.7-3.3-2.1c-0.7-0.3-1.4-0.5-2.1-0.6c-0.7-0.1-1.5-0.2-2.3-0.2h-11l-0.1,0.1v56c0,0.4,0.1,0.7,0.4,1
				c0.3,0.2,0.6,0.4,1,0.4h9.3c0.8,0,1.6-0.1,2.3-0.2c0.8-0.1,1.5-0.3,2.1-0.5c1.3-0.5,2.4-1.3,3.4-2.3c0.9-1,1.7-2.2,2.2-3.6
				c0.8-2,1.3-4.9,1.7-8.5c0.2-1.8,0.3-3.8,0.4-6.1c0.1-2.3,0.2-4.8,0.2-7.5v-2.6c0-5.9-0.3-10.7-0.9-14.4l-0.7-3.4
				c-0.2-0.7-0.4-1.3-0.6-1.9C175.6,274.7,175.3,274,175,273.4 M352.9,281.1c-0.2,0.1-0.3,0.2-0.5,0.4c-0.1,0.2-0.2,0.4-0.3,0.6
				l-9.5,69.5c0,0.2,0,0.4,0.1,0.6c0,0.2,0.1,0.4,0.3,0.5c0.1,0.1,0.3,0.2,0.5,0.3c0.2,0.1,0.4,0.1,0.6,0.1h20.1
				c0.2,0,0.4-0.1,0.5-0.1c0.2-0.1,0.4-0.2,0.5-0.3c0.1-0.2,0.2-0.4,0.3-0.5c0-0.2,0-0.4,0-0.6L355,282.1c0-0.2-0.1-0.4-0.2-0.6
				c-0.2-0.2-0.4-0.3-0.5-0.4c-0.2-0.1-0.4-0.2-0.6-0.2h-0.1C353.3,280.9,353.1,281,352.9,281.1 M242.7,269.5
				c-0.2-0.1-0.4-0.2-0.7-0.2h-20l-0.1,0.1V378l0.1,0.1h20c0.2,0,0.4-0.1,0.7-0.2c0.2-0.1,0.4-0.3,0.5-0.5c0.1-0.2,0.2-0.5,0.2-0.7
				V270.7c0-0.3-0.1-0.5-0.2-0.7C243.1,269.8,242.9,269.7,242.7,269.5 M434.8,272.7c-0.3-0.5-0.6-0.9-0.9-1.1
				c-2.2-1.8-5.1-2.7-8.8-2.7h-9.7c-0.3,0-0.5,0.1-0.7,0.2c-0.2,0.1-0.4,0.3-0.5,0.5c-0.1,0.2-0.2,0.4-0.2,0.7v44.3
				c0,0.4,0.1,0.7,0.4,1c0.3,0.2,0.6,0.4,1,0.4h9.8c3.3,0,5.8-0.7,7.5-2.1c1.6-1.3,2.8-3.7,3.4-7.3c0.6-3.3,1-8.5,1-15.5l-0.3-9.5
				c-0.1-0.8-0.2-1.5-0.3-2.1c-0.1-1.1-0.3-2-0.4-2.9c-0.2-0.8-0.4-1.6-0.6-2.2C435.4,273.7,435.1,273.2,434.8,272.7 M494.1,281.1
				c-0.2,0.1-0.3,0.2-0.5,0.4c-0.1,0.2-0.2,0.4-0.3,0.6l-9.5,69.5c0,0.2,0,0.4,0.1,0.6c0,0.2,0.1,0.4,0.3,0.5
				c0.1,0.1,0.3,0.2,0.5,0.3c0.2,0.1,0.4,0.1,0.6,0.1h20.1c0.2,0,0.4-0.1,0.6-0.1c0.1-0.1,0.3-0.2,0.5-0.3c0.1-0.2,0.2-0.4,0.3-0.5
				c0-0.2,0-0.4,0-0.6l-10.4-69.5c0-0.2-0.1-0.4-0.2-0.6c-0.2-0.2-0.4-0.3-0.5-0.4c-0.2-0.1-0.4-0.2-0.6-0.2h-0.2
				C494.5,280.9,494.2,281,494.1,281.1z"/>
			<path class="st1" d="M602.9,235.1c-2.9,4.8-5.2,9.4-6.9,13.8c-1.7,4.4-2.8,8.6-3.3,12.6c-0.2,2.2-0.4,4.5-0.6,6.7
				c-0.2,2.2-0.3,4.5-0.5,6.7c-0.1,2.2-0.2,4.4-0.3,6.7c-0.1,2.2-0.1,4.4-0.1,6.7c0,4.6-0.3,8.4-0.9,11.5c-0.6,3-1.4,5.2-2.6,6.7
				c-2,2.5-3.8,6.3-5.4,11.4c-0.2,0.4-0.4,1-0.7,1.7l-13.3,26.9l-0.1,0.1c0,0,0,0.1-0.1,0.1h-0.1l-0.1,0.1h-0.1l6.9-36.2
				c0.1-0.7,0.2-1.3,0.3-1.9l3-25.7c0.1-2.9,0.2-5.7,0.3-8.4c0-2.7,0-5.2-0.1-7.5c-0.1-2.4-0.2-4.7-0.4-6.8c-0.2-2.1-0.4-4.1-0.7-6
				c-1.1-7-2.2-12.1-3.2-15.3l-25.8-2.1h-0.1c-2.4,0-4.8,0.7-7.1,2.1c0.2,2.2-0.2,5.7-1.1,10.5c-1.1,5-0.7,10,1.1,15
				c1,2.7,1.9,7.3,2.5,13.9c0.2,2.2,0.4,4.6,0.7,7.3c0.2,2.7,0.3,5.6,0.5,8.7c0.2,3.1,0.3,6.4,0.5,10c0.1,5.2,0.2,10.4,0.1,15.3
				c-0.1,5-0.3,9.8-0.6,14.4c-0.4,4.6-0.8,9-1.3,13.3c-0.5,4.3-1.2,8.4-2,12.3c-0.8,3.7-1.3,7.5-1.7,11.2c-0.4,3.7-0.6,7.4-0.7,11
				c-0.1,3.6,0,7.2,0.3,10.8c0.3,3.6,0.8,7.1,1.4,10.5l0.3,0.1l40.6,2.6c2.6-4.2,4.2-7.9,4.9-11c0.7-3.7,1.9-6.9,3.6-9.7
				c1.5-2.6,2.7-6.3,3.5-11.3l1.9-9.5l0.4-1c1-2.4,2.1-4.8,3.2-7.1c1.1-2.3,2.3-4.6,3.5-6.7c2.4-4.3,5-8.4,7.8-12.1l0.2-1h0.1
				l1.7-5.6c1.9-6.3,3.3-12,4.2-17.3c0.8-5.2,1.2-9.9,0.9-14c0-1.1-0.1-2.1-0.1-3.1c0-1,0-2,0-2.9l0.7-11.5c0-0.6,0-1.2,0-1.7
				l-0.2-3.1c-0.1-0.8-0.2-1.5-0.3-2c-0.1-0.5-0.2-0.9-0.3-1.2c-0.1-0.3-0.3-0.6-0.4-0.8l-0.6-1.1c-0.2-0.4-0.6-0.9-1.1-1.5
				c-0.5-0.6-1.1-1.2-1.9-1.8c-0.4-0.4-0.9-0.7-1.5-1c-0.5-0.4-1.1-0.7-1.8-1c-0.1-0.1-0.2-0.2-0.3-0.3c-0.1-0.1-0.2-0.3-0.3-0.4
				l-2-6c-0.8-3.6-1.7-7.5-2.5-11.6C604.3,244.2,603.5,239.8,602.9,235.1 M36.6,361c0.1-3.6,0.1-7.5,0-11.5c-0.1-4-0.4-8.2-0.8-12.7
				c-0.4-4.5-1-9.2-1.7-14.1c-0.4,3.9-0.8,7.9-1.3,11.9c-0.5,4-1.2,8-1.9,12.1c-0.4,2-0.8,4.1-1.1,6.2c-0.4,2-0.7,4.1-0.9,6.2
				c-0.3,2-0.6,4.1-0.8,6.1c-0.2,2-0.4,4-0.6,6.1c-0.2,2-0.4,4-0.5,6c-0.2,2-0.3,4-0.3,5.9l-0.7,6.9l-4,16.8l2.7,0.6l5.2,0.3
				l9.4-0.5c-2.3-4.8-3.8-10.3-4.4-16.3c-0.6-6.1-0.4-12.8,0.7-20C36.1,368,36.4,364.6,36.6,361 M181.8,263.6l-0.3-0.2
				c-3.5-2.6-8.2-3.9-14.2-3.9h-25.1V388H155v-51.5l0.1-0.1h12.3c7.2,0,12.4-1.9,15.9-5.7c3.6-4,5.8-10.2,6.9-18.8l0.4-24.3
				c-0.4-5.5-1.2-10.4-2.5-14.8C186.7,268.8,184.7,265.7,181.8,263.6 M173.7,271.8c0.4,0.5,0.9,1,1.3,1.6c0.4,0.6,0.7,1.3,0.9,2
				c0.2,0.5,0.4,1.2,0.6,1.9l0.7,3.4c0.5,3.7,0.8,8.5,0.9,14.4v2.6c0,2.7-0.1,5.2-0.2,7.5c-0.1,2.2-0.2,4.2-0.4,6.1
				c-0.4,3.6-1,6.5-1.7,8.5c-0.5,1.4-1.3,2.6-2.2,3.6c-1,1-2.1,1.7-3.4,2.3c-0.7,0.2-1.4,0.4-2.1,0.5c-0.8,0.1-1.5,0.2-2.3,0.2h-9.3
				c-0.4,0-0.7-0.2-1-0.4c-0.3-0.3-0.4-0.6-0.4-1v-56l0.1-0.1h11c0.8,0,1.6,0.1,2.3,0.2c0.7,0.1,1.4,0.3,2.1,0.6
				C171.7,270.1,172.8,270.8,173.7,271.8 M62,248.3l-3.8,7.2c-1.3,2-3.3,3.8-6.1,5.4c-2.8,1.6-6.4,3-10.8,4.3
				c-0.9,0.3-1.7,0.5-2.5,0.7c-0.8,0.3-1.4,0.5-2,0.8c-0.6,0.2-1.2,0.4-1.7,0.7c-0.5,0.2-0.9,0.4-1.3,0.7c-0.8,0.4-1.3,0.9-1.7,1.3
				c-0.4,0.4-0.7,0.7-0.8,1c-0.1,0.2-0.2,0.4-0.2,0.7c0,0.2,0,0.5,0.1,0.7c0.1,0.4,0.3,0.9,0.4,1.3c0.1,0.4,0.2,0.8,0.2,1.3
				c0,0.4,0,0.9,0,1.3c0,0.4,0,0.8-0.1,1.3l-1.8,7.8c-0.1,0.7-0.2,1.2-0.3,1.7c-0.1,0.4-0.1,0.8-0.1,1.1v0.5l1.5,6.5l0.1,0.5
				l3.5,14.3c1.3,3.7,2.5,7.4,3.7,11.2c1.2,3.7,2.2,7.5,3.2,11.3c1,3.7,1.9,7.5,2.7,11.3c0.8,3.8,1.5,7.6,2.1,11.3
				c0.4,2.4,0.8,4.8,1.3,7c0.4,2.2,0.9,4.3,1.3,6.3c0.4,2,0.9,3.8,1.3,5.5c1.4,5,2.8,8.7,4.3,11.3c2.9,4.9,5.9,11.8,9,20.7l54.2-3.9
				c-0.5-1.8-0.9-3.5-1.3-5.3c-0.4-1.7-0.8-3.4-1.1-5.1c-0.4-1.6-0.7-3.3-1-4.9c-0.3-1.6-0.6-3.1-0.8-4.6c-0.3-1.5-0.5-3-0.7-4.5
				c-0.2-1.5-0.4-2.9-0.5-4.2c-0.1-1.4-0.2-2.7-0.3-4.1c-0.1-1.3-0.2-2.5-0.2-3.7c-0.1-1.2-0.1-2.4-0.1-3.6c0-1.2,0-2.3,0-3.3
				c0-1.9,0.1-3.6,0.1-5.1c0-1.6-0.1-3-0.1-4.3l-0.7-9.5l-0.2-1.1l0.5-4.7l-0.1-11.1l-0.6-4.3c-0.2-0.8-0.3-1.5-0.5-2.2
				c-0.2-0.8-0.4-1.5-0.6-2.2c-0.2-0.6-0.4-1.2-0.4-1.7c-0.1-0.6-0.2-1.1-0.2-1.7l-0.1-1.7c0-0.5-0.1-1.1-0.2-1.6h-0.7l-1.7,0.3
				l-0.1-0.1c0.3-0.4,0.6-0.9,0.8-1.3c0.2-0.4,0.4-0.8,0.5-1.1c0.3-0.7,0.4-1.3,0.5-1.7c0-0.4,0.1-0.8,0.1-1.1l-0.1-0.5l-0.9-9.7
				l-0.5-2.5c-0.1-0.7-0.2-1.3-0.3-1.9c0-0.6-0.1-1.1-0.1-1.6c0-0.5,0-1,0.1-1.5c0.1-0.4,0.2-0.9,0.3-1.4l1.8-5.9
				c0.3-1.1,0.6-2.2,0.9-3.4c0.2-1.2,0.4-2.4,0.6-3.7c0.2-1.3,0.3-2.6,0.4-4.1c0.1-1.4,0.2-2.9,0.3-4.4c0-1.6,0.1-3.2,0.1-4.8
				c0-1.6-0.1-3.4-0.1-5.1l-0.5-11.5c-0.1-0.6-0.6-1.1-1.7-1.5c-0.6-0.2-1.2-0.4-1.9-0.6s-1.4-0.3-2.3-0.5c-0.8-0.1-1.7-0.2-2.5-0.3
				c-0.9-0.1-1.9-0.2-2.8-0.3l-7.2-0.3c-0.9,0-1.8,0-2.5,0.1c-1.1,0-1.8,0.1-1.9,0.3l-0.5,13.9l-1,6.9c-0.1,0.5-0.3,1-0.5,1.5
				c-0.1,0.5-0.3,1-0.5,1.4c-0.3,0.6-0.5,1.2-0.7,1.9c-0.2,0.7-0.4,1.4-0.6,2.1l-2.7,12.7l-1.8,25.5l-4.1,17.5l-1.7,4.2h-0.1
				c0-2.1,0-4.2-0.1-6.3c0-2.1-0.1-4.2-0.3-6.3c-0.1-2.1-0.3-4.1-0.4-6.1c-0.2-2-0.4-4-0.6-5.9c-0.2-1.9-0.5-3.7-0.7-5.5
				c-0.3-1.8-0.5-3.4-0.8-5c-0.3-1.6-0.6-3.1-0.9-4.5c-0.4-1.4-0.7-2.6-1-3.7c-0.4-1.2-0.7-2.3-1-3.5c-0.3-1.2-0.6-2.4-0.9-3.5
				c-0.3-1.2-0.5-2.3-0.7-3.5c-0.2-1.2-0.4-2.4-0.5-3.5c-0.1-1.2-0.2-2.3-0.3-3.5c-0.1-1.2-0.1-2.4-0.1-3.5c0-1.2,0-2.4,0.1-3.5
				c0.1-1.2,0.2-2.4,0.5-3.5l0.6-4.2l0.2-5.9c-0.1-0.7-0.2-1.3-0.3-1.7c-0.1-0.4-0.2-0.6-0.2-0.8c-0.1,0.1-0.3,0.4-0.5,0.7l-2.7,5.2
				C62.6,247,62.3,247.6,62,248.3 M608.3,359l-0.1-3.1c-1.2,5.1-1.8,10-2.1,14.7c-0.1,2.3-0.3,4.5-0.6,6.5c-0.2,2-0.5,3.9-0.9,5.7
				c-0.7,3.5-1.6,6.4-2.7,8.7c-2,4-3.2,9.1-3.9,15.3l17.3,0.8c-4-6.3-6.3-12.3-7-18c-0.8-6.3-0.8-11.6-0.2-15.8
				C608.7,369.8,608.8,364.9,608.3,359 M361.4,259.5h-16.2L325.7,388h11.9l3.3-23.7c0-0.3,0.1-0.5,0.2-0.7c0.1-0.2,0.2-0.4,0.5-0.5
				c0.2-0.1,0.5-0.2,0.7-0.2H366c0.2,0,0.4,0.1,0.6,0.2c0.2,0.1,0.4,0.2,0.5,0.4c0.1,0.2,0.2,0.4,0.2,0.6L371,388h11.8L361.4,259.5
				 M352.4,281.5c0.1-0.2,0.3-0.3,0.5-0.4c0.2-0.1,0.4-0.2,0.7-0.2h0.1c0.2,0,0.4,0.1,0.6,0.2c0.2,0.1,0.4,0.2,0.5,0.4
				c0.1,0.2,0.2,0.4,0.2,0.6l10.5,69.5c0,0.2,0,0.4,0,0.6c-0.1,0.2-0.2,0.4-0.3,0.5c-0.2,0.1-0.4,0.2-0.5,0.3
				c-0.2,0-0.4,0.1-0.5,0.1H344c-0.2,0-0.4,0-0.6-0.1c-0.2-0.1-0.3-0.2-0.5-0.3c-0.1-0.2-0.2-0.4-0.3-0.5c0-0.2-0.1-0.4-0.1-0.6
				l9.5-69.5C352.2,281.9,352.3,281.7,352.4,281.5 M256.2,259.4l-46.9,0.1V388h46.9V259.4 M242,269.3c0.2,0,0.4,0.1,0.7,0.2
				c0.2,0.1,0.4,0.3,0.5,0.5c0.1,0.2,0.2,0.4,0.2,0.7v105.9c0,0.3-0.1,0.5-0.2,0.7c-0.1,0.2-0.3,0.3-0.5,0.5
				c-0.2,0.1-0.4,0.2-0.7,0.2h-20L222,378V269.4l0.1-0.1H242 M290.9,259.5h-12.8V388h37v-9.9H291l-0.1-0.1V259.5 M443.4,263.9
				c-3.1-2.9-8.4-4.4-15.8-4.4h-26.2V388h12.7v-62.1c0-0.2,0-0.4,0.1-0.5c0-0.2,0.2-0.3,0.3-0.5c0.1-0.1,0.3-0.2,0.5-0.3
				c0.1-0.1,0.3-0.1,0.5-0.1h0.1l9.2,0.5c4,0,7,0.9,9,2.6c0.4,0.3,0.7,0.7,1.1,1.4c0.2,0.3,0.4,0.6,0.6,1.1c0.1,0.5,0.3,1,0.5,1.7
				c0.2,0.6,0.3,1.4,0.5,2.3c0.1,0.8,0.3,1.8,0.4,2.9c0.1,1.1,0.2,2.3,0.2,3.7c0,1.4,0.1,2.9,0.1,4.5l0.5,39.1l0.3,3.7h12.6
				c-0.1-0.5-0.2-1.2-0.2-1.9l-0.6-18.6c0-3.1,0-6-0.1-8.7s-0.1-5.3-0.2-7.6c-0.1-2.4-0.2-4.5-0.3-6.5c-0.1-2-0.3-3.8-0.5-5.3
				c-0.8-6.1-2-10.6-3.5-13.4c-1.5-2.5-3.6-4-6.5-4.5c-0.3-0.1-0.6-0.2-0.8-0.5c-0.2-0.3-0.3-0.6-0.3-0.9c0-0.2,0-0.4,0.1-0.6
				c0-0.2,0.2-0.3,0.3-0.5c0.1-0.2,0.3-0.3,0.5-0.3c4.1-1.2,7-3.8,8.6-7.9c1.6-4.4,2.4-9.9,2.4-16.5l-1-19.5
				C447.5,269.9,445.8,266.2,443.4,263.9 M434,271.6c0.3,0.3,0.6,0.6,0.9,1.1c0.3,0.4,0.5,1,0.7,1.6c0.2,0.6,0.4,1.4,0.6,2.2
				c0.1,0.8,0.3,1.8,0.4,2.9c0.1,0.7,0.2,1.4,0.3,2.1l0.3,9.5c0,7-0.4,12.2-1,15.5c-0.6,3.6-1.8,6-3.4,7.3c-1.7,1.4-4.2,2.1-7.5,2.1
				h-9.8c-0.4,0-0.7-0.2-1-0.4c-0.3-0.3-0.4-0.6-0.4-1v-44.3c0-0.3,0.1-0.5,0.2-0.7c0.1-0.2,0.2-0.4,0.5-0.5
				c0.2-0.1,0.5-0.2,0.7-0.2h9.7C428.9,268.9,431.8,269.8,434,271.6 M502.6,259.5h-16.2L466.9,388h11.8l3.3-23.9
				c0-0.2,0.1-0.4,0.3-0.6c0.1-0.2,0.3-0.3,0.5-0.4c0.2-0.1,0.4-0.2,0.7-0.2h23.9c0.2,0,0.4,0.1,0.6,0.2c0.2,0.1,0.4,0.2,0.5,0.4
				c0.1,0.2,0.2,0.4,0.2,0.6l3.5,23.9h11.8L502.6,259.5 M493.6,281.5c0.1-0.2,0.3-0.3,0.5-0.4c0.2-0.1,0.4-0.2,0.7-0.2h0.2
				c0.2,0,0.4,0.1,0.6,0.2c0.2,0.1,0.4,0.2,0.5,0.4c0.1,0.2,0.2,0.4,0.2,0.6l10.4,69.5c0,0.2,0,0.4,0,0.6c-0.1,0.2-0.2,0.4-0.3,0.5
				c-0.2,0.1-0.3,0.2-0.5,0.3c-0.2,0-0.4,0.1-0.6,0.1h-20.1c-0.2,0-0.4,0-0.6-0.1c-0.2-0.1-0.3-0.2-0.5-0.3
				c-0.1-0.2-0.2-0.4-0.3-0.5c0-0.2-0.1-0.4-0.1-0.6l9.5-69.5C493.4,281.9,493.5,281.7,493.6,281.5z"/>
		</g>
	</g>
</g>
</svg>
