<?xml version="1.0" encoding="utf-8"?>
<!-- Generator: Adobe Illustrator 25.4.1, SVG Export Plug-In . SVG Version: 6.00 Build 0)  -->
<svg version="1.1" id="Слой_1" xmlns="http://www.w3.org/2000/svg" xmlns:xlink="http://www.w3.org/1999/xlink" x="0px" y="0px"
	 viewBox="0 0 640 640" style="enable-background:new 0 0 640 640;" xml:space="preserve">
<style type="text/css">
	.st0{fill:#83D0FF;}
	.st1{font-family:'BookAntiqua';}
	.st2{font-size:88.0131px;}
</style>
<g>
	<path class="st0" d="M251,113.9c-1-0.1-2-0.1-2.9-0.1c-1.2,0-2.2,0-3,0.1c-1.4,0.2-2.3,0.7-2.6,1.4c-0.3,0.7,0,1.7,1,3
		c0.3,0.4,1,1.3,1.9,2.6c0.8,1.4,1.3,2.8,1.6,4.4c0.4,2.6,0.7,4.4,1,5.6c0.4,1.9,0.9,3.6,1.5,5c1.3,3.4,3.8,6.6,7.2,9.9
		c1.7,1.6,3,3.4,4,5.4c1,2,1.5,4.2,1.5,6.3c0.1,4.9-2.2,9.3-6.9,13.3c-21,17.9-35.4,38.7-43,62.3c-6.3,19.4-7.9,40.1-4.9,62.1
		c0.4,3.2,0,0.5,0.6,3.6c0.9,0,1.8,0.2,2.7,0.3c-0.8-4.1-0.5-2.4-0.9-6.5c-2.4-21.2-0.4-41.1,6-59.7c7.8-22.5,21.9-42.5,42.3-59.9
		c2.5-2.1,4.4-4.4,5.7-6.9c1.3-2.4,2-4.9,2.1-7.5c0.2-5.4-2.2-10.3-7.1-14.7c-3-2.7-5.2-5.4-6.4-8.2c-1-2.2-1.9-5.6-2.6-10.2
		c-0.4-2.5-0.9-4.3-1.7-5.5c-0.3-0.4-1-1.2-2.1-2.3c-0.9-0.9-1.2-1.5-0.8-1.9c0.4-0.3,1.3-0.4,2.6-0.2c11.3,1.4,20.1,4.2,26.2,8.4
		c7.3,4.9,11.9,12.2,13.6,21.9c15.1-4.3,26.7-2.3,34.7,6.1c7.1,7.5,14.2,10.8,21.4,10c0.1,0,0.2,0,0.3,0c-4.1,3-9,5.4-14.8,7.2
		c-6.6,2.1-14.5,1.9-23.5-0.4c-4.5-1.2-8.7-1.3-12.6-0.5c-4.1,0.8-8.6,2.9-13.5,6.3c-5.7,3.9-10.7,9.2-14.8,16.1
		c-2.8,4.6-5.1,9.4-6.8,14.6c-3.8,11.6-4,22.4-0.5,32.4c2,5.6,5.5,10.9,10.5,15.8c6.1,6,12.7,9.4,19.7,10.2
		c6.5,0.7,10.7-2.6,12.4-10c0.5-2.3,0.8-3.6,1-4.2c0.3-0.9,0.8-1.4,1.4-1.4c0.6,0,1.4,0.5,2.3,1.6c2.4,3.1,4.3,6.2,5.7,9.1
		c2.2,4.7,3.6,10.2,4.4,16.5c0.5,4.1,2.7,7.6,6.6,10.5c3.3,2.4,8,4.5,14.3,6.3c11.4,3.3,24.1,9.8,38.2,19.6
		c14.1,9.8,23.5,22.5,28.1,38.2c0.1,0,0.2,0.1,0.3,0.1c12.1,2.4,19.4,5.8,22.1,10.4c2.2,3.9,0.9,7.4-4.2,10.5
		c-0.9,0.5-1.8,1-2.8,1.5c-7.2,3.5-18,7-32.6,10.3c15.5-2.5,26.9-5.8,34.3-10c0.7,0.6,0.4,1.6-0.7,2.8c-0.7,0.8-2.5,2.2-5.1,4.4
		c-3.7,2.9-7.9,5.7-12.8,8.5c-18.2,10.4-37.4,16.3-57.5,17.8c-11.2,0.7-23.6-0.4-37.2-3.5c-15.4-3.5-30.1-9-43.8-16.4
		c5.7-1.2,11.3-1.7,17-1.5c5.2,0.2,11.3,1.1,18.3,2.6c-4.7-1.4-8.5-2.5-11.5-3.1c-4.4-1-8.5-1.5-12.3-1.7
		c-9.5-0.4-18.9,1.5-28.2,5.8c-5.3,2.4-10.5,3.9-15.8,4.3c-5.1,0.4-10.1-0.1-15.1-1.6c6.3-1.8,11.3-5.4,15.1-10.7
		c2.8-4,5.5-6.9,8.6-9.5c-0.4,0-0.5-0.1-0.9-0.3c0,0-0.4,0.2-0.4,0.2c-0.2,0-0.3-0.3-0.5-0.4c-1.4,1.2-2.4,2.2-3.6,3.6
		c-1.1,1.2-2.1,2.4-3.2,3.7c-5.5,6.9-12.1,10.8-20,11.6c-0.8,0.1-1.6,0.1-2.4,0.1c1.5,0.9,3,1.6,4.5,2.3c11.2,4.9,23.1,4.5,35.8-1
		c3.6-1.6,7.4-2.8,11.4-3.8c9,5.3,19,9.7,30.1,13.3c12.5,4.1,24.5,6.6,35.9,7.7c3.4,0.3,6.7,0.5,10,0.6c1.5,0,3.1,0,4.6,0h129V113.9
		H251z"/>
	<path class="st0" d="M377.5,374.7c3,0.1,6.4-0.3,10.2-1c2.8-0.5,5.3-1.2,7.4-1.9c-6.7,2.2-15.5,2-26.5-0.5
		c-6.6-1.5-11.4-2.2-14.2-2.1c-3.6,0.2-5.7,1.5-6.4,4c-0.6,2.1,0.2,3.7,2.2,4.7c2.1,1,4.6,0.8,7.5-0.5c3-1.4,5.6-2.2,7.7-2.5
		C367.6,374.7,371.6,374.6,377.5,374.7z"/>
	<path class="st0" d="M211.2,236.2c-2.7-0.4-5.1-0.2-7,0.6c-1.1,0.4-2.3,1.2-3.5,2.3c-2,1.7-3.1,2.1-3.3,1c-0.6-3-2.4-5.6-5.5-7.5
		c-2.9-1.9-6.4-2.9-10.3-3c-1.1-0.1-1.8,0.1-1.9,0.4c-0.1,0.2,0.1,0.5,0.4,0.8c0.3,0.2,0.7,0.6,1.2,1c0.6,0.6,1.2,1.2,1.6,1.7
		c0.9,1.2,1.5,2.8,1.5,4.8c0,1.5,0.4,3.2,1.1,5.1c0.5,1.4,1.1,2.7,1.8,3.7c0.2,0.4,0.4,0.7,0.5,1.1c0.4,1.2,0.1,2.5-0.8,3.8
		c-9.7,13.4-14.7,27.3-15.1,41.7c0,0.2,0,0.4,0,0.6c-0.1,7.2,1,14.4,3.3,21.6c2.3,6.9,5.6,13.6,9.9,20c4.2,6.1,9.1,11.7,14.8,16.8
		c5.6,5,11.5,9.1,17.9,12.5c5.5,2.9,10.9,5.1,16.4,6.6c0.9,0.2,1.8,0.5,2.8,0.7c6.6,1.4,12.9,1.7,18.7,0.9c10.3-1.5,19-2.5,26-3.1
		c3.9-0.3,8.4-0.6,13.3-0.9c5.1-0.4,9-1.1,11.6-2.1c2.8-1.1,3.9-2.6,3.5-4.3c3.3-4.6,0.9-9.4-7.3-14.6c-0.9-0.7-1.3-1.5-1.3-2.4
		c-0.5-15.2-19.8-28.7-57.9-40.5c-1.6-0.5-2.7-1.5-3.4-3.2c-1.7-3.8-3.6-7-5.6-9.6c-2.4-3-4.9-5.5-7.7-7.5c-2.6-1.9-4.7-2.7-6.2-2.4
		c-1.6,0.2-2.4,1.4-2.4,3.6c0,4.3-0.7,7.2-2.1,8.6c-1.4,1.4-3.4,2.3-5.8,2.8c-0.9,0.2-1.8,0.3-2.8,0.3c-1.7,0.1-3.4-0.1-5.3-0.6
		c0,0-0.1,0-0.1,0c-1.5-0.4-2.8-1.1-4.1-2.1c-1-0.8-2-1.9-2.9-3.2c-2.2-3-3.7-6.7-4.5-11c-0.9-4.7-0.7-9.6,0.4-14.6
		c0.8-3.6,1.8-6.3,3-8.4c1.9-3.2,4.5-5.2,7.7-5.9c1.3-0.3,2.6-0.7,3.6-1.3c1.3-0.6,2.2-1.4,2.8-2.2l0.4-1.8c0-0.1,0-0.2,0-0.3
		c0,0,0,0,0,0v0c-0.7,1.2-1.8,2.1-3.3,2.8c-0.6,0.3-2,0.8-4.1,1.4c-1.8,0.5-3.2,1.1-4.3,1.8c-1.5,0.9-2.7,2.3-3.6,3.9
		c-1.6,2.8-2.7,5.7-3.4,8.5c-1.4,5.4-1.5,11.2-0.5,17.3c0.9,5.4,2.7,9.7,5.3,12.6c3.1,3.5,7.3,5.2,12.6,5c0.2,0,0.4,0,0.6,0
		c1.2-0.1,2.5-0.4,3.9-0.8c1.7-0.5,3.2-1.2,4.6-2c3.4-2.1,5-4.6,4.9-7.7c0-1.1,0.2-1.9,0.7-2.3c0.9-0.7,2.6,0,5.1,2.2
		c2.4,2.1,4.6,4.4,6.4,6.7c1.8,2.2,3.2,4.6,4.3,7.3c0.8,1.9,2.3,3.2,4.5,3.9c37.5,12,56.7,25.4,57.5,40.1c0.1,1.2,0.5,2,1.2,2.5
		c6.6,3.7,9.7,7.3,9.1,11c-0.1,0.6-0.2,0.6-0.5,0.1c-0.9-2.1-3-3.4-6.3-3.9c-4.4-0.7-9-2.8-13.8-6.2c-4.8-3.4-8.5-4.8-10.9-4.2
		c-1.1,0.3-1.7,0.8-1.5,1.6c0.1,0.7,0.4,1.1,1.1,1.2c0.7,0.2,1.7,0,2.9-0.4c1-0.3,2-0.3,3.1,0c0.9,0.2,1.9,0.8,3.2,1.6
		c0.7,0.5,1.9,1.3,3.7,2.4c1.6,1,3.2,1.8,4.7,2.4c3,1.3,5.6,2.1,7.9,2.4c2.9,0.4,4.8,1.6,5.9,3.6c0.3,0.6,0.3,1.1-0.2,1.6
		c-0.6,0.6-1.5,1.2-2.8,1.7c-2.7,1.1-6.5,1.8-11.6,2.1c-5,0.2-9.4,0.5-13.3,0.9c-7,0.6-15.7,1.6-26,3.1c-5.9,0.9-12.1,0.6-18.7-0.9
		c-0.3-0.1-0.6-0.1-0.8-0.2c-6.1-1.4-12.3-3.8-18.4-7c-2.1-1.1-4.7-2.7-7.8-4.7c-6.4-4.1-12-9.1-17-14.9c-4.5-5.1-7.2-8.9-8.4-11.3
		c-1.2-2.4-1.5-3.6-1.1-3.5c0.4,0,1.8,1,4,3c2.8,2.4,5.1,4.1,7,5c2.4,1.2,4.6,1.7,6.9,1.5c2.1-0.2,3.7-0.9,4.9-2.3
		c1.2-1.3,1.8-2.9,1.6-4.7c-0.2-2-1.1-3.9-3-5.8c-0.6-0.6-1.3-1.1-2-1.4c4.7-0.4,8.6,0.8,11.8,3.6c1.2,1.1,2.3,2.4,3.3,4
		c1.7,2.6,3,4.5,3.9,5.5c0.9,1,1.9,1.8,3.3,2.6c0.8,0.5,1.7,0.8,2.6,1c-1.8-0.6-4.8-4.3-9.1-10.9c-1.5-2.3-3.1-4-5-5.3h0
		c-4.5-3-10.2-3.2-17.1-0.6c1.3,0.1,2.4,0.2,3.4,0.6c1,0.3,1.8,0.7,2.6,1.2c1.3,0.9,2.1,2.1,2.5,3.6c0.3,1.3,0.2,2.6-0.3,3.9
		c-0.2,0.5-0.6,1-1,1.3c-0.4,0.3-1.1,0.6-2.2,0.9c-1.1,0.3-2.8,0-4.9-0.8c-2.2-0.8-4.8-2.6-7.9-5.4c-3.1-2.8-6.1-6.6-9-11.3
		c-2.9-4.7-4.7-9.4-5.4-14c-0.7-4.6-0.9-9.2-0.5-13.7c0.3-4.5,1.2-9.1,2.6-13.8c1.4-4.7,3.2-9,5.5-12.9c2.3-3.9,4.1-6.9,5.7-9.2
		c1.5-2.2,2.4-3.7,2.4-4.4c0.1-0.7-0.2-1.5-0.9-2.6c-2.2-3.4-3.4-6.3-3.4-8.8c-0.1-1.2-0.3-2.4-0.7-3.6c-0.4-1.3-1-2.3-1.6-2.9
		c0,0,0,0,0-0.1l0,0c-0.4-0.4-0.7-0.6-0.7-0.7c-0.1-0.2,0.2-0.2,1-0.1c3,0.3,5.4,1.1,7.1,2.4c2.2,1.7,3.7,3.5,4.7,5.6
		c0.6,1.3,0.9,2.8,0.9,4.2c0,0.1,0,0.2,0,0.4c0,0.6,0.2,0.9,0.7,0.8c0.4,0,0.9-0.3,1.4-0.9c2.5-2.9,5.1-4.7,7.8-5.4
		c1.4-0.4,3-0.4,4.7-0.2l0.4-1.2C211.2,236.5,211.2,236.3,211.2,236.2z"/>
	<path class="st0" d="M272.8,343.7c2.6-1.3,5.1-1.6,7.6-0.8c6.6,2.1,9.5,2.7,8.7,1.5c-6.7-4.7-11.1-6.3-13.4-4.6
		c-10.9,8-22.3,9.6-34.5,4.8c4.7,2.5,9.6,3.7,14.8,3.6C261.3,348.2,267,346.7,272.8,343.7z"/>
	<text transform="matrix(1 0 0 1 169.587 498.9009)" class="st0 st1 st2">Solphin</text>
</g>
</svg>
