<?xml version="1.0" encoding="utf-8"?>
<!-- Generator: Adobe Illustrator 25.4.1, SVG Export Plug-In . SVG Version: 6.00 Build 0)  -->
<svg version="1.1" id="Слой_1" xmlns="http://www.w3.org/2000/svg" xmlns:xlink="http://www.w3.org/1999/xlink" x="0px" y="0px"
	 viewBox="0 0 640 640" style="enable-background:new 0 0 640 640;" xml:space="preserve">
<style type="text/css">
	.st0{fill-rule:evenodd;clip-rule:evenodd;fill:#FFFFFF;}
</style>
<path class="st0" d="M397.2,278.8c0.4,2.1-0.1,4-1.3,5.8l-11.8,16.7c-1.2,1.7-2.9,2.8-5,3.2c-2.1,0.4-4-0.1-5.8-1.3l-3.3-2.3
	c-0.5-0.1-1.2,0.1-2.3,0.7c-1.2,0.7-2.4,1.7-3.5,3.1c-1.4,1.7-2.5,3.7-3.4,6c-0.9,2.3-1.5,4.8-1.9,7.5c-0.2,1.2,0,2.1,0.6,2.7
	c0.5,0.5,1.7,1.2,3.7,2.2c0.6,0.3,1.7,0.7,3.1,1.3c1.8,0.6,3.4,1.2,4.9,1.6c4.4,1.2,6.5,1.2,6.4,0v0L377,321
	c-0.4-2.4,0.2-4.6,1.6-6.5c1.5-1.9,3.4-3.1,5.8-3.4l39.1-5.7c2.4-0.3,4.6,0.2,6.5,1.7c1.9,1.5,3.1,3.4,3.4,5.8l3.1,21.5
	c0.4,2.4-0.2,4.6-1.6,6.5c-1.5,1.9-3.4,3.1-5.8,3.4l-39.1,5.7c-2.4,0.4-4.6-0.2-6.5-1.6c-1.9-1.4-3.1-3.4-3.4-5.8l-0.7-4.8
	c-0.1-0.4-0.5-0.9-1.3-1.6c-0.8-0.8-1.9-1.5-3.1-2.3c-3.2-2-6.5-3.3-9.8-4c-4.3-0.8-7.9-0.4-11,1.4c-3.8,2.2-6.6,6.3-8.2,12.3
	c-1,3.4-1.4,6.9-1.3,10.5c0.1,3.6,0.7,7,1.7,10.4c1.1,3.5,2.7,6.7,4.8,9.8c2.2,3.2,4.8,6,7.9,8.5c1.3,1.1,8.8,7.4,22.6,10.8
	c17.1,4.2,40.8,8.2,103.8,13.6c-111.1-3.4-274.5-2.7-328.1,0c51.6-3.7,99.9-10,111.4-13c12.3-3.2,17.7-6.7,19-8
	c1.2-1.2,2.1-2.6,2.6-4.1c1.8-4.9,3-9.2,3.6-12.9c0.5-3.2,0.6-6.6,0.4-10.1c-0.4-5.7-2.4-9.9-5.7-12.5c-2.5-1.9-5.5-2.8-9.1-2.7
	c-1.3,0-2.4,0.2-3.3,0.5c-0.9,0.3-1.3,0.5-1.3,0.7l1.1,6.3c0.4,2.1-0.1,4-1.3,5.8c-1.2,1.8-2.9,2.8-5,3.2l-20.1,3.5
	c-2.1,0.4-4-0.1-5.8-1.3c-1.7-1.2-2.8-2.9-3.2-5l-3.3-18.9c-0.4-2.1,0.1-4,1.3-5.8c1.2-1.8,2.9-2.8,5-3.2l20.1-3.5
	c2.1-0.4,4,0.1,5.8,1.3c1.7,1.2,2.8,2.9,3.2,5l1.1,6.5v0c0.1,0.5,0.7,0.7,1.7,0.7c1,0,2.1-0.2,3.4-0.6c1.4-0.4,2.5-1,3.4-1.6
	c1-0.7,1.5-1.4,1.5-2.1c-0.1-2-0.7-4.4-2-7.3c-1.1-2.6-2.5-5.1-4.3-7.7c-1.7-2.4-3.2-4.3-4.7-5.6c-1.5-1.4-2.5-1.8-3.1-1.3l-3.5,3.2
	c-1.8,1.6-3.9,2.4-6.3,2.3c-2.4-0.1-4.5-1-6.1-2.8l-26.8-29c-1.6-1.8-2.4-3.9-2.3-6.3c0.1-2.4,1-4.5,2.8-6.1l16-14.8
	c1.8-1.7,3.9-2.4,6.3-2.3c2.4,0.1,4.5,1,6.1,2.8l26.8,29c1.6,1.8,2.4,3.9,2.3,6.3c-0.1,2.4-1,4.4-2.8,6.1l-3.1,2.9
	c-0.8,0.8-0.8,2.2,0,4.3c0.8,2,2.2,4.4,4.3,7c2.2,2.7,4.8,5.3,7.7,7.8c2.7,2.3,5.6,4.3,8.5,6c1.1,0.6,1.7,0.3,1.8-0.9
	c1.1-8.1,1.3-16.3,0.6-24.6c-0.7-7.3-2-14.3-4.1-21c-1.7-5.5-3.6-10-5.7-13.6c-0.9-1.5-1.7-2.6-2.4-3.4c-0.7-0.7-1.2-1-1.6-0.8
	l-4.4,2.5c-1.8,1.1-3.8,1.3-5.9,0.8c-2.1-0.6-3.6-1.8-4.7-3.6l-9.6-16.6c-1.1-1.8-1.3-3.8-0.8-5.9c0.5-2.1,1.7-3.6,3.6-4.7
	l17.7-10.2c1.8-1.1,3.8-1.3,5.9-0.8c2.1,0.5,3.6,1.7,4.7,3.6l9.6,16.6c1.1,1.8,1.3,3.8,0.8,5.9c-0.5,2.1-1.7,3.6-3.6,4.7l-2.6,1.5
	c-0.6,0.4-0.6,1.9,0.2,4.5c0.7,2.4,1.9,5.3,3.6,8.7c1.7,3.4,3.4,6.5,5.1,9.2c1.2,1.9,2.3,3.4,3.2,4.4c1.1,1.3,2,1.3,2.9,0.1
	c1.3-1.8,2.9-4.8,5-8.8c2.2-4.3,4.2-8.6,6-12.8c2-4.9,3.4-8.8,4.1-11.9c0.8-3.5,0.7-5.6-0.5-6.1h0l0,0l-1.2-0.6l-9-4.2
	c-2.3-1.1-3.9-2.8-4.7-5.2c-0.9-2.4-0.8-4.7,0.3-7l27.2-58.2c1.1-2.3,2.8-3.9,5.2-4.8c2.4-0.9,4.7-0.8,7,0.3l36.2,16.9
	c2.3,1.1,3.9,2.8,4.7,5.2c0.9,2.4,0.8,4.7-0.3,7l-27.2,58.2c-1.1,2.3-2.8,3.9-5.2,4.7c-2.4,0.9-4.7,0.8-7-0.3l-9.6-4.5
	c-0.7-0.3-1.5,0.1-2.4,1.3c-0.8,1.1-1.7,2.8-2.6,5.2c-1.8,4.8-3.3,10.9-4.5,18.3c-1.3,7.9-1.9,15.4-1.9,22.5
	c0.1,8.1,1.1,14.5,3,19.1c0.6,1.2,1.5,1.6,2.6,1.2c2.7-1.2,5.4-3.1,8.1-5.5c2.7-2.5,5.3-5.4,7.8-8.8c2-2.8,3.7-5.6,5-8.3
	c1.2-2.4,1.7-3.9,1.5-4.5l-3.9-2.7c-1.7-1.2-2.8-2.9-3.2-5c-0.4-2.1,0.1-4,1.3-5.8l11.8-16.7c1.2-1.7,2.9-2.8,5-3.2
	c2.1-0.4,4,0.1,5.8,1.3l15.6,11.1C395.8,275.1,396.9,276.7,397.2,278.8z M426.2,309.2c-1.1-0.8-2.3-1.1-3.7-0.9l-30.5,4.4
	c-1.3,0.2-2.4,0.8-3.3,1.9c-0.8,1.1-1.1,2.3-0.9,3.7l2.2,15c0.2,1.4,0.8,2.4,1.9,3.3c1.1,0.8,2.3,1.1,3.7,0.9l30.5-4.4
	c1.4-0.2,2.4-0.8,3.3-1.9c0.8-1.1,1.1-2.3,0.9-3.7l-2.2-15C428,311.1,427.3,310,426.2,309.2z M419.9,311.2c1.1-0.2,2.1,0.1,2.9,0.7
	c0.9,0.7,1.4,1.5,1.6,2.6l1.4,9.6c-0.1,0.3-0.5,0.3-1.2-0.2c0,0,0,0-0.1,0l-0.1,0c-4.3-5-9.5-7.8-15.5-8.3c-3.8-0.4-6-1-6.5-1.9
	L419.9,311.2z M350.7,177.1L328.8,224c-0.6,1.3-0.6,2.6-0.2,3.9c0.5,1.3,1.4,2.3,2.6,2.8l24.8,11.6c1.3,0.6,2.5,0.7,3.9,0.2
	c1.3-0.5,2.3-1.3,2.9-2.6l21.9-46.8c0.6-1.3,0.6-2.6,0.2-3.9c-0.5-1.3-1.3-2.3-2.6-2.9l-24.8-11.6c-1.3-0.6-2.5-0.7-3.9-0.2
	C352.2,175,351.3,175.9,350.7,177.1z M376.6,189.1c1,0.5,1.7,1.2,2,2.3c0.4,1.1,0.3,2.1-0.1,3.1l-4.3,9.1c-0.6-2.9-1.6-5.7-3-8.3
	c-0.5-1.1-1.1-2.1-1.8-3.1c-0.6-1-1.3-1.9-2.1-2.8c-0.8-1-1.6-1.9-2.5-2.8c-2.5-2.5-5.3-4.6-8.2-6.2c0.7-0.1,1.4,0,2.1,0.4
	L376.6,189.1C376.5,189.1,376.6,189.1,376.6,189.1z M287.3,230.2l-12.3,7.1c-1,0.6-1.7,1.5-2,2.6c-0.3,1.2-0.2,2.3,0.4,3.3l6.7,11.5
	c0.6,1,1.5,1.7,2.6,2c1.2,0.3,2.3,0.2,3.3-0.4l12.3-7.1c1.1-0.6,1.7-1.5,2-2.6c0.3-1.2,0.2-2.3-0.4-3.3l-6.7-11.5
	c-0.6-1-1.5-1.7-2.7-2C289.4,229.4,288.3,229.5,287.3,230.2z M289.8,232.4c0.9,0.2,1.6,0.8,2.1,1.6l5.3,9.2c0.5,0.8,0.6,1.7,0.3,2.6
	c-0.2,0.9-0.8,1.6-1.6,2.1l-1.5,0.9c-0.2-1.2-0.5-2.4-0.9-3.5c-0.9-3.1-2.3-6-4.1-8.7c-0.8-1.2-1.8-2.5-2.8-3.6l0.5-0.3
	C288,232.3,288.9,232.2,289.8,232.4z M252.8,262.1c-1.4,0-2.6,0.4-3.6,1.3l-11.1,10.3c-1,0.9-1.5,2.1-1.6,3.4
	c-0.1,1.4,0.4,2.6,1.3,3.6l20.9,22.6c0.9,1,2.1,1.5,3.5,1.6c1.4,0.1,2.6-0.4,3.6-1.3l11.1-10.3c1-0.9,1.5-2.1,1.6-3.5
	c0.1-1.4-0.4-2.6-1.3-3.6l-20.9-22.6C255.4,262.7,254.2,262.1,252.8,262.1z M387.9,273.8c0.8,0.6,1.3,1.3,1.4,2.3
	c0.2,0.9,0,1.8-0.6,2.6l-0.5,0.7c-0.8-0.9-1.6-1.9-2.5-2.8c-3.5-3.5-7.4-6.1-11.6-7.8l0.2-0.3c0.5-0.8,1.3-1.3,2.3-1.4
	c1-0.2,1.8,0,2.6,0.6L387.9,273.8z M335.6,262.3c1.4-5.3,1-5.5-1.2-0.6c-3.6,9-6.5,18.7-8.6,29.2c-2.3,11.4-3.7,23.4-4.1,36.2
	c-0.3,10.2-0.1,20.4,0.8,30.6c0.7,7.6,1.5,14.4,2.6,20.3c0.8,0.1,2.2,0.1,4,0c1.1,0,2.9,0,5.4-0.1c4.8-0.1,8,0.1,9.5,0.5
	c-5.9-7.2-7.9-17.7-5.9-31.4c0.6-3.9,1.5-8.3,2.8-13.1c0.6-2,0.9-3.4,1.1-4c0.3-1,0.3-1.6,0.2-1.6c-0.3-0.2-1.6,1-3.7,3.7
	c-0.6,0.7-1.3,1.7-2.3,2.9c-0.8,0.9-1.2,1.5-1.4,1.6c-0.9,0.5-1.3,0.3-1.5-0.6c-0.2-1.3-0.5-3.2-1-5.9c-0.5-2.8-0.9-5-1.2-6.6
	c-0.9-5.6-1.4-11.1-1.6-16.3C329.5,294,331.4,279.1,335.6,262.3z M253.8,266.4c1.1,0,2,0.5,2.8,1.3l2.9,3.1l8.1,8.7l5.8,6.3
	c0.6,0.6,0.9,1.3,1,2c0,0.3,0.1,0.5,0,0.8c0,1.1-0.5,2-1.3,2.8l-5.8,5.3c0-2.3-0.2-4.5-0.6-6.7c-0.1-0.3-0.1-0.7-0.2-1
	c-1.1-4.8-3.2-9.2-6.3-13.2c-0.9-1.2-1.9-2.3-3-3.4c-1.9-1.9-4-3.6-6.1-5C251.7,266.7,252.7,266.3,253.8,266.4z M390.3,272.7
	l-10.9-7.7c-1-0.7-2.1-1-3.3-0.7c-1.2,0.2-2.1,0.8-2.8,1.8l-8.2,11.6c-0.7,1-0.9,2.1-0.7,3.3c0.2,1.2,0.8,2.2,1.8,2.8l10.9,7.7
	c1,0.7,2.1,0.9,3.3,0.7c1.2-0.2,2.1-0.8,2.8-1.8l8.2-11.6c0.7-1,0.9-2.1,0.7-3.3C391.9,274.3,391.3,273.4,390.3,272.7z M246.7,335.7
	l2.3,13.1c0.2,1.2,0.8,2.1,1.8,2.8c1,0.7,2.1,1,3.3,0.7l14-2.4c1.2-0.2,2.1-0.8,2.8-1.8c0.7-1,0.9-2.1,0.7-3.3l-2.3-13.1
	c-0.2-1.2-0.8-2.1-1.8-2.8c-1-0.7-2.1-0.9-3.2-0.7l-14,2.4c-1.2,0.2-2.1,0.8-2.8,1.8C246.8,333.4,246.5,334.5,246.7,335.7z
	 M263.3,330.6c0.9-0.2,1.8,0,2.6,0.6c0.8,0.6,1.3,1.3,1.4,2.3l1.8,10.5c0.1,0.8,0,1.5-0.3,2.2c-0.8-2-1.8-3.8-3.1-5.6
	c-1.1-1.6-2.3-3.1-3.6-4.5c-0.3-0.3-0.6-0.6-0.9-0.9c-1.3-1.3-2.6-2.4-3.9-3.4L263.3,330.6z M403,418.8c0.5,1.2,0.7,2.6,0.8,4.2
	v10.8c-0.2,3.2-1.4,5.4-3.6,6.5c0.4,0.2,0.8,0.6,1.2,1c0.6,0.6,1,1.3,1.5,2c1.2,2.1,1.8,4.7,1.8,7.7l0,21.9c-2.9,0-4.6-0.7-5.1-2.1
	v-22.1c0-1.6-0.6-3-1.8-4c-1.2-1.1-2.8-1.6-4.8-1.6h-4.1V473h-5.1v-59.9l9.1,0c0,0,0.1,0,0.1,0c3.6,0,6.4,1,8.3,3.1
	C402,416.9,402.6,417.8,403,418.8z M398.8,426.3c0-0.7,0-1.4,0-2.1c-0.1-1.6-0.4-2.9-1.1-4.1c-1-1.8-2.6-2.7-4.8-2.7h-4.1V439h5.4
	c2.7-0.7,4.2-2.4,4.6-5.1c0-1.8,0-3.6,0-5.3c0-0.5,0-0.9,0-1.4c0-0.1,0-0.1,0-0.2C398.8,426.8,398.8,426.5,398.8,426.3z
	 M371.9,416.1c0.7,0.8,1.3,1.7,1.7,2.7c0.5,1.2,0.7,2.6,0.8,4.2v40.7c0,1.6-0.3,3-0.8,4.2c-0.4,1-1,1.9-1.7,2.7
	c-1.9,2-4.6,3.1-8.2,3.1c-4.1,0-7-1.2-8.9-3.5c-1.3-1.7-2.1-3.9-2.1-6.6c0-0.1,0-0.2,0-0.3c0,0,0-0.1,0-0.1v-39.6c0,0,0-0.1,0-0.1
	c0-0.1,0-0.2,0-0.3c0.1-2.7,0.8-4.9,2.1-6.6c1.8-2.3,4.7-3.4,8.7-3.5c0,0,0.1,0,0.1,0C367.3,413.1,370.1,414.1,371.9,416.1z
	 M369.5,426.3c0-0.7,0-1.4,0-2.1c-0.1-1.6-0.4-2.9-1.1-4.1c-1-1.8-2.6-2.7-4.8-2.7c0,0,0,0,0,0c-0.7,0-1.3,0.1-2,0.4
	c-0.7,0.3-1.3,0.7-1.8,1.2c-1.2,1.1-1.8,2.6-1.8,4.5c0,0.1,0,0.1,0,0.2v39.4c0,0.1,0,0.1,0,0.2c0.1,1.9,0.7,3.4,1.8,4.5
	c0.5,0.5,1.1,0.9,1.8,1.2c0.6,0.3,1.3,0.4,2,0.4c2.2,0,3.8-0.9,4.8-2.7c0.7-1.2,1.1-2.6,1.1-4.1c0-0.7,0-1.4,0-2.1
	c0-0.2,0-0.5,0-0.7c0-4.2,0-10.9,0-20.2c0-3.8,0-7.5,0-11.2c0-0.4,0-0.9,0-1.3C369.5,426.8,369.5,426.5,369.5,426.3z M415,467.4h5.2
	v5.6H415V467.4z M465.9,413.1v50c0,0.1,0,0.1,0,0.2c0,1.9,0.7,3.4,1.8,4.5c0.5,0.5,1.1,0.9,1.8,1.2c0.6,0.3,1.3,0.4,2,0.4
	c2.2,0,3.8-0.9,4.8-2.7c0.7-1.2,1.1-2.6,1.1-4.1c0-0.7,0-1.4,0-2.1c0-0.2,0-0.5,0-0.7c0-4.2,0-8.4,0-12.6c0-11.3,0-22.7,0-34.1h4.9
	v50.7c0,0.3,0,0.5,0,0.8c-0.1,1.3-0.3,2.4-0.7,3.4c-0.4,1-1,1.9-1.7,2.7c-1.9,2-4.6,3.1-8.2,3.1c-4.1,0-7-1.2-8.9-3.5
	c-1.3-1.7-2.1-3.9-2.1-6.6c0-0.1,0-0.2,0-0.3c0,0,0-0.1,0-0.1v-50.1H465.9z M439,413.1c0,0,0.1,0,0.1,0c3.6,0,6.4,1,8.2,3.1
	c0.7,0.8,1.3,1.7,1.7,2.7c0.5,1.2,0.7,2.6,0.8,4.2v10.8c-0.2,3.2-1.4,5.4-3.6,6.5c0.4,0.2,0.8,0.6,1.2,1c0.6,0.6,1,1.3,1.5,2
	c1.2,2.1,1.8,4.7,1.8,7.7l0,21.9c-2.9,0-4.6-0.7-5.1-2.1v-22.1c0-1.6-0.6-3-1.8-4c-1.2-1.1-2.8-1.6-4.8-1.6H435V473h-5.1v-59.9
	L439,413.1z M439,417.4h-4.1V439h5.4c2.7-0.7,4.2-2.4,4.6-5.1c0-1.8,0-3.6,0-5.3c0-0.5,0-0.9,0-1.4c0-0.1,0-0.1,0-0.2
	c0-0.2,0-0.5,0-0.7c0-0.7,0-1.4,0-2.1c-0.1-1.6-0.4-2.9-1.1-4.1C442.7,418.3,441.2,417.4,439,417.4z M167.8,418.1
	c-0.8-0.6-1.7-0.9-2.7-0.9h-0.2c-1,0-1.9,0.3-2.7,0.9c-1,0.7-1.4,1.7-1.4,3v6.5c0,2,0.7,4.1,2.2,6.4c0.9,1.3,1.8,2.4,2.9,3.4
	l3.3,3.3c2,2.1,3.7,4.3,4.9,6.6c1.4,2.5,2,4.7,2,6.8v5.2v4.1c0,1.7-0.3,3.2-0.8,4.5c-0.4,1-1,1.9-1.7,2.7c-1.9,2-4.6,3.1-8.2,3.1
	c-4.1,0-7-1.2-8.9-3.5c-1.4-1.8-2.1-4.1-2.1-7.1v-3.8v-15.9c3.1,0.8,4.8,2.9,5.2,6.4v9.5v3.7c0,2,0.6,3.5,1.8,4.7
	c0.5,0.5,1.1,0.9,1.8,1.2c0.6,0.3,1.3,0.4,2,0.4c2.2,0,3.8-0.9,4.8-2.7c0.7-1.2,1.1-2.6,1.1-4.1c0-1,0-2.1,0.1-3.1
	c0-0.9,0-1.9,0-2.9c0-4.5-1.8-8.4-5.3-11.8l-3.5-3.3c-1.9-1.8-3.4-3.8-4.6-6c-1.6-2.8-2.3-5.6-2.3-8.3v-5.9c0-2.9,0.9-5,2.7-6.6
	c1.7-1.5,4.1-2.2,7.2-2.2c2.7,0,4.8,0.8,6.4,2.4c1.8,1.7,2.6,4.2,2.6,7.3v12.7c-3.7-0.9-5.4-2.5-5.2-5v-8.6
	C169.3,419.9,168.8,418.9,167.8,418.1z M180.2,413.1h16.9v4h-5.6v56h-5v-56h-6.3V413.1z M240,417.3v51.4h4.2c2.8,0,4.7-1.3,5.5-3.8
	c0.7-2.1,1-5.3,1-9.5l0-25.7c0-4.4-0.5-7.5-1.5-9.4c-1-1.9-2.6-2.9-4.7-2.9H240z M244.2,413.1c5.4,0,8.8,2.2,10.3,6.6
	c0.9,2.6,1.3,6.1,1.3,10.5l0,25.7c0,6.2-0.9,10.7-2.7,13.3c-1.8,2.6-4.8,3.9-9.2,3.9h-9v-59.9H244.2z M208.4,413.1v50
	c0,0.1,0,0.1,0,0.2c0,1.9,0.7,3.4,1.8,4.5c0.5,0.5,1.1,0.9,1.8,1.2c0.6,0.3,1.3,0.4,2,0.4c2.2,0,3.8-0.9,4.8-2.7
	c0.7-1.2,1.1-2.6,1.1-4.1c0-0.7,0-1.4,0-2.1c0-0.2,0-0.5,0-0.7c0-4.2,0-8.4,0-12.6c0-11.3,0-22.7,0-34.1h4.9v50.7c0,0.3,0,0.5,0,0.8
	c-0.1,1.3-0.3,2.4-0.7,3.4c-0.4,1-0.9,1.9-1.7,2.7c-1.9,2-4.6,3.1-8.3,3.1c-4.1,0-7-1.2-8.9-3.5c-1.3-1.7-2-3.9-2.1-6.6
	c0-0.1,0-0.2,0-0.3c0,0,0-0.1,0-0.1v-50.1H208.4z M287.9,413.1V469h10.6v4h-15.7v-59.9H287.9z M271.4,413.1V473h-5.1v-59.9H271.4z
	 M305.9,473h-4.8l9.6-59.9h5.2l10.7,59.9h-4.9l-2-12.2h-12L305.9,473z M341.1,417v56h-5v-56h-6.3v-4h16.9v4H341.1z M313.4,422.7
	l-5.1,33.9H319L313.4,422.7L313.4,422.7z"/>
</svg>
