<?xml version="1.0" encoding="utf-8"?>
<!-- Generator: Adobe Illustrator 25.4.1, SVG Export Plug-In . SVG Version: 6.00 Build 0)  -->
<svg version="1.1" id="Слой_1" xmlns="http://www.w3.org/2000/svg" xmlns:xlink="http://www.w3.org/1999/xlink" x="0px" y="0px"
	 viewBox="0 0 587.7 380.3" style="enable-background:new 0 0 587.7 380.3;" xml:space="preserve">
<style type="text/css">
	.st0{fill:#EE4327;}
	.st1{fill:#1A2434;}
</style>
<g>
	<rect x="17.8" y="134.2" class="st0" width="558" height="111.9"/>
	<path class="st1" d="M161.6,151.9H92.6v12c10.3,3.1,26,7.8,26.2,7.7l5.5-2.6l19.2-3.9l-14.5,7.5l-1.9,2.8c1.3,2.8,3.9,7.5,5.1,10.2
		c0.3,0.6,0.3,1.2,0.5,1.8c0.3,1.2,3.8,8.3,5,11.5c0.4,0.8-5.4,5.9-5.4,5.9s-11.6-4.1-17.7-6.5c0,0-15.9,13.5-22,18.9v11.2h69.1
		v-48.2h-11.6l11.6-6.1V151.9z"/>
	<path class="st1" d="M247.7,151.9v76.6h-24.3v-10.8l-10.6,10.8h-40v-76.6h23.7v53.6h26.9l1-53.6H247.7z"/>
	<path class="st1" d="M329,182l-11.3-2.1l6.9-5.4v-22.6h-52l-13.9,13.5v63h56.9L329,217V182z M282.7,170.5h19.1v6.5h-19.1V170.5z
		 M282.7,206.1v-22.2H305v22.2H282.7z"/>
	<polygon class="st1" points="498.3,228.5 498.3,151.9 445.6,151.9 423.4,178.8 423.4,228.5 449,228.5 449,173 475.1,173 
		475.1,228.5 	"/>
	<path class="st1" d="M413.7,151.9v76.6h-24.3v-10.8l-10.6,10.8h-40v-76.6h23.7v53.6h26.9l1-53.6H413.7z"/>
</g>
</svg>
