<?xml version="1.0" encoding="utf-8"?>
<!-- Generator: Adobe Illustrator 25.4.1, SVG Export Plug-In . SVG Version: 6.00 Build 0)  -->
<svg version="1.1" id="Слой_1" xmlns="http://www.w3.org/2000/svg" xmlns:xlink="http://www.w3.org/1999/xlink" x="0px" y="0px"
	 viewBox="0 0 640 640" style="enable-background:new 0 0 640 640;" xml:space="preserve">
<style type="text/css">
	.st0{fill:#231F20;}
</style>
<g>
	<path class="st0" d="M356.2,198.2c-1.9,2.6-6.8,62.3-33.8,107.2c-19.2,32-22.1,39.5-16.1,31.4c4.8-6.4,19.3-24.5,19.1-20.3
		c-1,17.1,6.1,21.7,8.8,26c0.3,0.4,0.9,0.1,0.8-0.3c-0.8-3.2-2.9-6.4,0.7-9.2c8.7-6.9,25.3-18.4,41-11c20.3,9.6,20.5,34.6,48.5,41.8
		c8.1,2.1,18.8,0.8,25.1-0.3c1.8-0.3,3,1.8,1.8,3.2c-4.7,5.7-14.1,15.1-24,16.1c-26,2.4-44.4-30.8-64.1-28.6
		c-18.8,2.1-24.9,31.4-24.9,32.7s-16.1,0-16.1,0s-0.8-8.6-7-8.6c-3.9,0-5.2,8.6-5.2,8.6h-16.6l0.3-4.2l1.6-2.3
		c0,0-1.6-12.7-9.9-13.5c-3.5-0.3-8.1,5.5-11.5,11c-2.9,4.6-3,9.6-3,9.6l-19.3-0.6l3.9-9.3l2.6-1.6l13.8-45.3
		c0.5-1.8-1.9-2.9-2.9-1.3L238.8,379l-3,8.6h-19.6l3.7-7.5l3.7-3.2c0,0,65.3-88.1,24-154.8c-8.7-14.1-49.3-2.9-49.3-2.9l-14.5-10.4
		l22.3-33.8l1.6-4.4l20.5-20l-30.4-29.3l2.2-13.3c0.2-0.9,1.4-1,1.7-0.1l2.4,8.5l42,22.3c53-2.2,105.9,47.2,104.8,41.1
		c-4.9-26.4,20.6-19.3,35.7-20.2c14.4-0.9,28.2-7.6,33.5-10.5c0.9-0.5,2,0.3,1.9,1.3c-0.7,4-2.1,8.9-7.7,12.6
		c-1,0.7,4.3,0.2,3.7,1.3c-0.9,1.6-6.1,4.5-7.2,6.1c-1.2,1.9,2.9,1,1.4,2.8c-1.4,1.7-7.9,2.5-9.2,3.7c-2.4,2.3,1.9,5.6,0.5,7.7
		c-1.6,2.4-9.4,3-10.9,4c-1.7,1.1-0.9,4.2-2.7,5.2c-1.7,0.9-7.1,0.2-8.9,0.9c-1.2,0.5-1,2.2-2.2,2.6c-2.1,0.7-5.3-0.3-7.5,0
		c-2,0.3-0.7,2.5-2.5,2.8C365.8,200.7,358.2,195.4,356.2,198.2z"/>
	<g>
		<path class="st0" d="M209.9,485.2v-2.7l34-66.6h-33.4v-9.7h48.2v2.7l-34.1,66.6h35.2v9.7H209.9z"/>
		<path class="st0" d="M300.8,486.2h-5.4l-29.4-80h12l20.3,58.2l19.6-58.2h11.6L300.8,486.2z"/>
		<path class="st0" d="M348.9,415.9v21.9H375v9.2h-26.1v28.5h35.8v9.7h-46.6v-79h47.2v9.7H348.9z"/>
		<path class="st0" d="M441.1,485.2L420,451.3c-2.4,0-6.2-0.2-11.4-0.5v34.4h-10.8v-79c0.4,0,3.2-0.1,8.4-0.4
			c5.2-0.3,9-0.4,11.3-0.4c19,0,28.5,7.5,28.5,22.6c0,5-1.5,9.4-4.6,13.4c-3.1,4-6.7,6.4-10.9,7.4l22.9,36.3H441.1z M408.6,415.9
			v25.7c2.6,0.4,5.1,0.5,7.5,0.5c6.5,0,11.2-1,14.1-3.1c2.9-2.1,4.4-5.8,4.4-11.2c0-4.4-1.6-7.6-4.7-9.5c-3.2-1.9-8.2-2.9-15-2.9
			C413.9,415.4,411.8,415.5,408.6,415.9z"/>
	</g>
	<g>
		<path class="st0" d="M207.3,517.3v-22.1h3.5v21.5c0,1,0.3,1.9,0.9,2.5c0.6,0.6,1.4,0.9,2.4,0.9v3.1
			C209.6,523.2,207.3,521.2,207.3,517.3z"/>
		<path class="st0" d="M237.4,513.4h-14.1c0,2.3,0.6,4.1,1.9,5.3c1.1,1.1,2.5,1.6,4.3,1.6c2,0,3.6-0.6,5-1.7l1.5,2.5
			c-0.5,0.5-1.4,1-2.5,1.4c-1.4,0.5-2.9,0.8-4.6,0.8c-2.5,0-4.6-0.8-6.3-2.5c-1.9-1.8-2.9-4.3-2.9-7.4c0-3.2,1-5.8,2.9-7.8
			c1.8-1.7,3.8-2.6,6.2-2.6c2.8,0,5,0.8,6.6,2.4c1.5,1.5,2.3,3.5,2.3,6C237.6,512,237.6,512.7,237.4,513.4z M228.9,505.8
			c-1.5,0-2.8,0.5-3.9,1.5c-1,1-1.6,2.1-1.7,3.5h10.8c0-1.4-0.4-2.6-1.3-3.5C231.9,506.3,230.6,505.8,228.9,505.8z"/>
		<path class="st0" d="M255.2,520.6c-1.4,1.7-3.5,2.6-6.4,2.6c-1.5,0-2.9-0.6-4-1.7s-1.7-2.5-1.7-4.2c0-2,0.9-3.7,2.6-5
			s4-2.1,6.6-2.1c0.7,0,1.6,0.2,2.5,0.5c0-3.2-1.4-4.8-4.2-4.8c-2.2,0-3.8,0.6-5,1.8l-1.5-2.9c0.7-0.5,1.6-1,2.7-1.4
			c1.2-0.4,2.3-0.6,3.3-0.6c2.8,0,4.9,0.6,6.2,1.9c1.3,1.3,1.9,3.3,1.9,6.2v7c0,1.7,0.5,2.9,1.5,3.4v1.7c-1.4,0-2.5-0.2-3.2-0.6
			C256,522.2,255.5,521.5,255.2,520.6z M254.8,513.2c-1.1-0.2-1.9-0.4-2.3-0.4c-1.8,0-3.2,0.5-4.3,1.4c-1.1,0.9-1.7,2-1.7,3.2
			c0,2,1.2,3.1,3.6,3.1c1.8,0,3.3-0.8,4.7-2.5V513.2z"/>
		<path class="st0" d="M267.8,506h-2.3v-2.7h2.3v-4.1l3.5-1.3v5.4h5.4v2.7h-5.4v9.7c0,1.6,0.3,2.8,0.8,3.5c0.6,0.7,1.4,1,2.7,1
			c0.9,0,1.8-0.2,2.8-0.7l0.5,3.1c-1.4,0.4-3,0.5-4.7,0.5c-1.5,0-2.9-0.6-3.9-1.7c-1.1-1.2-1.6-2.6-1.6-4.4V506z"/>
		<path class="st0" d="M296.3,522.8v-12.3c0-1.5-0.4-2.6-1.1-3.5c-0.7-0.8-1.7-1.3-3-1.3c-0.8,0-1.7,0.2-2.5,0.7
			c-0.8,0.5-1.5,1.1-1.9,1.7v14.6h-3.5v-27.6h3.5v10.2c0.5-0.7,1.2-1.3,2.2-1.8s2.1-0.7,3.2-0.7c2.1,0,3.7,0.7,4.9,2
			c1.2,1.4,1.8,3.2,1.8,5.6v12.3H296.3z"/>
		<path class="st0" d="M324,513.4h-14.1c0,2.3,0.6,4.1,1.9,5.3c1.1,1.1,2.5,1.6,4.3,1.6c2,0,3.6-0.6,5-1.7l1.5,2.5
			c-0.5,0.5-1.4,1-2.5,1.4c-1.4,0.5-2.9,0.8-4.6,0.8c-2.5,0-4.6-0.8-6.3-2.5c-1.9-1.8-2.9-4.3-2.9-7.4c0-3.2,1-5.8,2.9-7.8
			c1.8-1.7,3.8-2.6,6.2-2.6c2.8,0,5,0.8,6.6,2.4c1.5,1.5,2.3,3.5,2.3,6C324.3,512,324.2,512.7,324,513.4z M315.6,505.8
			c-1.5,0-2.8,0.5-3.9,1.5c-1,1-1.6,2.1-1.7,3.5h10.8c0-1.4-0.4-2.6-1.3-3.5C318.5,506.3,317.2,505.8,315.6,505.8z"/>
		<path class="st0" d="M341.4,506.6c-0.8-0.5-1.5-0.8-2.3-0.8c-1.2,0-2.3,0.6-3.2,1.7c-0.9,1.1-1.4,2.5-1.4,4.1v11.2H331v-19.6h3.5
			v3.1c1.3-2.3,3.2-3.5,5.6-3.5c0.6,0,1.5,0.1,2.7,0.3L341.4,506.6z"/>
		<path class="st0" d="M366.2,523.2h-0.9l-5.7-13.3l-5.7,13.3h-0.9l-7-20h3.7l4.2,12.9l5.2-12.9h0.9l5.4,12.9l4.5-12.9h3.4
			L366.2,523.2z"/>
		<path class="st0" d="M377.5,513c0-3,0.8-5.5,2.4-7.3s3.8-2.8,6.4-2.8c2.8,0,5,0.9,6.5,2.7c1.5,1.8,2.3,4.3,2.3,7.4
			c0,3.2-0.8,5.6-2.4,7.5c-1.6,1.8-3.7,2.7-6.5,2.7c-2.8,0-5-0.9-6.5-2.8C378.3,518.6,377.5,516.1,377.5,513z M381.1,513
			c0,4.9,1.7,7.4,5.2,7.4c1.6,0,2.9-0.7,3.8-2s1.4-3.1,1.4-5.4c0-4.9-1.7-7.3-5.2-7.3c-1.6,0-2.8,0.6-3.8,1.9
			C381.6,509,381.1,510.7,381.1,513z"/>
		<path class="st0" d="M412.3,506.6c-0.8-0.5-1.5-0.8-2.3-0.8c-1.2,0-2.3,0.6-3.2,1.7c-0.9,1.1-1.4,2.5-1.4,4.1v11.2h-3.5v-19.6h3.5
			v3.1c1.3-2.3,3.2-3.5,5.6-3.5c0.6,0,1.5,0.1,2.7,0.3L412.3,506.6z"/>
		<path class="st0" d="M431.7,522.8l-6.1-9.8l-3,3.1v6.7H419v-27.6h3.5v17.1l7.5-9.1h4.1l-6.3,7.4l7.7,12.1H431.7z"/>
		<path class="st0" d="M439.4,521.7l1.2-3.3c1.9,1.3,3.5,1.9,4.7,1.9c2.1,0,3.2-0.9,3.2-2.7c0-1.3-1-2.4-3.1-3.3
			c-1.6-0.7-2.7-1.3-3.2-1.7s-1-0.8-1.4-1.3c-0.4-0.5-0.7-1-0.9-1.5c-0.2-0.5-0.3-1.1-0.3-1.7c0-1.6,0.6-2.9,1.8-3.8
			c1.2-0.9,2.7-1.4,4.6-1.4c1.4,0,3.2,0.5,5.4,1.4l-1,3.2c-1.4-1.1-2.8-1.6-4.1-1.6c-0.8,0-1.5,0.2-2.1,0.6
			c-0.6,0.4-0.8,0.9-0.8,1.5c0,1.3,0.7,2.2,2.1,2.9l2.5,1.1c1.5,0.7,2.6,1.5,3.3,2.4s1,2,1,3.3c0,1.8-0.6,3.1-1.8,4.1
			c-1.2,1-2.9,1.5-5.1,1.5C443.2,523.2,441.3,522.7,439.4,521.7z"/>
	</g>
</g>
</svg>
